%TF.GenerationSoftware,KiCad,Pcbnew,10.0.3*%
%TF.CreationDate,2026-06-06T12:47:51+05:30*%
%TF.ProjectId,MOTOR,4d4f544f-522e-46b6-9963-61645f706362,rev?*%
%TF.SameCoordinates,Original*%
%TF.FileFunction,Soldermask,Bot*%
%TF.FilePolarity,Negative*%
%FSLAX46Y46*%
G04 Gerber Fmt 4.6, Leading zero omitted, Abs format (unit mm)*
G04 Created by KiCad (PCBNEW 10.0.3) date 2026-06-06 12:47:51*
%MOMM*%
%LPD*%
G01*
G04 APERTURE LIST*
G04 Aperture macros list*
%AMRoundRect*
0 Rectangle with rounded corners*
0 $1 Rounding radius*
0 $2 $3 $4 $5 $6 $7 $8 $9 X,Y pos of 4 corners*
0 Add a 4 corners polygon primitive as box body*
4,1,4,$2,$3,$4,$5,$6,$7,$8,$9,$2,$3,0*
0 Add four circle primitives for the rounded corners*
1,1,$1+$1,$2,$3*
1,1,$1+$1,$4,$5*
1,1,$1+$1,$6,$7*
1,1,$1+$1,$8,$9*
0 Add four rect primitives between the rounded corners*
20,1,$1+$1,$2,$3,$4,$5,0*
20,1,$1+$1,$4,$5,$6,$7,0*
20,1,$1+$1,$6,$7,$8,$9,0*
20,1,$1+$1,$8,$9,$2,$3,0*%
G04 Aperture macros list end*
%ADD10R,1.700000X1.700000*%
%ADD11C,1.700000*%
%ADD12RoundRect,0.250000X-0.750000X-0.900000X0.750000X-0.900000X0.750000X0.900000X-0.750000X0.900000X0*%
%ADD13O,2.000000X2.300000*%
%ADD14RoundRect,0.250001X1.149999X-1.149999X1.149999X1.149999X-1.149999X1.149999X-1.149999X-1.149999X0*%
%ADD15C,2.800000*%
%ADD16C,1.524000*%
G04 APERTURE END LIST*
D10*
%TO.C,J2*%
X162560000Y-128270000D03*
D11*
X162560000Y-125730000D03*
X162560000Y-123190000D03*
X162560000Y-120650000D03*
X162560000Y-118110000D03*
X162560000Y-115570000D03*
X162560000Y-113030000D03*
X162560000Y-110490000D03*
%TD*%
D12*
%TO.C,PS1*%
X112352500Y-116750000D03*
D13*
X112352500Y-124550000D03*
X154852500Y-109350000D03*
X154852500Y-131950000D03*
%TD*%
D14*
%TO.C,J1*%
X96520000Y-121920000D03*
D15*
X96520000Y-116920000D03*
%TD*%
D16*
%TO.C,U1*%
X169530000Y-101220000D03*
X169530000Y-103760000D03*
X169530000Y-106300000D03*
X169530000Y-108840000D03*
X169530000Y-111380000D03*
X169530000Y-113920000D03*
X169530000Y-116460000D03*
X169530000Y-119000000D03*
X169530000Y-121540000D03*
X169530000Y-124080000D03*
X169530000Y-126620000D03*
X169530000Y-129160000D03*
X169530000Y-131700000D03*
X169530000Y-134240000D03*
X169530000Y-136780000D03*
X197470000Y-136780000D03*
X197470000Y-134240000D03*
X197470000Y-131700000D03*
X197470000Y-129160000D03*
X197470000Y-126620000D03*
X197470000Y-124080000D03*
X197470000Y-121540000D03*
X197470000Y-119000000D03*
X197470000Y-116460000D03*
X197470000Y-113920000D03*
X197470000Y-111380000D03*
X197470000Y-108840000D03*
X197470000Y-106300000D03*
X197470000Y-103760000D03*
X197470000Y-101220000D03*
%TD*%
M02*
