%TF.GenerationSoftware,KiCad,Pcbnew,10.0.3*%
%TF.CreationDate,2026-06-06T17:53:41+05:30*%
%TF.ProjectId,MOTOR,4d4f544f-522e-46b6-9963-61645f706362,rev?*%
%TF.SameCoordinates,Original*%
%TF.FileFunction,Copper,L2,Bot*%
%TF.FilePolarity,Positive*%
%FSLAX46Y46*%
G04 Gerber Fmt 4.6, Leading zero omitted, Abs format (unit mm)*
G04 Created by KiCad (PCBNEW 10.0.3) date 2026-06-06 17:53:41*
%MOMM*%
%LPD*%
G01*
G04 APERTURE LIST*
G04 Aperture macros list*
%AMRoundRect*
0 Rectangle with rounded corners*
0 $1 Rounding radius*
0 $2 $3 $4 $5 $6 $7 $8 $9 X,Y pos of 4 corners*
0 Add a 4 corners polygon primitive as box body*
4,1,4,$2,$3,$4,$5,$6,$7,$8,$9,$2,$3,0*
0 Add four circle primitives for the rounded corners*
1,1,$1+$1,$2,$3*
1,1,$1+$1,$4,$5*
1,1,$1+$1,$6,$7*
1,1,$1+$1,$8,$9*
0 Add four rect primitives between the rounded corners*
20,1,$1+$1,$2,$3,$4,$5,0*
20,1,$1+$1,$4,$5,$6,$7,0*
20,1,$1+$1,$6,$7,$8,$9,0*
20,1,$1+$1,$8,$9,$2,$3,0*%
G04 Aperture macros list end*
%TA.AperFunction,ComponentPad*%
%ADD10R,1.700000X1.700000*%
%TD*%
%TA.AperFunction,ComponentPad*%
%ADD11C,1.700000*%
%TD*%
%TA.AperFunction,ComponentPad*%
%ADD12RoundRect,0.250000X-0.750000X-0.900000X0.750000X-0.900000X0.750000X0.900000X-0.750000X0.900000X0*%
%TD*%
%TA.AperFunction,ComponentPad*%
%ADD13O,2.000000X2.300000*%
%TD*%
%TA.AperFunction,ComponentPad*%
%ADD14RoundRect,0.250001X1.149999X-1.149999X1.149999X1.149999X-1.149999X1.149999X-1.149999X-1.149999X0*%
%TD*%
%TA.AperFunction,ComponentPad*%
%ADD15C,2.800000*%
%TD*%
%TA.AperFunction,ComponentPad*%
%ADD16C,1.524000*%
%TD*%
G04 APERTURE END LIST*
D10*
%TO.P,J2,1,Pin_1_1*%
%TO.N,VCC*%
X165100000Y-127000000D03*
D11*
%TO.P,J2,2,Pin_2_2*%
X165100000Y-124460000D03*
%TO.P,J2,3,Pin_3_3*%
X165100000Y-121920000D03*
%TO.P,J2,4,Pin_4_4*%
X165100000Y-119380000D03*
%TO.P,J2,5,Pin_5_5*%
%TO.N,GND*%
X165100000Y-116840000D03*
%TO.P,J2,6,Pin_6_6*%
X165100000Y-114300000D03*
%TO.P,J2,7,Pin_7_7*%
X165100000Y-111760000D03*
%TO.P,J2,8,Pin_8_8*%
X165100000Y-109220000D03*
%TD*%
D12*
%TO.P,PS1,1,AC/L_1*%
%TO.N,/AC_L*%
X112252500Y-114450000D03*
D13*
%TO.P,PS1,2,AC/N_2*%
%TO.N,/AC_N*%
X112252500Y-122250000D03*
%TO.P,PS1,3,-Vout_3*%
%TO.N,GND*%
X154752500Y-107050000D03*
%TO.P,PS1,4,+Vout_4*%
%TO.N,VCC*%
X154752500Y-129650000D03*
%TD*%
D10*
%TO.P,J4,1,Pin_1_1*%
%TO.N,VCC*%
X172720000Y-135890000D03*
D11*
%TO.P,J4,2,Pin_2_2*%
%TO.N,GND*%
X172720000Y-133350000D03*
%TO.P,J4,3,Pin_3_3*%
%TO.N,/RST*%
X172720000Y-130810000D03*
%TO.P,J4,4,Pin_4_4*%
%TO.N,/EN*%
X172720000Y-128270000D03*
%TO.P,J4,5,Pin_5_5*%
%TO.N,/3.3V*%
X172720000Y-125730000D03*
%TO.P,J4,6,Pin_6_6*%
%TO.N,GND*%
X172720000Y-123190000D03*
%TO.P,J4,7,Pin_7_7*%
%TO.N,/CLK(SCLK)*%
X172720000Y-120650000D03*
%TO.P,J4,8,Pin_8_8*%
%TO.N,/SDO(MISO)*%
X172720000Y-118110000D03*
%TO.P,J4,9,Pin_9_9*%
%TO.N,/CMD(CS)*%
X172720000Y-115570000D03*
%TO.P,J4,10,Pin_10_10*%
%TO.N,/SD1(MOSI)*%
X172720000Y-113030000D03*
%TO.P,J4,11,Pin_11_11*%
%TO.N,/SD2(GPIO9)*%
X172720000Y-110490000D03*
%TO.P,J4,12,Pin_12_12*%
%TO.N,/SD3(GPIO10)*%
X172720000Y-107950000D03*
%TO.P,J4,13,Pin_13_13*%
%TO.N,/RSV*%
X172720000Y-105410000D03*
%TO.P,J4,14,Pin_14_14*%
X172720000Y-102870000D03*
%TO.P,J4,15,Pin_15_15*%
%TO.N,/A0(ADC0)*%
X172720000Y-100330000D03*
%TD*%
D10*
%TO.P,J3,1,Pin_1_1*%
%TO.N,/3.3V*%
X213360000Y-135890000D03*
D11*
%TO.P,J3,2,Pin_2_2*%
%TO.N,GND*%
X213360000Y-133350000D03*
%TO.P,J3,3,Pin_3_3*%
%TO.N,/TX(GPIO1)*%
X213360000Y-130810000D03*
%TO.P,J3,4,Pin_4_4*%
%TO.N,/RX(DPIO3)*%
X213360000Y-128270000D03*
%TO.P,J3,5,Pin_5_5*%
%TO.N,/D8(GPIO15)*%
X213360000Y-125730000D03*
%TO.P,J3,6,Pin_6_6*%
%TO.N,/D7(GPIO13)*%
X213360000Y-123190000D03*
%TO.P,J3,7,Pin_7_7*%
%TO.N,/D6(GPIO12)*%
X213360000Y-120650000D03*
%TO.P,J3,8,Pin_8_8*%
%TO.N,/D5(GPIO14)*%
X213360000Y-118110000D03*
%TO.P,J3,9,Pin_9_9*%
%TO.N,GND*%
X213360000Y-115570000D03*
%TO.P,J3,10,Pin_10_10*%
%TO.N,/3.3V*%
X213360000Y-113030000D03*
%TO.P,J3,11,Pin_11_11*%
%TO.N,/D4(GPIO2)*%
X213360000Y-110490000D03*
%TO.P,J3,12,Pin_12_12*%
%TO.N,/D3(GPIO0)*%
X213360000Y-107950000D03*
%TO.P,J3,13,Pin_13_13*%
%TO.N,/D2(GPIO4)*%
X213360000Y-105410000D03*
%TO.P,J3,14,Pin_14_14*%
%TO.N,/D1(GPIO5)*%
X213360000Y-102870000D03*
%TO.P,J3,15,Pin_15_15*%
%TO.N,/D0(GPIO16)*%
X213360000Y-100330000D03*
%TD*%
D14*
%TO.P,J1,1,Pin_1_1*%
%TO.N,/AC_N*%
X96420000Y-119620000D03*
D15*
%TO.P,J1,2,Pin_2_2*%
%TO.N,/AC_L*%
X96420000Y-114620000D03*
%TD*%
D16*
%TO.P,U1,1,A0(ADC0)_1*%
%TO.N,/A0(ADC0)*%
X179070000Y-100330000D03*
%TO.P,U1,2,RSV_2*%
%TO.N,/RSV*%
X179070000Y-102870000D03*
%TO.P,U1,3,RSV_3*%
X179070000Y-105410000D03*
%TO.P,U1,4,SD3(GPIO10)_4*%
%TO.N,/SD3(GPIO10)*%
X179070000Y-107950000D03*
%TO.P,U1,5,SD2(GPIO9)_5*%
%TO.N,/SD2(GPIO9)*%
X179070000Y-110490000D03*
%TO.P,U1,6,SD1(MOSI)_6*%
%TO.N,/SD1(MOSI)*%
X179070000Y-113030000D03*
%TO.P,U1,7,CMD(CS)_7*%
%TO.N,/CMD(CS)*%
X179070000Y-115570000D03*
%TO.P,U1,8,SDO(MISO)_8*%
%TO.N,/SDO(MISO)*%
X179070000Y-118110000D03*
%TO.P,U1,9,CLK(SCLK)_9*%
%TO.N,/CLK(SCLK)*%
X179070000Y-120650000D03*
%TO.P,U1,10,GND_10*%
%TO.N,GND*%
X179070000Y-123190000D03*
%TO.P,U1,11,3.3V_11*%
%TO.N,/3.3V*%
X179070000Y-125730000D03*
%TO.P,U1,12,EN_12*%
%TO.N,/EN*%
X179070000Y-128270000D03*
%TO.P,U1,13,RST_13*%
%TO.N,/RST*%
X179070000Y-130810000D03*
%TO.P,U1,14,GND_14*%
%TO.N,GND*%
X179070000Y-133350000D03*
%TO.P,U1,15,VIN_15*%
%TO.N,VCC*%
X179070000Y-135890000D03*
%TO.P,U1,16,3.3V_16*%
%TO.N,/3.3V*%
X207010000Y-135890000D03*
%TO.P,U1,17,GND_17*%
%TO.N,GND*%
X207010000Y-133350000D03*
%TO.P,U1,18,TX(GPIO1)_18*%
%TO.N,/TX(GPIO1)*%
X207010000Y-130810000D03*
%TO.P,U1,19,RX(DPIO3)_19*%
%TO.N,/RX(DPIO3)*%
X207010000Y-128270000D03*
%TO.P,U1,20,D8(GPIO15)_20*%
%TO.N,/D8(GPIO15)*%
X207010000Y-125730000D03*
%TO.P,U1,21,D7(GPIO13)_21*%
%TO.N,/D7(GPIO13)*%
X207010000Y-123190000D03*
%TO.P,U1,22,D6(GPIO12)_22*%
%TO.N,/D6(GPIO12)*%
X207010000Y-120650000D03*
%TO.P,U1,23,D5(GPIO14)_23*%
%TO.N,/D5(GPIO14)*%
X207010000Y-118110000D03*
%TO.P,U1,24,GND_24*%
%TO.N,GND*%
X207010000Y-115570000D03*
%TO.P,U1,25,3.3V_25*%
%TO.N,/3.3V*%
X207010000Y-113030000D03*
%TO.P,U1,26,D4(GPIO2)_26*%
%TO.N,/D4(GPIO2)*%
X207010000Y-110490000D03*
%TO.P,U1,27,D3(GPIO0)_27*%
%TO.N,/D3(GPIO0)*%
X207010000Y-107950000D03*
%TO.P,U1,28,D2(GPIO4)_28*%
%TO.N,/D2(GPIO4)*%
X207010000Y-105410000D03*
%TO.P,U1,29,D1(GPIO5)_29*%
%TO.N,/D1(GPIO5)*%
X207010000Y-102870000D03*
%TO.P,U1,30,D0(GPIO16)_30*%
%TO.N,/D0(GPIO16)*%
X207010000Y-100330000D03*
%TD*%
%TA.AperFunction,Conductor*%
%TO.N,GND*%
G36*
X219442539Y-90520185D02*
G01*
X219488294Y-90572989D01*
X219499500Y-90624500D01*
X219499500Y-145375500D01*
X219479815Y-145442539D01*
X219427011Y-145488294D01*
X219375500Y-145499500D01*
X135124000Y-145499500D01*
X135056961Y-145479815D01*
X135011206Y-145427011D01*
X135000000Y-145375500D01*
X135000000Y-141878711D01*
X214149500Y-141878711D01*
X214149500Y-142121288D01*
X214181161Y-142361785D01*
X214243947Y-142596104D01*
X214336773Y-142820205D01*
X214336776Y-142820212D01*
X214458064Y-143030289D01*
X214458066Y-143030292D01*
X214458067Y-143030293D01*
X214605733Y-143222736D01*
X214605739Y-143222743D01*
X214777256Y-143394260D01*
X214777262Y-143394265D01*
X214969711Y-143541936D01*
X215179788Y-143663224D01*
X215403900Y-143756054D01*
X215638211Y-143818838D01*
X215818586Y-143842584D01*
X215878711Y-143850500D01*
X215878712Y-143850500D01*
X216121289Y-143850500D01*
X216169388Y-143844167D01*
X216361789Y-143818838D01*
X216596100Y-143756054D01*
X216820212Y-143663224D01*
X217030289Y-143541936D01*
X217222738Y-143394265D01*
X217394265Y-143222738D01*
X217541936Y-143030289D01*
X217663224Y-142820212D01*
X217756054Y-142596100D01*
X217818838Y-142361789D01*
X217850500Y-142121288D01*
X217850500Y-141878712D01*
X217818838Y-141638211D01*
X217756054Y-141403900D01*
X217663224Y-141179788D01*
X217541936Y-140969711D01*
X217394265Y-140777262D01*
X217394260Y-140777256D01*
X217222743Y-140605739D01*
X217222736Y-140605733D01*
X217030293Y-140458067D01*
X217030292Y-140458066D01*
X217030289Y-140458064D01*
X216820212Y-140336776D01*
X216820205Y-140336773D01*
X216596104Y-140243947D01*
X216361785Y-140181161D01*
X216121289Y-140149500D01*
X216121288Y-140149500D01*
X215878712Y-140149500D01*
X215878711Y-140149500D01*
X215638214Y-140181161D01*
X215403895Y-140243947D01*
X215179794Y-140336773D01*
X215179785Y-140336777D01*
X214969706Y-140458067D01*
X214777263Y-140605733D01*
X214777256Y-140605739D01*
X214605739Y-140777256D01*
X214605733Y-140777263D01*
X214458067Y-140969706D01*
X214336777Y-141179785D01*
X214336773Y-141179794D01*
X214243947Y-141403895D01*
X214181161Y-141638214D01*
X214149500Y-141878711D01*
X135000000Y-141878711D01*
X135000000Y-129381902D01*
X153252000Y-129381902D01*
X153252000Y-129918097D01*
X153288946Y-130151368D01*
X153361933Y-130375996D01*
X153432435Y-130514362D01*
X153469157Y-130586433D01*
X153607983Y-130777510D01*
X153774990Y-130944517D01*
X153966067Y-131083343D01*
X154050255Y-131126239D01*
X154176503Y-131190566D01*
X154176505Y-131190566D01*
X154176508Y-131190568D01*
X154296912Y-131229689D01*
X154401131Y-131263553D01*
X154634403Y-131300500D01*
X154634408Y-131300500D01*
X154870597Y-131300500D01*
X155103868Y-131263553D01*
X155328492Y-131190568D01*
X155538933Y-131083343D01*
X155730010Y-130944517D01*
X155897017Y-130777510D01*
X156035843Y-130586433D01*
X156143068Y-130375992D01*
X156216053Y-130151368D01*
X156223844Y-130102179D01*
X156253000Y-129918097D01*
X156253000Y-129381902D01*
X156216053Y-129148631D01*
X156182189Y-129044412D01*
X156143068Y-128924008D01*
X156143066Y-128924005D01*
X156143066Y-128924003D01*
X156073978Y-128788412D01*
X156035843Y-128713567D01*
X155897017Y-128522490D01*
X155730010Y-128355483D01*
X155538933Y-128216657D01*
X155448618Y-128170639D01*
X155328496Y-128109433D01*
X155103868Y-128036446D01*
X154870597Y-127999500D01*
X154870592Y-127999500D01*
X154634408Y-127999500D01*
X154634403Y-127999500D01*
X154401131Y-128036446D01*
X154176503Y-128109433D01*
X153966066Y-128216657D01*
X153859899Y-128293793D01*
X153774990Y-128355483D01*
X153774988Y-128355485D01*
X153774987Y-128355485D01*
X153607985Y-128522487D01*
X153607985Y-128522488D01*
X153607983Y-128522490D01*
X153561664Y-128586243D01*
X153469157Y-128713566D01*
X153361933Y-128924003D01*
X153288946Y-129148631D01*
X153252000Y-129381902D01*
X135000000Y-129381902D01*
X135000000Y-119273713D01*
X163749500Y-119273713D01*
X163749500Y-119486287D01*
X163782754Y-119696243D01*
X163806788Y-119770213D01*
X163848444Y-119898414D01*
X163944951Y-120087820D01*
X164069890Y-120259786D01*
X164220213Y-120410109D01*
X164392182Y-120535050D01*
X164400946Y-120539516D01*
X164451742Y-120587491D01*
X164468536Y-120655312D01*
X164445998Y-120721447D01*
X164400946Y-120760484D01*
X164392182Y-120764949D01*
X164220213Y-120889890D01*
X164069890Y-121040213D01*
X163944951Y-121212179D01*
X163848444Y-121401585D01*
X163782753Y-121603760D01*
X163750872Y-121805048D01*
X163749500Y-121813713D01*
X163749500Y-122026287D01*
X163782754Y-122236243D01*
X163806788Y-122310213D01*
X163848444Y-122438414D01*
X163944951Y-122627820D01*
X164069890Y-122799786D01*
X164220213Y-122950109D01*
X164392182Y-123075050D01*
X164400946Y-123079516D01*
X164451742Y-123127491D01*
X164468536Y-123195312D01*
X164445998Y-123261447D01*
X164400946Y-123300484D01*
X164392182Y-123304949D01*
X164220213Y-123429890D01*
X164069890Y-123580213D01*
X163944951Y-123752179D01*
X163848444Y-123941585D01*
X163782753Y-124143760D01*
X163757173Y-124305269D01*
X163749500Y-124353713D01*
X163749500Y-124566287D01*
X163782754Y-124776243D01*
X163806788Y-124850213D01*
X163848444Y-124978414D01*
X163944951Y-125167820D01*
X164069890Y-125339786D01*
X164183430Y-125453326D01*
X164216915Y-125514649D01*
X164211931Y-125584341D01*
X164170059Y-125640274D01*
X164139083Y-125657189D01*
X164007669Y-125706203D01*
X164007664Y-125706206D01*
X163892455Y-125792452D01*
X163892452Y-125792455D01*
X163806206Y-125907664D01*
X163806202Y-125907671D01*
X163755908Y-126042517D01*
X163749501Y-126102116D01*
X163749501Y-126102123D01*
X163749500Y-126102135D01*
X163749500Y-127897870D01*
X163749501Y-127897876D01*
X163755908Y-127957483D01*
X163806202Y-128092328D01*
X163806206Y-128092335D01*
X163892452Y-128207544D01*
X163892455Y-128207547D01*
X164007664Y-128293793D01*
X164007671Y-128293797D01*
X164142517Y-128344091D01*
X164142516Y-128344091D01*
X164149444Y-128344835D01*
X164202127Y-128350500D01*
X165997872Y-128350499D01*
X166057483Y-128344091D01*
X166192331Y-128293796D01*
X166307546Y-128207546D01*
X166393796Y-128092331D01*
X166444091Y-127957483D01*
X166450500Y-127897873D01*
X166450499Y-126102128D01*
X166444091Y-126042517D01*
X166437795Y-126025637D01*
X166393797Y-125907671D01*
X166393793Y-125907664D01*
X166340359Y-125836286D01*
X166307546Y-125792454D01*
X166192331Y-125706204D01*
X166057757Y-125656011D01*
X166054639Y-125654650D01*
X166030348Y-125634305D01*
X166004983Y-125615318D01*
X166003759Y-125612036D01*
X166001074Y-125609788D01*
X165991635Y-125579532D01*
X165980566Y-125549853D01*
X165981310Y-125546432D01*
X165980267Y-125543088D01*
X165988684Y-125512534D01*
X165995418Y-125481580D01*
X165998256Y-125477788D01*
X165998824Y-125475728D01*
X166001786Y-125473072D01*
X166016563Y-125453332D01*
X166130104Y-125339792D01*
X166255051Y-125167816D01*
X166351557Y-124978412D01*
X166417246Y-124776243D01*
X166450500Y-124566287D01*
X166450500Y-124353713D01*
X166417246Y-124143757D01*
X166351557Y-123941588D01*
X166255051Y-123752184D01*
X166255049Y-123752181D01*
X166255048Y-123752179D01*
X166130109Y-123580213D01*
X165979786Y-123429890D01*
X165807820Y-123304951D01*
X165807115Y-123304591D01*
X165799054Y-123300485D01*
X165796320Y-123297902D01*
X165792669Y-123296992D01*
X165771115Y-123274097D01*
X165748259Y-123252512D01*
X165747354Y-123248859D01*
X165744775Y-123246120D01*
X165739020Y-123215209D01*
X165731463Y-123184692D01*
X165732676Y-123181129D01*
X165731988Y-123177430D01*
X165743857Y-123148317D01*
X165753999Y-123118556D01*
X165757360Y-123115199D01*
X165758367Y-123112731D01*
X165766406Y-123106167D01*
X165784064Y-123088538D01*
X165791236Y-123083498D01*
X165807816Y-123075051D01*
X165941428Y-122977976D01*
X165941452Y-122977960D01*
X165979785Y-122950109D01*
X165979783Y-122950109D01*
X165979792Y-122950104D01*
X166130104Y-122799792D01*
X166130106Y-122799788D01*
X166130109Y-122799786D01*
X166255048Y-122627820D01*
X166255047Y-122627820D01*
X166255051Y-122627816D01*
X166351557Y-122438412D01*
X166417246Y-122236243D01*
X166450500Y-122026287D01*
X166450500Y-121813713D01*
X166417246Y-121603757D01*
X166351557Y-121401588D01*
X166255051Y-121212184D01*
X166255049Y-121212181D01*
X166255048Y-121212179D01*
X166130109Y-121040213D01*
X165979786Y-120889890D01*
X165807820Y-120764951D01*
X165807115Y-120764591D01*
X165799054Y-120760485D01*
X165748259Y-120712512D01*
X165731463Y-120644692D01*
X165753999Y-120578556D01*
X165799054Y-120539515D01*
X165807816Y-120535051D01*
X165829789Y-120519086D01*
X165979786Y-120410109D01*
X165979788Y-120410106D01*
X165979792Y-120410104D01*
X166130104Y-120259792D01*
X166130106Y-120259788D01*
X166130109Y-120259786D01*
X166255048Y-120087820D01*
X166255047Y-120087820D01*
X166255051Y-120087816D01*
X166351557Y-119898412D01*
X166417246Y-119696243D01*
X166450500Y-119486287D01*
X166450500Y-119273713D01*
X166417246Y-119063757D01*
X166351557Y-118861588D01*
X166255051Y-118672184D01*
X166255049Y-118672181D01*
X166255048Y-118672179D01*
X166130109Y-118500213D01*
X165979786Y-118349890D01*
X165807817Y-118224949D01*
X165798504Y-118220204D01*
X165747707Y-118172230D01*
X165730912Y-118104409D01*
X165753449Y-118038274D01*
X165798507Y-117999232D01*
X165807555Y-117994622D01*
X165861716Y-117955270D01*
X165861717Y-117955270D01*
X165229408Y-117322962D01*
X165292993Y-117305925D01*
X165407007Y-117240099D01*
X165500099Y-117147007D01*
X165565925Y-117032993D01*
X165582962Y-116969408D01*
X166215270Y-117601717D01*
X166215270Y-117601716D01*
X166254622Y-117547554D01*
X166351095Y-117358217D01*
X166416757Y-117156130D01*
X166416757Y-117156127D01*
X166450000Y-116946246D01*
X166450000Y-116733753D01*
X166416757Y-116523872D01*
X166416757Y-116523869D01*
X166351095Y-116321782D01*
X166254624Y-116132449D01*
X166215270Y-116078282D01*
X166215269Y-116078282D01*
X165582962Y-116710590D01*
X165565925Y-116647007D01*
X165500099Y-116532993D01*
X165407007Y-116439901D01*
X165292993Y-116374075D01*
X165229409Y-116357037D01*
X165861716Y-115724728D01*
X165807550Y-115685375D01*
X165797954Y-115680486D01*
X165747157Y-115632512D01*
X165730361Y-115564692D01*
X165752897Y-115498556D01*
X165797954Y-115459514D01*
X165807554Y-115454622D01*
X165861716Y-115415270D01*
X165861717Y-115415270D01*
X165229408Y-114782962D01*
X165292993Y-114765925D01*
X165407007Y-114700099D01*
X165500099Y-114607007D01*
X165565925Y-114492993D01*
X165582962Y-114429408D01*
X166215270Y-115061717D01*
X166215270Y-115061716D01*
X166254622Y-115007554D01*
X166351095Y-114818217D01*
X166416757Y-114616130D01*
X166416757Y-114616127D01*
X166450000Y-114406246D01*
X166450000Y-114193753D01*
X166416757Y-113983872D01*
X166416757Y-113983869D01*
X166351095Y-113781782D01*
X166254624Y-113592449D01*
X166215270Y-113538282D01*
X166215269Y-113538282D01*
X165582962Y-114170590D01*
X165565925Y-114107007D01*
X165500099Y-113992993D01*
X165407007Y-113899901D01*
X165292993Y-113834075D01*
X165229409Y-113817037D01*
X165861716Y-113184728D01*
X165807550Y-113145375D01*
X165797954Y-113140486D01*
X165747157Y-113092512D01*
X165730361Y-113024692D01*
X165752897Y-112958556D01*
X165797954Y-112919514D01*
X165807554Y-112914622D01*
X165861716Y-112875270D01*
X165861717Y-112875270D01*
X165229408Y-112242962D01*
X165292993Y-112225925D01*
X165407007Y-112160099D01*
X165500099Y-112067007D01*
X165565925Y-111952993D01*
X165582962Y-111889408D01*
X166215270Y-112521717D01*
X166215270Y-112521716D01*
X166254622Y-112467554D01*
X166351095Y-112278217D01*
X166416757Y-112076130D01*
X166416757Y-112076127D01*
X166450000Y-111866246D01*
X166450000Y-111653753D01*
X166416757Y-111443872D01*
X166416757Y-111443869D01*
X166351095Y-111241782D01*
X166254624Y-111052449D01*
X166215270Y-110998282D01*
X166215269Y-110998282D01*
X165582962Y-111630590D01*
X165565925Y-111567007D01*
X165500099Y-111452993D01*
X165407007Y-111359901D01*
X165292993Y-111294075D01*
X165229409Y-111277037D01*
X165861716Y-110644728D01*
X165807550Y-110605375D01*
X165797954Y-110600486D01*
X165747157Y-110552512D01*
X165730361Y-110484692D01*
X165752897Y-110418556D01*
X165797954Y-110379514D01*
X165807554Y-110374622D01*
X165861716Y-110335270D01*
X165861717Y-110335270D01*
X165229408Y-109702962D01*
X165292993Y-109685925D01*
X165407007Y-109620099D01*
X165500099Y-109527007D01*
X165565925Y-109412993D01*
X165582962Y-109349408D01*
X166215270Y-109981717D01*
X166215270Y-109981716D01*
X166254622Y-109927554D01*
X166351095Y-109738217D01*
X166416757Y-109536130D01*
X166416757Y-109536127D01*
X166450000Y-109326246D01*
X166450000Y-109113753D01*
X166416757Y-108903872D01*
X166416757Y-108903869D01*
X166351095Y-108701782D01*
X166254624Y-108512449D01*
X166215270Y-108458282D01*
X166215269Y-108458282D01*
X165582962Y-109090590D01*
X165565925Y-109027007D01*
X165500099Y-108912993D01*
X165407007Y-108819901D01*
X165292993Y-108754075D01*
X165229409Y-108737037D01*
X165861716Y-108104728D01*
X165807550Y-108065375D01*
X165618217Y-107968904D01*
X165416129Y-107903242D01*
X165206246Y-107870000D01*
X164993754Y-107870000D01*
X164783872Y-107903242D01*
X164783869Y-107903242D01*
X164581782Y-107968904D01*
X164392439Y-108065380D01*
X164338282Y-108104727D01*
X164338282Y-108104728D01*
X164970591Y-108737037D01*
X164907007Y-108754075D01*
X164792993Y-108819901D01*
X164699901Y-108912993D01*
X164634075Y-109027007D01*
X164617037Y-109090591D01*
X163984728Y-108458282D01*
X163984727Y-108458282D01*
X163945380Y-108512439D01*
X163848904Y-108701782D01*
X163783242Y-108903869D01*
X163783242Y-108903872D01*
X163750000Y-109113753D01*
X163750000Y-109326246D01*
X163783242Y-109536127D01*
X163783242Y-109536130D01*
X163848904Y-109738217D01*
X163945375Y-109927550D01*
X163984728Y-109981716D01*
X164617037Y-109349408D01*
X164634075Y-109412993D01*
X164699901Y-109527007D01*
X164792993Y-109620099D01*
X164907007Y-109685925D01*
X164970591Y-109702962D01*
X164369971Y-110303581D01*
X164448711Y-110420895D01*
X164449920Y-110424729D01*
X164452844Y-110427491D01*
X164460343Y-110457778D01*
X164469727Y-110487529D01*
X164468671Y-110491408D01*
X164469638Y-110495312D01*
X164459573Y-110524844D01*
X164451383Y-110554947D01*
X164448397Y-110557640D01*
X164447100Y-110561447D01*
X164402051Y-110600483D01*
X164392440Y-110605380D01*
X164338282Y-110644727D01*
X164338282Y-110644728D01*
X164970591Y-111277037D01*
X164907007Y-111294075D01*
X164792993Y-111359901D01*
X164699901Y-111452993D01*
X164634075Y-111567007D01*
X164617037Y-111630591D01*
X163984728Y-110998282D01*
X163984727Y-110998282D01*
X163945380Y-111052439D01*
X163848904Y-111241782D01*
X163783242Y-111443869D01*
X163783242Y-111443872D01*
X163750000Y-111653753D01*
X163750000Y-111866246D01*
X163783242Y-112076127D01*
X163783242Y-112076130D01*
X163848904Y-112278217D01*
X163945375Y-112467550D01*
X163984728Y-112521716D01*
X164617037Y-111889408D01*
X164634075Y-111952993D01*
X164699901Y-112067007D01*
X164792993Y-112160099D01*
X164907007Y-112225925D01*
X164970591Y-112242962D01*
X164369971Y-112843581D01*
X164448711Y-112960895D01*
X164449920Y-112964729D01*
X164452844Y-112967491D01*
X164460343Y-112997778D01*
X164469727Y-113027529D01*
X164468671Y-113031408D01*
X164469638Y-113035312D01*
X164459573Y-113064844D01*
X164451383Y-113094947D01*
X164448397Y-113097640D01*
X164447100Y-113101447D01*
X164402051Y-113140483D01*
X164392440Y-113145380D01*
X164338282Y-113184727D01*
X164338282Y-113184728D01*
X164970591Y-113817037D01*
X164907007Y-113834075D01*
X164792993Y-113899901D01*
X164699901Y-113992993D01*
X164634075Y-114107007D01*
X164617037Y-114170591D01*
X163984728Y-113538282D01*
X163984727Y-113538282D01*
X163945380Y-113592439D01*
X163848904Y-113781782D01*
X163783242Y-113983869D01*
X163783242Y-113983872D01*
X163750000Y-114193753D01*
X163750000Y-114406246D01*
X163783242Y-114616127D01*
X163783242Y-114616130D01*
X163848904Y-114818217D01*
X163945375Y-115007550D01*
X163984728Y-115061716D01*
X164617037Y-114429408D01*
X164634075Y-114492993D01*
X164699901Y-114607007D01*
X164792993Y-114700099D01*
X164907007Y-114765925D01*
X164970591Y-114782962D01*
X164369971Y-115383581D01*
X164448711Y-115500895D01*
X164449920Y-115504729D01*
X164452844Y-115507491D01*
X164460343Y-115537778D01*
X164469727Y-115567529D01*
X164468671Y-115571408D01*
X164469638Y-115575312D01*
X164459573Y-115604844D01*
X164451383Y-115634947D01*
X164448397Y-115637640D01*
X164447100Y-115641447D01*
X164402051Y-115680483D01*
X164392440Y-115685380D01*
X164338282Y-115724727D01*
X164338282Y-115724728D01*
X164970591Y-116357037D01*
X164907007Y-116374075D01*
X164792993Y-116439901D01*
X164699901Y-116532993D01*
X164634075Y-116647007D01*
X164617037Y-116710591D01*
X163984728Y-116078282D01*
X163984727Y-116078282D01*
X163945380Y-116132439D01*
X163848904Y-116321782D01*
X163783242Y-116523869D01*
X163783242Y-116523872D01*
X163750000Y-116733753D01*
X163750000Y-116946246D01*
X163783242Y-117156127D01*
X163783242Y-117156130D01*
X163848904Y-117358217D01*
X163945375Y-117547550D01*
X163984728Y-117601716D01*
X164617037Y-116969408D01*
X164634075Y-117032993D01*
X164699901Y-117147007D01*
X164792993Y-117240099D01*
X164907007Y-117305925D01*
X164970590Y-117322962D01*
X164338282Y-117955269D01*
X164338282Y-117955270D01*
X164392452Y-117994626D01*
X164392451Y-117994626D01*
X164401495Y-117999234D01*
X164452292Y-118047208D01*
X164469087Y-118115029D01*
X164446550Y-118181164D01*
X164401499Y-118220202D01*
X164392182Y-118224949D01*
X164220213Y-118349890D01*
X164069890Y-118500213D01*
X163944951Y-118672179D01*
X163848444Y-118861585D01*
X163782753Y-119063760D01*
X163750872Y-119265048D01*
X163749500Y-119273713D01*
X135000000Y-119273713D01*
X135000000Y-106781947D01*
X153252500Y-106781947D01*
X153252500Y-106800000D01*
X154152499Y-106800000D01*
X154127479Y-106860402D01*
X154102500Y-106985981D01*
X154102500Y-107114019D01*
X154127479Y-107239598D01*
X154152499Y-107300000D01*
X153252500Y-107300000D01*
X153252500Y-107318052D01*
X153289434Y-107551247D01*
X153362397Y-107775802D01*
X153469585Y-107986171D01*
X153608366Y-108177186D01*
X153775313Y-108344133D01*
X153966328Y-108482914D01*
X154176695Y-108590102D01*
X154401244Y-108663063D01*
X154401250Y-108663065D01*
X154502500Y-108679101D01*
X154502500Y-107650001D01*
X154562902Y-107675021D01*
X154688481Y-107700000D01*
X154816519Y-107700000D01*
X154942098Y-107675021D01*
X155002500Y-107650001D01*
X155002500Y-108679100D01*
X155103749Y-108663065D01*
X155103755Y-108663063D01*
X155328304Y-108590102D01*
X155538671Y-108482914D01*
X155729686Y-108344133D01*
X155896633Y-108177186D01*
X155967897Y-108079101D01*
X156035414Y-107986171D01*
X156142602Y-107775802D01*
X156215565Y-107551247D01*
X156252500Y-107318052D01*
X156252500Y-107300000D01*
X155352501Y-107300000D01*
X155377521Y-107239598D01*
X155402500Y-107114019D01*
X155402500Y-106985981D01*
X155377521Y-106860402D01*
X155352501Y-106800000D01*
X156252500Y-106800000D01*
X156252500Y-106781947D01*
X156215565Y-106548752D01*
X156142602Y-106324197D01*
X156035414Y-106113828D01*
X155896633Y-105922813D01*
X155729686Y-105755866D01*
X155538671Y-105617085D01*
X155328302Y-105509897D01*
X155103747Y-105436934D01*
X155002500Y-105420897D01*
X155002500Y-106449998D01*
X154942098Y-106424979D01*
X154816519Y-106400000D01*
X154688481Y-106400000D01*
X154562902Y-106424979D01*
X154502500Y-106449998D01*
X154502500Y-105420897D01*
X154401252Y-105436934D01*
X154176697Y-105509897D01*
X153966328Y-105617085D01*
X153775313Y-105755866D01*
X153608366Y-105922813D01*
X153469585Y-106113828D01*
X153362397Y-106324197D01*
X153289434Y-106548752D01*
X153252500Y-106781947D01*
X135000000Y-106781947D01*
X135000000Y-100223713D01*
X171369500Y-100223713D01*
X171369500Y-100436287D01*
X171402754Y-100646243D01*
X171457467Y-100814632D01*
X171468444Y-100848414D01*
X171564951Y-101037820D01*
X171689890Y-101209786D01*
X171840213Y-101360109D01*
X172012182Y-101485050D01*
X172020946Y-101489516D01*
X172071742Y-101537491D01*
X172088536Y-101605312D01*
X172065998Y-101671447D01*
X172020946Y-101710484D01*
X172012182Y-101714949D01*
X171840213Y-101839890D01*
X171689890Y-101990213D01*
X171564951Y-102162179D01*
X171468444Y-102351585D01*
X171468443Y-102351587D01*
X171468443Y-102351588D01*
X171457467Y-102385368D01*
X171402753Y-102553760D01*
X171399490Y-102574362D01*
X171369500Y-102763713D01*
X171369500Y-102976287D01*
X171402754Y-103186243D01*
X171457467Y-103354632D01*
X171468444Y-103388414D01*
X171564951Y-103577820D01*
X171689890Y-103749786D01*
X171840213Y-103900109D01*
X172012182Y-104025050D01*
X172020946Y-104029516D01*
X172071742Y-104077491D01*
X172088536Y-104145312D01*
X172065998Y-104211447D01*
X172020946Y-104250484D01*
X172012182Y-104254949D01*
X171840213Y-104379890D01*
X171689890Y-104530213D01*
X171564951Y-104702179D01*
X171468444Y-104891585D01*
X171468443Y-104891587D01*
X171468443Y-104891588D01*
X171457467Y-104925368D01*
X171402753Y-105093760D01*
X171399490Y-105114362D01*
X171369500Y-105303713D01*
X171369500Y-105516287D01*
X171402754Y-105726243D01*
X171457467Y-105894632D01*
X171468444Y-105928414D01*
X171564951Y-106117820D01*
X171689890Y-106289786D01*
X171840213Y-106440109D01*
X172012182Y-106565050D01*
X172020946Y-106569516D01*
X172071742Y-106617491D01*
X172088536Y-106685312D01*
X172065998Y-106751447D01*
X172020946Y-106790484D01*
X172012182Y-106794949D01*
X171840213Y-106919890D01*
X171689890Y-107070213D01*
X171564951Y-107242179D01*
X171468444Y-107431585D01*
X171468443Y-107431587D01*
X171468443Y-107431588D01*
X171457467Y-107465368D01*
X171402753Y-107633760D01*
X171399490Y-107654362D01*
X171369500Y-107843713D01*
X171369500Y-108056287D01*
X171402754Y-108266243D01*
X171457467Y-108434632D01*
X171468444Y-108468414D01*
X171564951Y-108657820D01*
X171689890Y-108829786D01*
X171840213Y-108980109D01*
X172012182Y-109105050D01*
X172020946Y-109109516D01*
X172071742Y-109157491D01*
X172088536Y-109225312D01*
X172065998Y-109291447D01*
X172020946Y-109330484D01*
X172012182Y-109334949D01*
X171840213Y-109459890D01*
X171689890Y-109610213D01*
X171564951Y-109782179D01*
X171468444Y-109971585D01*
X171468443Y-109971587D01*
X171468443Y-109971588D01*
X171457467Y-110005368D01*
X171402753Y-110173760D01*
X171399490Y-110194362D01*
X171369500Y-110383713D01*
X171369500Y-110596287D01*
X171402754Y-110806243D01*
X171457467Y-110974632D01*
X171468444Y-111008414D01*
X171564951Y-111197820D01*
X171689890Y-111369786D01*
X171840213Y-111520109D01*
X172012182Y-111645050D01*
X172020946Y-111649516D01*
X172071742Y-111697491D01*
X172088536Y-111765312D01*
X172065998Y-111831447D01*
X172020946Y-111870484D01*
X172012182Y-111874949D01*
X171840213Y-111999890D01*
X171689890Y-112150213D01*
X171564951Y-112322179D01*
X171468444Y-112511585D01*
X171468443Y-112511587D01*
X171468443Y-112511588D01*
X171457467Y-112545368D01*
X171402753Y-112713760D01*
X171399490Y-112734362D01*
X171369500Y-112923713D01*
X171369500Y-113136287D01*
X171402754Y-113346243D01*
X171457467Y-113514632D01*
X171468444Y-113548414D01*
X171564951Y-113737820D01*
X171689890Y-113909786D01*
X171840213Y-114060109D01*
X172012182Y-114185050D01*
X172020946Y-114189516D01*
X172071742Y-114237491D01*
X172088536Y-114305312D01*
X172065998Y-114371447D01*
X172020946Y-114410484D01*
X172012182Y-114414949D01*
X171840213Y-114539890D01*
X171689890Y-114690213D01*
X171564951Y-114862179D01*
X171468444Y-115051585D01*
X171468443Y-115051587D01*
X171468443Y-115051588D01*
X171457467Y-115085368D01*
X171402753Y-115253760D01*
X171389718Y-115336060D01*
X171369500Y-115463713D01*
X171369500Y-115676287D01*
X171370940Y-115685380D01*
X171402735Y-115886127D01*
X171402754Y-115886243D01*
X171457467Y-116054632D01*
X171468444Y-116088414D01*
X171564951Y-116277820D01*
X171689890Y-116449786D01*
X171840213Y-116600109D01*
X172012182Y-116725050D01*
X172020946Y-116729516D01*
X172071742Y-116777491D01*
X172088536Y-116845312D01*
X172065998Y-116911447D01*
X172020946Y-116950484D01*
X172012182Y-116954949D01*
X171840213Y-117079890D01*
X171689890Y-117230213D01*
X171564951Y-117402179D01*
X171468444Y-117591585D01*
X171468443Y-117591587D01*
X171468443Y-117591588D01*
X171457467Y-117625368D01*
X171402753Y-117793760D01*
X171399490Y-117814362D01*
X171369500Y-118003713D01*
X171369500Y-118216287D01*
X171402754Y-118426243D01*
X171457467Y-118594632D01*
X171468444Y-118628414D01*
X171564951Y-118817820D01*
X171689890Y-118989786D01*
X171840213Y-119140109D01*
X172012182Y-119265050D01*
X172020946Y-119269516D01*
X172071742Y-119317491D01*
X172088536Y-119385312D01*
X172065998Y-119451447D01*
X172020946Y-119490484D01*
X172012182Y-119494949D01*
X171840213Y-119619890D01*
X171689890Y-119770213D01*
X171564951Y-119942179D01*
X171468444Y-120131585D01*
X171468443Y-120131587D01*
X171468443Y-120131588D01*
X171457467Y-120165368D01*
X171402753Y-120333760D01*
X171390661Y-120410109D01*
X171369500Y-120543713D01*
X171369500Y-120756287D01*
X171402754Y-120966243D01*
X171457467Y-121134632D01*
X171468444Y-121168414D01*
X171564951Y-121357820D01*
X171689890Y-121529786D01*
X171840213Y-121680109D01*
X172012179Y-121805048D01*
X172012181Y-121805049D01*
X172012184Y-121805051D01*
X172021493Y-121809794D01*
X172072290Y-121857766D01*
X172089087Y-121925587D01*
X172066552Y-121991722D01*
X172021505Y-122030760D01*
X172012446Y-122035376D01*
X172012440Y-122035380D01*
X171958282Y-122074727D01*
X171958282Y-122074728D01*
X172590591Y-122707037D01*
X172527007Y-122724075D01*
X172412993Y-122789901D01*
X172319901Y-122882993D01*
X172254075Y-122997007D01*
X172237037Y-123060591D01*
X171604728Y-122428282D01*
X171604727Y-122428282D01*
X171565380Y-122482439D01*
X171468904Y-122671782D01*
X171403242Y-122873869D01*
X171403242Y-122873872D01*
X171370000Y-123083753D01*
X171370000Y-123296246D01*
X171403242Y-123506127D01*
X171403242Y-123506130D01*
X171468904Y-123708217D01*
X171565375Y-123897550D01*
X171604728Y-123951716D01*
X172237036Y-123319407D01*
X172254075Y-123382993D01*
X172319901Y-123497007D01*
X172412993Y-123590099D01*
X172527007Y-123655925D01*
X172590590Y-123672962D01*
X171958282Y-124305269D01*
X171958282Y-124305270D01*
X172012452Y-124344626D01*
X172012451Y-124344626D01*
X172021495Y-124349234D01*
X172072292Y-124397208D01*
X172089087Y-124465029D01*
X172066550Y-124531164D01*
X172021499Y-124570202D01*
X172012182Y-124574949D01*
X171840213Y-124699890D01*
X171689890Y-124850213D01*
X171564951Y-125022179D01*
X171468444Y-125211585D01*
X171468443Y-125211587D01*
X171468443Y-125211588D01*
X171457467Y-125245368D01*
X171402753Y-125413760D01*
X171369500Y-125623713D01*
X171369500Y-125836286D01*
X171402163Y-126042517D01*
X171402754Y-126046243D01*
X171457467Y-126214632D01*
X171468444Y-126248414D01*
X171564951Y-126437820D01*
X171689890Y-126609786D01*
X171840213Y-126760109D01*
X172012182Y-126885050D01*
X172020946Y-126889516D01*
X172071742Y-126937491D01*
X172088536Y-127005312D01*
X172065998Y-127071447D01*
X172020946Y-127110484D01*
X172012182Y-127114949D01*
X171840213Y-127239890D01*
X171689890Y-127390213D01*
X171564951Y-127562179D01*
X171468444Y-127751585D01*
X171468443Y-127751587D01*
X171468443Y-127751588D01*
X171457467Y-127785368D01*
X171402753Y-127953760D01*
X171399490Y-127974362D01*
X171369500Y-128163713D01*
X171369500Y-128376287D01*
X171402754Y-128586243D01*
X171457467Y-128754632D01*
X171468444Y-128788414D01*
X171564951Y-128977820D01*
X171689890Y-129149786D01*
X171840213Y-129300109D01*
X172012182Y-129425050D01*
X172020946Y-129429516D01*
X172071742Y-129477491D01*
X172088536Y-129545312D01*
X172065998Y-129611447D01*
X172020946Y-129650484D01*
X172012182Y-129654949D01*
X171840213Y-129779890D01*
X171689890Y-129930213D01*
X171564951Y-130102179D01*
X171468444Y-130291585D01*
X171468443Y-130291587D01*
X171468443Y-130291588D01*
X171457467Y-130325368D01*
X171402753Y-130493760D01*
X171399490Y-130514362D01*
X171369500Y-130703713D01*
X171369500Y-130916287D01*
X171402754Y-131126243D01*
X171457467Y-131294632D01*
X171468444Y-131328414D01*
X171564951Y-131517820D01*
X171689890Y-131689786D01*
X171840213Y-131840109D01*
X172012179Y-131965048D01*
X172012181Y-131965049D01*
X172012184Y-131965051D01*
X172021493Y-131969794D01*
X172072290Y-132017766D01*
X172089087Y-132085587D01*
X172066552Y-132151722D01*
X172021505Y-132190760D01*
X172012446Y-132195376D01*
X172012440Y-132195380D01*
X171958282Y-132234727D01*
X171958282Y-132234728D01*
X172590591Y-132867037D01*
X172527007Y-132884075D01*
X172412993Y-132949901D01*
X172319901Y-133042993D01*
X172254075Y-133157007D01*
X172237037Y-133220591D01*
X171604728Y-132588282D01*
X171604727Y-132588282D01*
X171565380Y-132642439D01*
X171468904Y-132831782D01*
X171403242Y-133033869D01*
X171403242Y-133033872D01*
X171370000Y-133243753D01*
X171370000Y-133456246D01*
X171403242Y-133666127D01*
X171403242Y-133666130D01*
X171468904Y-133868217D01*
X171565375Y-134057550D01*
X171604728Y-134111716D01*
X172237036Y-133479407D01*
X172254075Y-133542993D01*
X172319901Y-133657007D01*
X172412993Y-133750099D01*
X172527007Y-133815925D01*
X172590590Y-133832962D01*
X171920370Y-134503181D01*
X171859047Y-134536666D01*
X171832698Y-134539500D01*
X171822134Y-134539500D01*
X171822123Y-134539501D01*
X171762516Y-134545908D01*
X171627671Y-134596202D01*
X171627664Y-134596206D01*
X171512455Y-134682452D01*
X171512452Y-134682455D01*
X171426206Y-134797664D01*
X171426202Y-134797671D01*
X171375908Y-134932517D01*
X171369501Y-134992116D01*
X171369501Y-134992123D01*
X171369500Y-134992135D01*
X171369500Y-136787870D01*
X171369501Y-136787876D01*
X171375908Y-136847483D01*
X171426202Y-136982328D01*
X171426206Y-136982335D01*
X171512452Y-137097544D01*
X171512455Y-137097547D01*
X171627664Y-137183793D01*
X171627671Y-137183797D01*
X171762517Y-137234091D01*
X171762516Y-137234091D01*
X171769444Y-137234835D01*
X171822127Y-137240500D01*
X173617872Y-137240499D01*
X173677483Y-137234091D01*
X173812331Y-137183796D01*
X173927546Y-137097546D01*
X174013796Y-136982331D01*
X174064091Y-136847483D01*
X174070500Y-136787873D01*
X174070499Y-134992128D01*
X174064091Y-134932517D01*
X174062040Y-134927019D01*
X174013797Y-134797671D01*
X174013793Y-134797664D01*
X173927547Y-134682455D01*
X173927544Y-134682452D01*
X173812335Y-134596206D01*
X173812328Y-134596202D01*
X173677482Y-134545908D01*
X173677483Y-134545908D01*
X173617883Y-134539501D01*
X173617881Y-134539500D01*
X173617873Y-134539500D01*
X173617865Y-134539500D01*
X173607309Y-134539500D01*
X173540270Y-134519815D01*
X173519628Y-134503181D01*
X172849408Y-133832962D01*
X172912993Y-133815925D01*
X173027007Y-133750099D01*
X173120099Y-133657007D01*
X173185925Y-133542993D01*
X173202962Y-133479408D01*
X173835270Y-134111717D01*
X173835270Y-134111716D01*
X173874622Y-134057554D01*
X173971095Y-133868217D01*
X174036757Y-133666130D01*
X174036757Y-133666127D01*
X174070000Y-133456246D01*
X174070000Y-133243753D01*
X174036757Y-133033872D01*
X174036757Y-133033869D01*
X173971095Y-132831782D01*
X173874624Y-132642449D01*
X173835270Y-132588282D01*
X173835269Y-132588282D01*
X173202962Y-133220590D01*
X173185925Y-133157007D01*
X173120099Y-133042993D01*
X173027007Y-132949901D01*
X172912993Y-132884075D01*
X172849409Y-132867037D01*
X173481716Y-132234728D01*
X173427547Y-132195373D01*
X173427547Y-132195372D01*
X173418500Y-132190763D01*
X173367706Y-132142788D01*
X173350912Y-132074966D01*
X173373451Y-132008832D01*
X173418508Y-131969793D01*
X173427816Y-131965051D01*
X173507007Y-131907515D01*
X173599786Y-131840109D01*
X173599788Y-131840106D01*
X173599792Y-131840104D01*
X173750104Y-131689792D01*
X173750106Y-131689788D01*
X173750109Y-131689786D01*
X173875048Y-131517820D01*
X173875047Y-131517820D01*
X173875051Y-131517816D01*
X173971557Y-131328412D01*
X174037246Y-131126243D01*
X174070500Y-130916287D01*
X174070500Y-130703713D01*
X174037246Y-130493757D01*
X173971557Y-130291588D01*
X173875051Y-130102184D01*
X173875049Y-130102181D01*
X173875048Y-130102179D01*
X173750109Y-129930213D01*
X173599786Y-129779890D01*
X173427820Y-129654951D01*
X173427115Y-129654591D01*
X173419054Y-129650485D01*
X173368259Y-129602512D01*
X173351463Y-129534692D01*
X173373999Y-129468556D01*
X173419054Y-129429515D01*
X173427816Y-129425051D01*
X173531409Y-129349787D01*
X173599786Y-129300109D01*
X173599788Y-129300106D01*
X173599792Y-129300104D01*
X173750104Y-129149792D01*
X173750106Y-129149788D01*
X173750109Y-129149786D01*
X173875048Y-128977820D01*
X173875047Y-128977820D01*
X173875051Y-128977816D01*
X173971557Y-128788412D01*
X174037246Y-128586243D01*
X174070500Y-128376287D01*
X174070500Y-128163713D01*
X174037246Y-127953757D01*
X173971557Y-127751588D01*
X173875051Y-127562184D01*
X173875049Y-127562181D01*
X173875048Y-127562179D01*
X173750109Y-127390213D01*
X173599786Y-127239890D01*
X173427820Y-127114951D01*
X173427115Y-127114591D01*
X173419054Y-127110485D01*
X173368259Y-127062512D01*
X173351463Y-126994692D01*
X173373999Y-126928556D01*
X173419054Y-126889515D01*
X173427816Y-126885051D01*
X173531409Y-126809787D01*
X173599786Y-126760109D01*
X173599788Y-126760106D01*
X173599792Y-126760104D01*
X173750104Y-126609792D01*
X173750106Y-126609788D01*
X173750109Y-126609786D01*
X173875048Y-126437820D01*
X173875047Y-126437820D01*
X173875051Y-126437816D01*
X173971557Y-126248412D01*
X174037246Y-126046243D01*
X174070500Y-125836287D01*
X174070500Y-125623713D01*
X174037246Y-125413757D01*
X173971557Y-125211588D01*
X173875051Y-125022184D01*
X173875049Y-125022181D01*
X173875048Y-125022179D01*
X173750109Y-124850213D01*
X173599786Y-124699890D01*
X173427817Y-124574949D01*
X173418504Y-124570204D01*
X173367707Y-124522230D01*
X173350912Y-124454409D01*
X173373449Y-124388274D01*
X173418507Y-124349232D01*
X173427555Y-124344622D01*
X173481716Y-124305270D01*
X173481717Y-124305270D01*
X172849408Y-123672962D01*
X172912993Y-123655925D01*
X173027007Y-123590099D01*
X173120099Y-123497007D01*
X173185925Y-123382993D01*
X173202962Y-123319408D01*
X173835270Y-123951717D01*
X173835270Y-123951716D01*
X173874622Y-123897554D01*
X173971095Y-123708217D01*
X174036757Y-123506130D01*
X174036757Y-123506127D01*
X174070000Y-123296246D01*
X174070000Y-123083753D01*
X174036757Y-122873872D01*
X174036757Y-122873869D01*
X173971095Y-122671782D01*
X173874624Y-122482449D01*
X173835270Y-122428282D01*
X173835269Y-122428282D01*
X173202962Y-123060590D01*
X173185925Y-122997007D01*
X173120099Y-122882993D01*
X173027007Y-122789901D01*
X172912993Y-122724075D01*
X172849409Y-122707037D01*
X173481716Y-122074728D01*
X173427547Y-122035373D01*
X173427547Y-122035372D01*
X173418500Y-122030763D01*
X173367706Y-121982788D01*
X173350912Y-121914966D01*
X173373451Y-121848832D01*
X173418508Y-121809793D01*
X173427816Y-121805051D01*
X173507007Y-121747515D01*
X173599786Y-121680109D01*
X173599788Y-121680106D01*
X173599792Y-121680104D01*
X173750104Y-121529792D01*
X173750106Y-121529788D01*
X173750109Y-121529786D01*
X173875048Y-121357820D01*
X173875047Y-121357820D01*
X173875051Y-121357816D01*
X173971557Y-121168412D01*
X174037246Y-120966243D01*
X174070500Y-120756287D01*
X174070500Y-120543713D01*
X174037246Y-120333757D01*
X173971557Y-120131588D01*
X173875051Y-119942184D01*
X173875049Y-119942181D01*
X173875048Y-119942179D01*
X173750109Y-119770213D01*
X173599786Y-119619890D01*
X173427820Y-119494951D01*
X173427115Y-119494591D01*
X173419054Y-119490485D01*
X173368259Y-119442512D01*
X173351463Y-119374692D01*
X173373999Y-119308556D01*
X173419054Y-119269515D01*
X173427816Y-119265051D01*
X173531409Y-119189787D01*
X173599786Y-119140109D01*
X173599788Y-119140106D01*
X173599792Y-119140104D01*
X173750104Y-118989792D01*
X173750106Y-118989788D01*
X173750109Y-118989786D01*
X173875048Y-118817820D01*
X173875047Y-118817820D01*
X173875051Y-118817816D01*
X173971557Y-118628412D01*
X174037246Y-118426243D01*
X174070500Y-118216287D01*
X174070500Y-118003713D01*
X174037246Y-117793757D01*
X173971557Y-117591588D01*
X173875051Y-117402184D01*
X173875049Y-117402181D01*
X173875048Y-117402179D01*
X173750109Y-117230213D01*
X173599786Y-117079890D01*
X173427820Y-116954951D01*
X173427115Y-116954591D01*
X173419054Y-116950485D01*
X173368259Y-116902512D01*
X173351463Y-116834692D01*
X173373999Y-116768556D01*
X173419054Y-116729515D01*
X173427816Y-116725051D01*
X173531409Y-116649787D01*
X173599786Y-116600109D01*
X173599788Y-116600106D01*
X173599792Y-116600104D01*
X173750104Y-116449792D01*
X173750106Y-116449788D01*
X173750109Y-116449786D01*
X173875048Y-116277820D01*
X173875047Y-116277820D01*
X173875051Y-116277816D01*
X173971557Y-116088412D01*
X174037246Y-115886243D01*
X174070500Y-115676287D01*
X174070500Y-115463713D01*
X174037246Y-115253757D01*
X173971557Y-115051588D01*
X173875051Y-114862184D01*
X173875049Y-114862181D01*
X173875048Y-114862179D01*
X173750109Y-114690213D01*
X173599786Y-114539890D01*
X173427820Y-114414951D01*
X173419600Y-114410763D01*
X173419054Y-114410485D01*
X173368259Y-114362512D01*
X173351463Y-114294692D01*
X173373999Y-114228556D01*
X173419054Y-114189515D01*
X173427816Y-114185051D01*
X173449789Y-114169086D01*
X173599786Y-114060109D01*
X173599788Y-114060106D01*
X173599792Y-114060104D01*
X173750104Y-113909792D01*
X173750106Y-113909788D01*
X173750109Y-113909786D01*
X173875048Y-113737820D01*
X173875047Y-113737820D01*
X173875051Y-113737816D01*
X173971557Y-113548412D01*
X174037246Y-113346243D01*
X174070500Y-113136287D01*
X174070500Y-112923713D01*
X174037246Y-112713757D01*
X173971557Y-112511588D01*
X173875051Y-112322184D01*
X173875049Y-112322181D01*
X173875048Y-112322179D01*
X173750109Y-112150213D01*
X173599786Y-111999890D01*
X173427820Y-111874951D01*
X173427115Y-111874591D01*
X173419054Y-111870485D01*
X173368259Y-111822512D01*
X173351463Y-111754692D01*
X173373999Y-111688556D01*
X173419054Y-111649515D01*
X173427816Y-111645051D01*
X173531409Y-111569787D01*
X173599786Y-111520109D01*
X173599788Y-111520106D01*
X173599792Y-111520104D01*
X173750104Y-111369792D01*
X173750106Y-111369788D01*
X173750109Y-111369786D01*
X173875048Y-111197820D01*
X173875047Y-111197820D01*
X173875051Y-111197816D01*
X173971557Y-111008412D01*
X174037246Y-110806243D01*
X174070500Y-110596287D01*
X174070500Y-110383713D01*
X174037246Y-110173757D01*
X173971557Y-109971588D01*
X173875051Y-109782184D01*
X173875049Y-109782181D01*
X173875048Y-109782179D01*
X173750109Y-109610213D01*
X173599786Y-109459890D01*
X173427820Y-109334951D01*
X173427115Y-109334591D01*
X173419054Y-109330485D01*
X173368259Y-109282512D01*
X173351463Y-109214692D01*
X173373999Y-109148556D01*
X173419054Y-109109515D01*
X173427816Y-109105051D01*
X173531409Y-109029787D01*
X173599786Y-108980109D01*
X173599788Y-108980106D01*
X173599792Y-108980104D01*
X173750104Y-108829792D01*
X173750106Y-108829788D01*
X173750109Y-108829786D01*
X173875048Y-108657820D01*
X173875047Y-108657820D01*
X173875051Y-108657816D01*
X173971557Y-108468412D01*
X174037246Y-108266243D01*
X174070500Y-108056287D01*
X174070500Y-107843713D01*
X174037246Y-107633757D01*
X173971557Y-107431588D01*
X173875051Y-107242184D01*
X173875049Y-107242181D01*
X173875048Y-107242179D01*
X173750109Y-107070213D01*
X173599786Y-106919890D01*
X173427820Y-106794951D01*
X173427115Y-106794591D01*
X173419054Y-106790485D01*
X173368259Y-106742512D01*
X173351463Y-106674692D01*
X173373999Y-106608556D01*
X173419054Y-106569515D01*
X173427816Y-106565051D01*
X173531409Y-106489787D01*
X173599786Y-106440109D01*
X173599788Y-106440106D01*
X173599792Y-106440104D01*
X173750104Y-106289792D01*
X173750106Y-106289788D01*
X173750109Y-106289786D01*
X173875048Y-106117820D01*
X173875047Y-106117820D01*
X173875051Y-106117816D01*
X173971557Y-105928412D01*
X174037246Y-105726243D01*
X174070500Y-105516287D01*
X174070500Y-105303713D01*
X174037246Y-105093757D01*
X173971557Y-104891588D01*
X173875051Y-104702184D01*
X173875049Y-104702181D01*
X173875048Y-104702179D01*
X173750109Y-104530213D01*
X173599786Y-104379890D01*
X173427820Y-104254951D01*
X173427115Y-104254591D01*
X173419054Y-104250485D01*
X173368259Y-104202512D01*
X173351463Y-104134692D01*
X173373999Y-104068556D01*
X173419054Y-104029515D01*
X173427816Y-104025051D01*
X173531409Y-103949787D01*
X173599786Y-103900109D01*
X173599788Y-103900106D01*
X173599792Y-103900104D01*
X173750104Y-103749792D01*
X173750106Y-103749788D01*
X173750109Y-103749786D01*
X173875048Y-103577820D01*
X173875047Y-103577820D01*
X173875051Y-103577816D01*
X173971557Y-103388412D01*
X174037246Y-103186243D01*
X174070500Y-102976287D01*
X174070500Y-102763713D01*
X174037246Y-102553757D01*
X173971557Y-102351588D01*
X173875051Y-102162184D01*
X173875049Y-102162181D01*
X173875048Y-102162179D01*
X173750109Y-101990213D01*
X173599786Y-101839890D01*
X173427820Y-101714951D01*
X173427115Y-101714591D01*
X173419054Y-101710485D01*
X173368259Y-101662512D01*
X173351463Y-101594692D01*
X173373999Y-101528556D01*
X173419054Y-101489515D01*
X173427816Y-101485051D01*
X173531409Y-101409787D01*
X173599786Y-101360109D01*
X173599788Y-101360106D01*
X173599792Y-101360104D01*
X173750104Y-101209792D01*
X173750106Y-101209788D01*
X173750109Y-101209786D01*
X173875048Y-101037820D01*
X173875047Y-101037820D01*
X173875051Y-101037816D01*
X173971557Y-100848412D01*
X174037246Y-100646243D01*
X174070500Y-100436287D01*
X174070500Y-100230639D01*
X177807500Y-100230639D01*
X177807500Y-100429360D01*
X177838587Y-100625637D01*
X177899993Y-100814629D01*
X177899994Y-100814632D01*
X177990213Y-100991694D01*
X178107019Y-101152464D01*
X178247536Y-101292981D01*
X178408306Y-101409787D01*
X178526832Y-101470179D01*
X178564780Y-101489515D01*
X178615576Y-101537490D01*
X178632371Y-101605311D01*
X178609833Y-101671446D01*
X178564780Y-101710485D01*
X178408305Y-101790213D01*
X178247533Y-101907021D01*
X178107021Y-102047533D01*
X177990213Y-102208305D01*
X177899994Y-102385367D01*
X177899993Y-102385370D01*
X177838587Y-102574362D01*
X177807500Y-102770639D01*
X177807500Y-102969360D01*
X177838587Y-103165637D01*
X177899993Y-103354629D01*
X177899994Y-103354632D01*
X177990213Y-103531694D01*
X178107019Y-103692464D01*
X178247536Y-103832981D01*
X178408306Y-103949787D01*
X178526832Y-104010179D01*
X178564780Y-104029515D01*
X178615576Y-104077490D01*
X178632371Y-104145311D01*
X178609833Y-104211446D01*
X178564780Y-104250485D01*
X178408305Y-104330213D01*
X178247533Y-104447021D01*
X178107021Y-104587533D01*
X177990213Y-104748305D01*
X177899994Y-104925367D01*
X177899993Y-104925370D01*
X177838587Y-105114362D01*
X177807500Y-105310639D01*
X177807500Y-105509360D01*
X177838587Y-105705637D01*
X177899993Y-105894629D01*
X177899994Y-105894632D01*
X177990213Y-106071694D01*
X178107019Y-106232464D01*
X178247536Y-106372981D01*
X178408306Y-106489787D01*
X178516887Y-106545112D01*
X178564780Y-106569515D01*
X178615576Y-106617490D01*
X178632371Y-106685311D01*
X178609833Y-106751446D01*
X178564780Y-106790485D01*
X178408305Y-106870213D01*
X178247533Y-106987021D01*
X178107021Y-107127533D01*
X177990213Y-107288305D01*
X177899994Y-107465367D01*
X177899993Y-107465370D01*
X177838587Y-107654362D01*
X177838587Y-107654364D01*
X177807500Y-107850639D01*
X177807500Y-108049361D01*
X177810037Y-108065380D01*
X177838587Y-108245637D01*
X177899993Y-108434629D01*
X177899994Y-108434632D01*
X177979211Y-108590102D01*
X177990213Y-108611694D01*
X178107019Y-108772464D01*
X178247536Y-108912981D01*
X178408306Y-109029787D01*
X178526832Y-109090179D01*
X178564780Y-109109515D01*
X178615576Y-109157490D01*
X178632371Y-109225311D01*
X178609833Y-109291446D01*
X178564780Y-109330485D01*
X178408305Y-109410213D01*
X178247533Y-109527021D01*
X178107021Y-109667533D01*
X177990213Y-109828305D01*
X177899994Y-110005367D01*
X177899993Y-110005370D01*
X177838587Y-110194362D01*
X177838587Y-110194364D01*
X177807500Y-110390639D01*
X177807500Y-110589361D01*
X177810037Y-110605380D01*
X177838587Y-110785637D01*
X177899993Y-110974629D01*
X177899994Y-110974632D01*
X177990213Y-111151694D01*
X178107019Y-111312464D01*
X178247536Y-111452981D01*
X178408306Y-111569787D01*
X178526832Y-111630179D01*
X178564780Y-111649515D01*
X178615576Y-111697490D01*
X178632371Y-111765311D01*
X178609833Y-111831446D01*
X178564780Y-111870485D01*
X178408305Y-111950213D01*
X178247533Y-112067021D01*
X178107021Y-112207533D01*
X177990213Y-112368305D01*
X177899994Y-112545367D01*
X177899993Y-112545370D01*
X177838587Y-112734362D01*
X177838587Y-112734364D01*
X177807500Y-112930639D01*
X177807500Y-113129361D01*
X177810037Y-113145380D01*
X177838587Y-113325637D01*
X177899993Y-113514629D01*
X177899994Y-113514632D01*
X177990213Y-113691694D01*
X178107019Y-113852464D01*
X178247536Y-113992981D01*
X178408306Y-114109787D01*
X178526832Y-114170179D01*
X178564780Y-114189515D01*
X178615576Y-114237490D01*
X178632371Y-114305311D01*
X178609833Y-114371446D01*
X178564780Y-114410485D01*
X178408305Y-114490213D01*
X178247533Y-114607021D01*
X178107021Y-114747533D01*
X177990213Y-114908305D01*
X177899994Y-115085367D01*
X177899993Y-115085370D01*
X177838587Y-115274362D01*
X177828815Y-115336060D01*
X177807500Y-115470639D01*
X177807500Y-115669361D01*
X177810037Y-115685380D01*
X177838587Y-115865637D01*
X177899993Y-116054629D01*
X177899994Y-116054632D01*
X177990076Y-116231425D01*
X177990213Y-116231694D01*
X178107019Y-116392464D01*
X178247536Y-116532981D01*
X178408306Y-116649787D01*
X178477943Y-116685269D01*
X178564780Y-116729515D01*
X178615576Y-116777490D01*
X178632371Y-116845311D01*
X178609833Y-116911446D01*
X178564780Y-116950485D01*
X178408305Y-117030213D01*
X178247533Y-117147021D01*
X178107021Y-117287533D01*
X177990213Y-117448305D01*
X177899994Y-117625367D01*
X177899993Y-117625370D01*
X177838587Y-117814362D01*
X177838587Y-117814364D01*
X177807500Y-118010639D01*
X177807500Y-118209361D01*
X177809969Y-118224949D01*
X177838587Y-118405637D01*
X177899993Y-118594629D01*
X177899994Y-118594632D01*
X177990213Y-118771694D01*
X178107019Y-118932464D01*
X178247536Y-119072981D01*
X178408306Y-119189787D01*
X178526832Y-119250179D01*
X178564780Y-119269515D01*
X178615576Y-119317490D01*
X178632371Y-119385311D01*
X178609833Y-119451446D01*
X178564780Y-119490485D01*
X178408305Y-119570213D01*
X178247533Y-119687021D01*
X178107021Y-119827533D01*
X177990213Y-119988305D01*
X177899994Y-120165367D01*
X177899993Y-120165370D01*
X177838587Y-120354362D01*
X177807500Y-120550639D01*
X177807500Y-120749360D01*
X177838587Y-120945637D01*
X177899993Y-121134629D01*
X177899994Y-121134632D01*
X177990213Y-121311694D01*
X178107019Y-121472464D01*
X178247536Y-121612981D01*
X178408306Y-121729787D01*
X178565332Y-121809796D01*
X178616127Y-121857769D01*
X178632922Y-121925590D01*
X178610385Y-121991725D01*
X178565332Y-122030764D01*
X178408566Y-122110641D01*
X178371283Y-122137729D01*
X178371282Y-122137730D01*
X179042554Y-122809000D01*
X179019840Y-122809000D01*
X178922939Y-122834964D01*
X178836060Y-122885124D01*
X178765124Y-122956060D01*
X178714964Y-123042939D01*
X178689000Y-123139840D01*
X178689000Y-123162552D01*
X178017730Y-122491282D01*
X178017729Y-122491283D01*
X177990643Y-122528564D01*
X177900457Y-122705562D01*
X177839075Y-122894476D01*
X177839075Y-122894479D01*
X177808000Y-123090678D01*
X177808000Y-123289321D01*
X177839075Y-123485520D01*
X177839075Y-123485523D01*
X177900457Y-123674437D01*
X177990641Y-123851432D01*
X178017730Y-123888715D01*
X178017731Y-123888716D01*
X178689000Y-123217447D01*
X178689000Y-123240160D01*
X178714964Y-123337061D01*
X178765124Y-123423940D01*
X178836060Y-123494876D01*
X178922939Y-123545036D01*
X179019840Y-123571000D01*
X179042553Y-123571000D01*
X178371283Y-124242268D01*
X178371283Y-124242269D01*
X178408567Y-124269358D01*
X178565331Y-124349234D01*
X178616127Y-124397209D01*
X178632922Y-124465030D01*
X178610384Y-124531165D01*
X178565331Y-124570204D01*
X178408305Y-124650213D01*
X178247533Y-124767021D01*
X178107021Y-124907533D01*
X177990213Y-125068305D01*
X177899994Y-125245367D01*
X177899993Y-125245370D01*
X177838587Y-125434362D01*
X177807500Y-125630639D01*
X177807500Y-125829360D01*
X177838587Y-126025637D01*
X177899993Y-126214629D01*
X177899994Y-126214632D01*
X177990213Y-126391694D01*
X178107019Y-126552464D01*
X178247536Y-126692981D01*
X178408306Y-126809787D01*
X178526832Y-126870179D01*
X178564780Y-126889515D01*
X178615576Y-126937490D01*
X178632371Y-127005311D01*
X178609833Y-127071446D01*
X178564780Y-127110485D01*
X178408305Y-127190213D01*
X178247533Y-127307021D01*
X178107021Y-127447533D01*
X177990213Y-127608305D01*
X177899994Y-127785367D01*
X177899993Y-127785370D01*
X177838587Y-127974362D01*
X177807500Y-128170639D01*
X177807500Y-128369360D01*
X177838587Y-128565637D01*
X177899993Y-128754629D01*
X177899994Y-128754632D01*
X177986294Y-128924003D01*
X177990213Y-128931694D01*
X178107019Y-129092464D01*
X178247536Y-129232981D01*
X178408306Y-129349787D01*
X178471335Y-129381902D01*
X178564780Y-129429515D01*
X178615576Y-129477490D01*
X178632371Y-129545311D01*
X178609833Y-129611446D01*
X178564780Y-129650485D01*
X178408305Y-129730213D01*
X178247533Y-129847021D01*
X178107021Y-129987533D01*
X177990213Y-130148305D01*
X177899994Y-130325367D01*
X177899993Y-130325370D01*
X177838587Y-130514362D01*
X177807500Y-130710639D01*
X177807500Y-130909360D01*
X177838587Y-131105637D01*
X177899993Y-131294629D01*
X177899994Y-131294632D01*
X177990213Y-131471694D01*
X178107019Y-131632464D01*
X178247536Y-131772981D01*
X178408306Y-131889787D01*
X178565332Y-131969796D01*
X178616127Y-132017769D01*
X178632922Y-132085590D01*
X178610385Y-132151725D01*
X178565332Y-132190764D01*
X178408566Y-132270641D01*
X178371283Y-132297729D01*
X178371282Y-132297730D01*
X179042554Y-132969000D01*
X179019840Y-132969000D01*
X178922939Y-132994964D01*
X178836060Y-133045124D01*
X178765124Y-133116060D01*
X178714964Y-133202939D01*
X178689000Y-133299840D01*
X178689000Y-133322552D01*
X178017730Y-132651282D01*
X178017729Y-132651283D01*
X177990643Y-132688564D01*
X177900457Y-132865562D01*
X177839075Y-133054476D01*
X177839075Y-133054479D01*
X177808000Y-133250678D01*
X177808000Y-133449321D01*
X177839075Y-133645520D01*
X177839075Y-133645523D01*
X177900457Y-133834437D01*
X177990641Y-134011432D01*
X178017730Y-134048715D01*
X178017731Y-134048716D01*
X178689000Y-133377447D01*
X178689000Y-133400160D01*
X178714964Y-133497061D01*
X178765124Y-133583940D01*
X178836060Y-133654876D01*
X178922939Y-133705036D01*
X179019840Y-133731000D01*
X179042553Y-133731000D01*
X178371283Y-134402268D01*
X178371283Y-134402269D01*
X178408567Y-134429358D01*
X178565331Y-134509234D01*
X178616127Y-134557209D01*
X178632922Y-134625030D01*
X178610384Y-134691165D01*
X178565331Y-134730204D01*
X178408305Y-134810213D01*
X178247533Y-134927021D01*
X178107021Y-135067533D01*
X177990213Y-135228305D01*
X177899994Y-135405367D01*
X177899993Y-135405370D01*
X177838587Y-135594362D01*
X177807500Y-135790639D01*
X177807500Y-135989360D01*
X177838587Y-136185637D01*
X177899993Y-136374629D01*
X177899994Y-136374632D01*
X177990213Y-136551694D01*
X178107019Y-136712464D01*
X178247536Y-136852981D01*
X178408306Y-136969787D01*
X178432933Y-136982335D01*
X178585367Y-137060005D01*
X178585370Y-137060006D01*
X178679866Y-137090709D01*
X178774364Y-137121413D01*
X178970639Y-137152500D01*
X178970640Y-137152500D01*
X179169360Y-137152500D01*
X179169361Y-137152500D01*
X179365636Y-137121413D01*
X179554632Y-137060005D01*
X179731694Y-136969787D01*
X179892464Y-136852981D01*
X180032981Y-136712464D01*
X180149787Y-136551694D01*
X180240005Y-136374632D01*
X180301413Y-136185636D01*
X180332500Y-135989361D01*
X180332500Y-135790639D01*
X180301413Y-135594364D01*
X180240005Y-135405368D01*
X180240005Y-135405367D01*
X180149786Y-135228305D01*
X180032981Y-135067536D01*
X179892464Y-134927019D01*
X179731694Y-134810213D01*
X179574667Y-134730203D01*
X179523872Y-134682229D01*
X179507077Y-134614408D01*
X179529614Y-134548273D01*
X179574669Y-134509234D01*
X179731422Y-134429364D01*
X179768716Y-134402268D01*
X179097448Y-133731000D01*
X179120160Y-133731000D01*
X179217061Y-133705036D01*
X179303940Y-133654876D01*
X179374876Y-133583940D01*
X179425036Y-133497061D01*
X179451000Y-133400160D01*
X179451000Y-133377447D01*
X180122268Y-134048715D01*
X180149362Y-134011425D01*
X180239542Y-133834437D01*
X180300924Y-133645523D01*
X180300924Y-133645520D01*
X180332000Y-133449321D01*
X180332000Y-133250678D01*
X180300924Y-133054479D01*
X180300924Y-133054476D01*
X180239542Y-132865562D01*
X180149358Y-132688567D01*
X180122268Y-132651283D01*
X179451000Y-133322551D01*
X179451000Y-133299840D01*
X179425036Y-133202939D01*
X179374876Y-133116060D01*
X179303940Y-133045124D01*
X179217061Y-132994964D01*
X179120160Y-132969000D01*
X179097447Y-132969000D01*
X179768716Y-132297731D01*
X179768715Y-132297730D01*
X179731432Y-132270641D01*
X179574668Y-132190765D01*
X179523872Y-132142790D01*
X179507077Y-132074969D01*
X179529615Y-132008834D01*
X179574667Y-131969796D01*
X179731694Y-131889787D01*
X179892464Y-131772981D01*
X180032981Y-131632464D01*
X180149787Y-131471694D01*
X180240005Y-131294632D01*
X180301413Y-131105636D01*
X180332500Y-130909361D01*
X180332500Y-130710639D01*
X180301413Y-130514364D01*
X180240005Y-130325368D01*
X180240005Y-130325367D01*
X180149786Y-130148305D01*
X180116277Y-130102184D01*
X180032981Y-129987536D01*
X179892464Y-129847019D01*
X179731694Y-129730213D01*
X179575218Y-129650484D01*
X179524423Y-129602510D01*
X179507628Y-129534689D01*
X179530165Y-129468554D01*
X179575218Y-129429515D01*
X179731694Y-129349787D01*
X179892464Y-129232981D01*
X180032981Y-129092464D01*
X180149787Y-128931694D01*
X180240005Y-128754632D01*
X180301413Y-128565636D01*
X180332500Y-128369361D01*
X180332500Y-128170639D01*
X180301413Y-127974364D01*
X180240005Y-127785368D01*
X180240005Y-127785367D01*
X180149786Y-127608305D01*
X180116277Y-127562184D01*
X180032981Y-127447536D01*
X179892464Y-127307019D01*
X179731694Y-127190213D01*
X179575218Y-127110484D01*
X179524423Y-127062510D01*
X179507628Y-126994689D01*
X179530165Y-126928554D01*
X179575218Y-126889515D01*
X179731694Y-126809787D01*
X179892464Y-126692981D01*
X180032981Y-126552464D01*
X180149787Y-126391694D01*
X180240005Y-126214632D01*
X180301413Y-126025636D01*
X180332500Y-125829361D01*
X180332500Y-125630639D01*
X180301413Y-125434364D01*
X180240005Y-125245368D01*
X180240005Y-125245367D01*
X180149786Y-125068305D01*
X180116277Y-125022184D01*
X180032981Y-124907536D01*
X179892464Y-124767019D01*
X179731694Y-124650213D01*
X179574667Y-124570203D01*
X179523872Y-124522229D01*
X179507077Y-124454408D01*
X179529614Y-124388273D01*
X179574669Y-124349234D01*
X179731422Y-124269364D01*
X179768716Y-124242268D01*
X179097448Y-123571000D01*
X179120160Y-123571000D01*
X179217061Y-123545036D01*
X179303940Y-123494876D01*
X179374876Y-123423940D01*
X179425036Y-123337061D01*
X179451000Y-123240160D01*
X179451000Y-123217447D01*
X180122268Y-123888715D01*
X180149362Y-123851425D01*
X180239542Y-123674437D01*
X180300924Y-123485523D01*
X180300924Y-123485520D01*
X180332000Y-123289321D01*
X180332000Y-123090678D01*
X180300924Y-122894479D01*
X180300924Y-122894476D01*
X180239542Y-122705562D01*
X180149358Y-122528567D01*
X180122268Y-122491283D01*
X179451000Y-123162551D01*
X179451000Y-123139840D01*
X179425036Y-123042939D01*
X179374876Y-122956060D01*
X179303940Y-122885124D01*
X179217061Y-122834964D01*
X179120160Y-122809000D01*
X179097447Y-122809000D01*
X179768716Y-122137731D01*
X179768715Y-122137730D01*
X179731432Y-122110641D01*
X179574668Y-122030765D01*
X179523872Y-121982790D01*
X179507077Y-121914969D01*
X179529615Y-121848834D01*
X179574667Y-121809796D01*
X179731694Y-121729787D01*
X179892464Y-121612981D01*
X180032981Y-121472464D01*
X180149787Y-121311694D01*
X180240005Y-121134632D01*
X180301413Y-120945636D01*
X180332500Y-120749361D01*
X180332500Y-120550639D01*
X180301413Y-120354364D01*
X180240005Y-120165368D01*
X180240005Y-120165367D01*
X180149786Y-119988305D01*
X180116277Y-119942184D01*
X180032981Y-119827536D01*
X179892464Y-119687019D01*
X179731694Y-119570213D01*
X179575218Y-119490484D01*
X179524423Y-119442510D01*
X179507628Y-119374689D01*
X179530165Y-119308554D01*
X179575218Y-119269515D01*
X179731694Y-119189787D01*
X179892464Y-119072981D01*
X180032981Y-118932464D01*
X180149787Y-118771694D01*
X180240005Y-118594632D01*
X180301413Y-118405636D01*
X180332500Y-118209361D01*
X180332500Y-118010639D01*
X180301413Y-117814364D01*
X180240005Y-117625368D01*
X180240005Y-117625367D01*
X180149786Y-117448305D01*
X180116277Y-117402184D01*
X180032981Y-117287536D01*
X179892464Y-117147019D01*
X179731694Y-117030213D01*
X179575218Y-116950484D01*
X179524423Y-116902510D01*
X179507628Y-116834689D01*
X179530165Y-116768554D01*
X179575218Y-116729515D01*
X179731694Y-116649787D01*
X179892464Y-116532981D01*
X180032981Y-116392464D01*
X180149787Y-116231694D01*
X180240005Y-116054632D01*
X180301413Y-115865636D01*
X180332500Y-115669361D01*
X180332500Y-115470639D01*
X180301413Y-115274364D01*
X180267471Y-115169901D01*
X180240006Y-115085370D01*
X180240005Y-115085367D01*
X180194035Y-114995149D01*
X180149787Y-114908306D01*
X180032981Y-114747536D01*
X179892464Y-114607019D01*
X179731694Y-114490213D01*
X179575218Y-114410484D01*
X179524423Y-114362510D01*
X179507628Y-114294689D01*
X179530165Y-114228554D01*
X179575218Y-114189515D01*
X179731694Y-114109787D01*
X179892464Y-113992981D01*
X180032981Y-113852464D01*
X180149787Y-113691694D01*
X180240005Y-113514632D01*
X180301413Y-113325636D01*
X180332500Y-113129361D01*
X180332500Y-112930639D01*
X180301413Y-112734364D01*
X180240005Y-112545368D01*
X180240005Y-112545367D01*
X180149786Y-112368305D01*
X180116277Y-112322184D01*
X180032981Y-112207536D01*
X179892464Y-112067019D01*
X179731694Y-111950213D01*
X179575218Y-111870484D01*
X179524423Y-111822510D01*
X179507628Y-111754689D01*
X179530165Y-111688554D01*
X179575218Y-111649515D01*
X179731694Y-111569787D01*
X179892464Y-111452981D01*
X180032981Y-111312464D01*
X180149787Y-111151694D01*
X180240005Y-110974632D01*
X180301413Y-110785636D01*
X180332500Y-110589361D01*
X180332500Y-110390639D01*
X180301413Y-110194364D01*
X180240005Y-110005368D01*
X180240005Y-110005367D01*
X180149786Y-109828305D01*
X180116277Y-109782184D01*
X180032981Y-109667536D01*
X179892464Y-109527019D01*
X179731694Y-109410213D01*
X179575218Y-109330484D01*
X179524423Y-109282510D01*
X179507628Y-109214689D01*
X179530165Y-109148554D01*
X179575218Y-109109515D01*
X179731694Y-109029787D01*
X179892464Y-108912981D01*
X180032981Y-108772464D01*
X180149787Y-108611694D01*
X180240005Y-108434632D01*
X180301413Y-108245636D01*
X180332500Y-108049361D01*
X180332500Y-107850639D01*
X180301413Y-107654364D01*
X180240005Y-107465368D01*
X180240005Y-107465367D01*
X180149786Y-107288305D01*
X180116277Y-107242184D01*
X180032981Y-107127536D01*
X179892464Y-106987019D01*
X179731694Y-106870213D01*
X179575218Y-106790484D01*
X179524423Y-106742510D01*
X179507628Y-106674689D01*
X179530165Y-106608554D01*
X179575218Y-106569515D01*
X179731694Y-106489787D01*
X179892464Y-106372981D01*
X180032981Y-106232464D01*
X180149787Y-106071694D01*
X180240005Y-105894632D01*
X180301413Y-105705636D01*
X180332500Y-105509361D01*
X180332500Y-105310639D01*
X180301413Y-105114364D01*
X180240005Y-104925368D01*
X180240005Y-104925367D01*
X180149786Y-104748305D01*
X180116277Y-104702184D01*
X180032981Y-104587536D01*
X179892464Y-104447019D01*
X179731694Y-104330213D01*
X179575218Y-104250484D01*
X179524423Y-104202510D01*
X179507628Y-104134689D01*
X179530165Y-104068554D01*
X179575218Y-104029515D01*
X179731694Y-103949787D01*
X179892464Y-103832981D01*
X180032981Y-103692464D01*
X180149787Y-103531694D01*
X180240005Y-103354632D01*
X180301413Y-103165636D01*
X180332500Y-102969361D01*
X180332500Y-102770639D01*
X180301413Y-102574364D01*
X180240005Y-102385368D01*
X180240005Y-102385367D01*
X180149786Y-102208305D01*
X180116277Y-102162184D01*
X180032981Y-102047536D01*
X179892464Y-101907019D01*
X179731694Y-101790213D01*
X179575218Y-101710484D01*
X179524423Y-101662510D01*
X179507628Y-101594689D01*
X179530165Y-101528554D01*
X179575218Y-101489515D01*
X179731694Y-101409787D01*
X179892464Y-101292981D01*
X180032981Y-101152464D01*
X180149787Y-100991694D01*
X180240005Y-100814632D01*
X180301413Y-100625636D01*
X180332500Y-100429361D01*
X180332500Y-100230639D01*
X205747500Y-100230639D01*
X205747500Y-100429360D01*
X205778587Y-100625637D01*
X205839993Y-100814629D01*
X205839994Y-100814632D01*
X205930213Y-100991694D01*
X206047019Y-101152464D01*
X206187536Y-101292981D01*
X206348306Y-101409787D01*
X206466832Y-101470179D01*
X206504780Y-101489515D01*
X206555576Y-101537490D01*
X206572371Y-101605311D01*
X206549833Y-101671446D01*
X206504780Y-101710485D01*
X206348305Y-101790213D01*
X206187533Y-101907021D01*
X206047021Y-102047533D01*
X205930213Y-102208305D01*
X205839994Y-102385367D01*
X205839993Y-102385370D01*
X205778587Y-102574362D01*
X205747500Y-102770639D01*
X205747500Y-102969360D01*
X205778587Y-103165637D01*
X205839993Y-103354629D01*
X205839994Y-103354632D01*
X205930213Y-103531694D01*
X206047019Y-103692464D01*
X206187536Y-103832981D01*
X206348306Y-103949787D01*
X206466832Y-104010179D01*
X206504780Y-104029515D01*
X206555576Y-104077490D01*
X206572371Y-104145311D01*
X206549833Y-104211446D01*
X206504780Y-104250485D01*
X206348305Y-104330213D01*
X206187533Y-104447021D01*
X206047021Y-104587533D01*
X205930213Y-104748305D01*
X205839994Y-104925367D01*
X205839993Y-104925370D01*
X205778587Y-105114362D01*
X205747500Y-105310639D01*
X205747500Y-105509360D01*
X205778587Y-105705637D01*
X205839993Y-105894629D01*
X205839994Y-105894632D01*
X205930213Y-106071694D01*
X206047019Y-106232464D01*
X206187536Y-106372981D01*
X206348306Y-106489787D01*
X206456887Y-106545112D01*
X206504780Y-106569515D01*
X206555576Y-106617490D01*
X206572371Y-106685311D01*
X206549833Y-106751446D01*
X206504780Y-106790485D01*
X206348305Y-106870213D01*
X206187533Y-106987021D01*
X206047021Y-107127533D01*
X205930213Y-107288305D01*
X205839994Y-107465367D01*
X205839993Y-107465370D01*
X205778587Y-107654362D01*
X205778587Y-107654364D01*
X205747500Y-107850639D01*
X205747500Y-108049361D01*
X205750037Y-108065380D01*
X205778587Y-108245637D01*
X205839993Y-108434629D01*
X205839994Y-108434632D01*
X205919211Y-108590102D01*
X205930213Y-108611694D01*
X206047019Y-108772464D01*
X206187536Y-108912981D01*
X206348306Y-109029787D01*
X206466832Y-109090179D01*
X206504780Y-109109515D01*
X206555576Y-109157490D01*
X206572371Y-109225311D01*
X206549833Y-109291446D01*
X206504780Y-109330485D01*
X206348305Y-109410213D01*
X206187533Y-109527021D01*
X206047021Y-109667533D01*
X205930213Y-109828305D01*
X205839994Y-110005367D01*
X205839993Y-110005370D01*
X205778587Y-110194362D01*
X205778587Y-110194364D01*
X205747500Y-110390639D01*
X205747500Y-110589361D01*
X205750037Y-110605380D01*
X205778587Y-110785637D01*
X205839993Y-110974629D01*
X205839994Y-110974632D01*
X205930213Y-111151694D01*
X206047019Y-111312464D01*
X206187536Y-111452981D01*
X206348306Y-111569787D01*
X206466832Y-111630179D01*
X206504780Y-111649515D01*
X206555576Y-111697490D01*
X206572371Y-111765311D01*
X206549833Y-111831446D01*
X206504780Y-111870485D01*
X206348305Y-111950213D01*
X206187533Y-112067021D01*
X206047021Y-112207533D01*
X205930213Y-112368305D01*
X205839994Y-112545367D01*
X205839993Y-112545370D01*
X205778587Y-112734362D01*
X205778587Y-112734364D01*
X205747500Y-112930639D01*
X205747500Y-113129361D01*
X205750037Y-113145380D01*
X205778587Y-113325637D01*
X205839993Y-113514629D01*
X205839994Y-113514632D01*
X205930213Y-113691694D01*
X206047019Y-113852464D01*
X206187536Y-113992981D01*
X206348306Y-114109787D01*
X206505332Y-114189796D01*
X206556127Y-114237769D01*
X206572922Y-114305590D01*
X206550385Y-114371725D01*
X206505332Y-114410764D01*
X206348566Y-114490641D01*
X206311283Y-114517729D01*
X206311282Y-114517730D01*
X206982554Y-115189000D01*
X206959840Y-115189000D01*
X206862939Y-115214964D01*
X206776060Y-115265124D01*
X206705124Y-115336060D01*
X206654964Y-115422939D01*
X206629000Y-115519840D01*
X206629000Y-115542552D01*
X205957730Y-114871282D01*
X205957729Y-114871283D01*
X205930643Y-114908564D01*
X205840457Y-115085562D01*
X205779075Y-115274476D01*
X205779075Y-115274479D01*
X205748000Y-115470678D01*
X205748000Y-115669321D01*
X205779075Y-115865520D01*
X205779075Y-115865523D01*
X205840457Y-116054437D01*
X205930641Y-116231432D01*
X205957730Y-116268715D01*
X205957731Y-116268716D01*
X206629000Y-115597447D01*
X206629000Y-115620160D01*
X206654964Y-115717061D01*
X206705124Y-115803940D01*
X206776060Y-115874876D01*
X206862939Y-115925036D01*
X206959840Y-115951000D01*
X206982553Y-115951000D01*
X206311283Y-116622268D01*
X206311283Y-116622269D01*
X206348567Y-116649358D01*
X206505331Y-116729234D01*
X206556127Y-116777209D01*
X206572922Y-116845030D01*
X206550384Y-116911165D01*
X206505331Y-116950204D01*
X206348305Y-117030213D01*
X206187533Y-117147021D01*
X206047021Y-117287533D01*
X205930213Y-117448305D01*
X205839994Y-117625367D01*
X205839993Y-117625370D01*
X205778587Y-117814362D01*
X205778587Y-117814364D01*
X205747500Y-118010639D01*
X205747500Y-118209361D01*
X205749969Y-118224949D01*
X205778587Y-118405637D01*
X205839993Y-118594629D01*
X205839994Y-118594632D01*
X205930213Y-118771694D01*
X206047019Y-118932464D01*
X206187536Y-119072981D01*
X206348306Y-119189787D01*
X206466832Y-119250179D01*
X206504780Y-119269515D01*
X206555576Y-119317490D01*
X206572371Y-119385311D01*
X206549833Y-119451446D01*
X206504780Y-119490485D01*
X206348305Y-119570213D01*
X206187533Y-119687021D01*
X206047021Y-119827533D01*
X205930213Y-119988305D01*
X205839994Y-120165367D01*
X205839993Y-120165370D01*
X205778587Y-120354362D01*
X205747500Y-120550639D01*
X205747500Y-120749360D01*
X205778587Y-120945637D01*
X205839993Y-121134629D01*
X205839994Y-121134632D01*
X205930213Y-121311694D01*
X206047019Y-121472464D01*
X206187536Y-121612981D01*
X206348306Y-121729787D01*
X206466832Y-121790179D01*
X206504780Y-121809515D01*
X206555576Y-121857490D01*
X206572371Y-121925311D01*
X206549833Y-121991446D01*
X206504780Y-122030485D01*
X206348305Y-122110213D01*
X206187533Y-122227021D01*
X206047021Y-122367533D01*
X205930213Y-122528305D01*
X205839994Y-122705367D01*
X205839993Y-122705370D01*
X205778587Y-122894362D01*
X205762330Y-122997007D01*
X205747500Y-123090639D01*
X205747500Y-123289361D01*
X205748597Y-123296286D01*
X205778587Y-123485637D01*
X205839993Y-123674629D01*
X205839994Y-123674632D01*
X205930076Y-123851425D01*
X205930213Y-123851694D01*
X206047019Y-124012464D01*
X206187536Y-124152981D01*
X206348306Y-124269787D01*
X206417943Y-124305269D01*
X206504780Y-124349515D01*
X206555576Y-124397490D01*
X206572371Y-124465311D01*
X206549833Y-124531446D01*
X206504780Y-124570485D01*
X206348305Y-124650213D01*
X206187533Y-124767021D01*
X206047021Y-124907533D01*
X205930213Y-125068305D01*
X205839994Y-125245367D01*
X205839993Y-125245370D01*
X205778587Y-125434362D01*
X205747500Y-125630639D01*
X205747500Y-125829360D01*
X205778587Y-126025637D01*
X205839993Y-126214629D01*
X205839994Y-126214632D01*
X205930213Y-126391694D01*
X206047019Y-126552464D01*
X206187536Y-126692981D01*
X206348306Y-126809787D01*
X206466832Y-126870179D01*
X206504780Y-126889515D01*
X206555576Y-126937490D01*
X206572371Y-127005311D01*
X206549833Y-127071446D01*
X206504780Y-127110485D01*
X206348305Y-127190213D01*
X206187533Y-127307021D01*
X206047021Y-127447533D01*
X205930213Y-127608305D01*
X205839994Y-127785367D01*
X205839993Y-127785370D01*
X205778587Y-127974362D01*
X205747500Y-128170639D01*
X205747500Y-128369360D01*
X205778587Y-128565637D01*
X205839993Y-128754629D01*
X205839994Y-128754632D01*
X205926294Y-128924003D01*
X205930213Y-128931694D01*
X206047019Y-129092464D01*
X206187536Y-129232981D01*
X206348306Y-129349787D01*
X206411335Y-129381902D01*
X206504780Y-129429515D01*
X206555576Y-129477490D01*
X206572371Y-129545311D01*
X206549833Y-129611446D01*
X206504780Y-129650485D01*
X206348305Y-129730213D01*
X206187533Y-129847021D01*
X206047021Y-129987533D01*
X205930213Y-130148305D01*
X205839994Y-130325367D01*
X205839993Y-130325370D01*
X205778587Y-130514362D01*
X205747500Y-130710639D01*
X205747500Y-130909360D01*
X205778587Y-131105637D01*
X205839993Y-131294629D01*
X205839994Y-131294632D01*
X205930213Y-131471694D01*
X206047019Y-131632464D01*
X206187536Y-131772981D01*
X206348306Y-131889787D01*
X206505332Y-131969796D01*
X206556127Y-132017769D01*
X206572922Y-132085590D01*
X206550385Y-132151725D01*
X206505332Y-132190764D01*
X206348566Y-132270641D01*
X206311283Y-132297729D01*
X206311282Y-132297730D01*
X206982554Y-132969000D01*
X206959840Y-132969000D01*
X206862939Y-132994964D01*
X206776060Y-133045124D01*
X206705124Y-133116060D01*
X206654964Y-133202939D01*
X206629000Y-133299840D01*
X206629000Y-133322552D01*
X205957730Y-132651282D01*
X205957729Y-132651283D01*
X205930643Y-132688564D01*
X205840457Y-132865562D01*
X205779075Y-133054476D01*
X205779075Y-133054479D01*
X205748000Y-133250678D01*
X205748000Y-133449321D01*
X205779075Y-133645520D01*
X205779075Y-133645523D01*
X205840457Y-133834437D01*
X205930641Y-134011432D01*
X205957730Y-134048715D01*
X205957731Y-134048716D01*
X206629000Y-133377447D01*
X206629000Y-133400160D01*
X206654964Y-133497061D01*
X206705124Y-133583940D01*
X206776060Y-133654876D01*
X206862939Y-133705036D01*
X206959840Y-133731000D01*
X206982553Y-133731000D01*
X206311283Y-134402268D01*
X206311283Y-134402269D01*
X206348567Y-134429358D01*
X206505331Y-134509234D01*
X206556127Y-134557209D01*
X206572922Y-134625030D01*
X206550384Y-134691165D01*
X206505331Y-134730204D01*
X206348305Y-134810213D01*
X206187533Y-134927021D01*
X206047021Y-135067533D01*
X205930213Y-135228305D01*
X205839994Y-135405367D01*
X205839993Y-135405370D01*
X205778587Y-135594362D01*
X205747500Y-135790639D01*
X205747500Y-135989360D01*
X205778587Y-136185637D01*
X205839993Y-136374629D01*
X205839994Y-136374632D01*
X205930213Y-136551694D01*
X206047019Y-136712464D01*
X206187536Y-136852981D01*
X206348306Y-136969787D01*
X206372933Y-136982335D01*
X206525367Y-137060005D01*
X206525370Y-137060006D01*
X206619866Y-137090709D01*
X206714364Y-137121413D01*
X206910639Y-137152500D01*
X206910640Y-137152500D01*
X207109360Y-137152500D01*
X207109361Y-137152500D01*
X207305636Y-137121413D01*
X207494632Y-137060005D01*
X207671694Y-136969787D01*
X207832464Y-136852981D01*
X207972981Y-136712464D01*
X208089787Y-136551694D01*
X208180005Y-136374632D01*
X208241413Y-136185636D01*
X208272500Y-135989361D01*
X208272500Y-135790639D01*
X208241413Y-135594364D01*
X208180005Y-135405368D01*
X208180005Y-135405367D01*
X208089786Y-135228305D01*
X207972981Y-135067536D01*
X207832464Y-134927019D01*
X207671694Y-134810213D01*
X207514667Y-134730203D01*
X207463872Y-134682229D01*
X207447077Y-134614408D01*
X207469614Y-134548273D01*
X207514669Y-134509234D01*
X207671422Y-134429364D01*
X207708716Y-134402268D01*
X207037448Y-133731000D01*
X207060160Y-133731000D01*
X207157061Y-133705036D01*
X207243940Y-133654876D01*
X207314876Y-133583940D01*
X207365036Y-133497061D01*
X207391000Y-133400160D01*
X207391000Y-133377447D01*
X208062268Y-134048715D01*
X208089362Y-134011425D01*
X208179542Y-133834437D01*
X208240924Y-133645523D01*
X208240924Y-133645520D01*
X208272000Y-133449321D01*
X208272000Y-133250681D01*
X208271999Y-133250676D01*
X208240924Y-133054479D01*
X208240924Y-133054476D01*
X208179542Y-132865562D01*
X208089358Y-132688567D01*
X208062268Y-132651283D01*
X207391000Y-133322551D01*
X207391000Y-133299840D01*
X207365036Y-133202939D01*
X207314876Y-133116060D01*
X207243940Y-133045124D01*
X207157061Y-132994964D01*
X207060160Y-132969000D01*
X207037447Y-132969000D01*
X207708716Y-132297731D01*
X207708715Y-132297730D01*
X207671432Y-132270641D01*
X207514668Y-132190765D01*
X207463872Y-132142790D01*
X207447077Y-132074969D01*
X207469615Y-132008834D01*
X207514667Y-131969796D01*
X207671694Y-131889787D01*
X207832464Y-131772981D01*
X207972981Y-131632464D01*
X208089787Y-131471694D01*
X208180005Y-131294632D01*
X208241413Y-131105636D01*
X208272500Y-130909361D01*
X208272500Y-130710639D01*
X208241413Y-130514364D01*
X208180005Y-130325368D01*
X208180005Y-130325367D01*
X208089786Y-130148305D01*
X208056277Y-130102184D01*
X207972981Y-129987536D01*
X207832464Y-129847019D01*
X207671694Y-129730213D01*
X207515218Y-129650484D01*
X207464423Y-129602510D01*
X207447628Y-129534689D01*
X207470165Y-129468554D01*
X207515218Y-129429515D01*
X207671694Y-129349787D01*
X207832464Y-129232981D01*
X207972981Y-129092464D01*
X208089787Y-128931694D01*
X208180005Y-128754632D01*
X208241413Y-128565636D01*
X208272500Y-128369361D01*
X208272500Y-128170639D01*
X208241413Y-127974364D01*
X208180005Y-127785368D01*
X208180005Y-127785367D01*
X208089786Y-127608305D01*
X208056277Y-127562184D01*
X207972981Y-127447536D01*
X207832464Y-127307019D01*
X207671694Y-127190213D01*
X207515218Y-127110484D01*
X207464423Y-127062510D01*
X207447628Y-126994689D01*
X207470165Y-126928554D01*
X207515218Y-126889515D01*
X207671694Y-126809787D01*
X207832464Y-126692981D01*
X207972981Y-126552464D01*
X208089787Y-126391694D01*
X208180005Y-126214632D01*
X208241413Y-126025636D01*
X208272500Y-125829361D01*
X208272500Y-125630639D01*
X208241413Y-125434364D01*
X208180005Y-125245368D01*
X208180005Y-125245367D01*
X208089786Y-125068305D01*
X208056277Y-125022184D01*
X207972981Y-124907536D01*
X207832464Y-124767019D01*
X207671694Y-124650213D01*
X207515218Y-124570484D01*
X207464423Y-124522510D01*
X207447628Y-124454689D01*
X207470165Y-124388554D01*
X207515218Y-124349515D01*
X207671694Y-124269787D01*
X207832464Y-124152981D01*
X207972981Y-124012464D01*
X208089787Y-123851694D01*
X208180005Y-123674632D01*
X208241413Y-123485636D01*
X208272500Y-123289361D01*
X208272500Y-123090639D01*
X208241413Y-122894364D01*
X208207471Y-122789901D01*
X208180006Y-122705370D01*
X208180005Y-122705367D01*
X208134035Y-122615149D01*
X208089787Y-122528306D01*
X207972981Y-122367536D01*
X207832464Y-122227019D01*
X207671694Y-122110213D01*
X207515218Y-122030484D01*
X207464423Y-121982510D01*
X207447628Y-121914689D01*
X207470165Y-121848554D01*
X207515218Y-121809515D01*
X207671694Y-121729787D01*
X207832464Y-121612981D01*
X207972981Y-121472464D01*
X208089787Y-121311694D01*
X208180005Y-121134632D01*
X208241413Y-120945636D01*
X208272500Y-120749361D01*
X208272500Y-120550639D01*
X208241413Y-120354364D01*
X208180005Y-120165368D01*
X208180005Y-120165367D01*
X208089786Y-119988305D01*
X208056277Y-119942184D01*
X207972981Y-119827536D01*
X207832464Y-119687019D01*
X207671694Y-119570213D01*
X207515218Y-119490484D01*
X207464423Y-119442510D01*
X207447628Y-119374689D01*
X207470165Y-119308554D01*
X207515218Y-119269515D01*
X207671694Y-119189787D01*
X207832464Y-119072981D01*
X207972981Y-118932464D01*
X208089787Y-118771694D01*
X208180005Y-118594632D01*
X208241413Y-118405636D01*
X208272500Y-118209361D01*
X208272500Y-118010639D01*
X208241413Y-117814364D01*
X208180005Y-117625368D01*
X208180005Y-117625367D01*
X208089786Y-117448305D01*
X208056277Y-117402184D01*
X207972981Y-117287536D01*
X207832464Y-117147019D01*
X207671694Y-117030213D01*
X207514667Y-116950203D01*
X207463872Y-116902229D01*
X207447077Y-116834408D01*
X207469614Y-116768273D01*
X207514669Y-116729234D01*
X207671422Y-116649364D01*
X207708716Y-116622268D01*
X207037448Y-115951000D01*
X207060160Y-115951000D01*
X207157061Y-115925036D01*
X207243940Y-115874876D01*
X207314876Y-115803940D01*
X207365036Y-115717061D01*
X207391000Y-115620160D01*
X207391000Y-115597447D01*
X208062268Y-116268715D01*
X208089362Y-116231425D01*
X208179542Y-116054437D01*
X208240924Y-115865523D01*
X208240924Y-115865520D01*
X208272000Y-115669321D01*
X208272000Y-115470681D01*
X208271999Y-115470676D01*
X208240924Y-115274479D01*
X208240924Y-115274476D01*
X208179542Y-115085562D01*
X208089358Y-114908567D01*
X208062268Y-114871283D01*
X207391000Y-115542551D01*
X207391000Y-115519840D01*
X207365036Y-115422939D01*
X207314876Y-115336060D01*
X207243940Y-115265124D01*
X207157061Y-115214964D01*
X207060160Y-115189000D01*
X207037447Y-115189000D01*
X207708716Y-114517731D01*
X207708715Y-114517730D01*
X207671432Y-114490641D01*
X207514668Y-114410765D01*
X207463872Y-114362790D01*
X207447077Y-114294969D01*
X207469615Y-114228834D01*
X207514667Y-114189796D01*
X207671694Y-114109787D01*
X207832464Y-113992981D01*
X207972981Y-113852464D01*
X208089787Y-113691694D01*
X208180005Y-113514632D01*
X208241413Y-113325636D01*
X208272500Y-113129361D01*
X208272500Y-112930639D01*
X208241413Y-112734364D01*
X208180005Y-112545368D01*
X208180005Y-112545367D01*
X208089786Y-112368305D01*
X208056277Y-112322184D01*
X207972981Y-112207536D01*
X207832464Y-112067019D01*
X207671694Y-111950213D01*
X207515218Y-111870484D01*
X207464423Y-111822510D01*
X207447628Y-111754689D01*
X207470165Y-111688554D01*
X207515218Y-111649515D01*
X207671694Y-111569787D01*
X207832464Y-111452981D01*
X207972981Y-111312464D01*
X208089787Y-111151694D01*
X208180005Y-110974632D01*
X208241413Y-110785636D01*
X208272500Y-110589361D01*
X208272500Y-110390639D01*
X208241413Y-110194364D01*
X208180005Y-110005368D01*
X208180005Y-110005367D01*
X208089786Y-109828305D01*
X208056277Y-109782184D01*
X207972981Y-109667536D01*
X207832464Y-109527019D01*
X207671694Y-109410213D01*
X207515218Y-109330484D01*
X207464423Y-109282510D01*
X207447628Y-109214689D01*
X207470165Y-109148554D01*
X207515218Y-109109515D01*
X207671694Y-109029787D01*
X207832464Y-108912981D01*
X207972981Y-108772464D01*
X208089787Y-108611694D01*
X208180005Y-108434632D01*
X208241413Y-108245636D01*
X208272500Y-108049361D01*
X208272500Y-107850639D01*
X208241413Y-107654364D01*
X208180005Y-107465368D01*
X208180005Y-107465367D01*
X208089786Y-107288305D01*
X208056277Y-107242184D01*
X207972981Y-107127536D01*
X207832464Y-106987019D01*
X207671694Y-106870213D01*
X207515218Y-106790484D01*
X207464423Y-106742510D01*
X207447628Y-106674689D01*
X207470165Y-106608554D01*
X207515218Y-106569515D01*
X207671694Y-106489787D01*
X207832464Y-106372981D01*
X207972981Y-106232464D01*
X208089787Y-106071694D01*
X208180005Y-105894632D01*
X208241413Y-105705636D01*
X208272500Y-105509361D01*
X208272500Y-105310639D01*
X208241413Y-105114364D01*
X208180005Y-104925368D01*
X208180005Y-104925367D01*
X208089786Y-104748305D01*
X208056277Y-104702184D01*
X207972981Y-104587536D01*
X207832464Y-104447019D01*
X207671694Y-104330213D01*
X207515218Y-104250484D01*
X207464423Y-104202510D01*
X207447628Y-104134689D01*
X207470165Y-104068554D01*
X207515218Y-104029515D01*
X207671694Y-103949787D01*
X207832464Y-103832981D01*
X207972981Y-103692464D01*
X208089787Y-103531694D01*
X208180005Y-103354632D01*
X208241413Y-103165636D01*
X208272500Y-102969361D01*
X208272500Y-102770639D01*
X208241413Y-102574364D01*
X208180005Y-102385368D01*
X208180005Y-102385367D01*
X208089786Y-102208305D01*
X208056277Y-102162184D01*
X207972981Y-102047536D01*
X207832464Y-101907019D01*
X207671694Y-101790213D01*
X207515218Y-101710484D01*
X207464423Y-101662510D01*
X207447628Y-101594689D01*
X207470165Y-101528554D01*
X207515218Y-101489515D01*
X207671694Y-101409787D01*
X207832464Y-101292981D01*
X207972981Y-101152464D01*
X208089787Y-100991694D01*
X208180005Y-100814632D01*
X208241413Y-100625636D01*
X208272500Y-100429361D01*
X208272500Y-100230639D01*
X208271403Y-100223713D01*
X212009500Y-100223713D01*
X212009500Y-100436287D01*
X212042754Y-100646243D01*
X212097467Y-100814632D01*
X212108444Y-100848414D01*
X212204951Y-101037820D01*
X212329890Y-101209786D01*
X212480213Y-101360109D01*
X212652182Y-101485050D01*
X212660946Y-101489516D01*
X212711742Y-101537491D01*
X212728536Y-101605312D01*
X212705998Y-101671447D01*
X212660946Y-101710484D01*
X212652182Y-101714949D01*
X212480213Y-101839890D01*
X212329890Y-101990213D01*
X212204951Y-102162179D01*
X212108444Y-102351585D01*
X212108443Y-102351587D01*
X212108443Y-102351588D01*
X212097467Y-102385368D01*
X212042753Y-102553760D01*
X212039490Y-102574362D01*
X212009500Y-102763713D01*
X212009500Y-102976287D01*
X212042754Y-103186243D01*
X212097467Y-103354632D01*
X212108444Y-103388414D01*
X212204951Y-103577820D01*
X212329890Y-103749786D01*
X212480213Y-103900109D01*
X212652182Y-104025050D01*
X212660946Y-104029516D01*
X212711742Y-104077491D01*
X212728536Y-104145312D01*
X212705998Y-104211447D01*
X212660946Y-104250484D01*
X212652182Y-104254949D01*
X212480213Y-104379890D01*
X212329890Y-104530213D01*
X212204951Y-104702179D01*
X212108444Y-104891585D01*
X212108443Y-104891587D01*
X212108443Y-104891588D01*
X212097467Y-104925368D01*
X212042753Y-105093760D01*
X212039490Y-105114362D01*
X212009500Y-105303713D01*
X212009500Y-105516287D01*
X212042754Y-105726243D01*
X212097467Y-105894632D01*
X212108444Y-105928414D01*
X212204951Y-106117820D01*
X212329890Y-106289786D01*
X212480213Y-106440109D01*
X212652182Y-106565050D01*
X212660946Y-106569516D01*
X212711742Y-106617491D01*
X212728536Y-106685312D01*
X212705998Y-106751447D01*
X212660946Y-106790484D01*
X212652182Y-106794949D01*
X212480213Y-106919890D01*
X212329890Y-107070213D01*
X212204951Y-107242179D01*
X212108444Y-107431585D01*
X212108443Y-107431587D01*
X212108443Y-107431588D01*
X212097467Y-107465368D01*
X212042753Y-107633760D01*
X212039490Y-107654362D01*
X212009500Y-107843713D01*
X212009500Y-108056287D01*
X212042754Y-108266243D01*
X212097467Y-108434632D01*
X212108444Y-108468414D01*
X212204951Y-108657820D01*
X212329890Y-108829786D01*
X212480213Y-108980109D01*
X212652182Y-109105050D01*
X212660946Y-109109516D01*
X212711742Y-109157491D01*
X212728536Y-109225312D01*
X212705998Y-109291447D01*
X212660946Y-109330484D01*
X212652182Y-109334949D01*
X212480213Y-109459890D01*
X212329890Y-109610213D01*
X212204951Y-109782179D01*
X212108444Y-109971585D01*
X212108443Y-109971587D01*
X212108443Y-109971588D01*
X212097467Y-110005368D01*
X212042753Y-110173760D01*
X212039490Y-110194362D01*
X212009500Y-110383713D01*
X212009500Y-110596287D01*
X212042754Y-110806243D01*
X212097467Y-110974632D01*
X212108444Y-111008414D01*
X212204951Y-111197820D01*
X212329890Y-111369786D01*
X212480213Y-111520109D01*
X212652182Y-111645050D01*
X212660946Y-111649516D01*
X212711742Y-111697491D01*
X212728536Y-111765312D01*
X212705998Y-111831447D01*
X212660946Y-111870484D01*
X212652182Y-111874949D01*
X212480213Y-111999890D01*
X212329890Y-112150213D01*
X212204951Y-112322179D01*
X212108444Y-112511585D01*
X212108443Y-112511587D01*
X212108443Y-112511588D01*
X212097467Y-112545368D01*
X212042753Y-112713760D01*
X212039490Y-112734362D01*
X212009500Y-112923713D01*
X212009500Y-113136287D01*
X212042754Y-113346243D01*
X212097467Y-113514632D01*
X212108444Y-113548414D01*
X212204951Y-113737820D01*
X212329890Y-113909786D01*
X212480213Y-114060109D01*
X212652179Y-114185048D01*
X212652181Y-114185049D01*
X212652184Y-114185051D01*
X212661493Y-114189794D01*
X212712290Y-114237766D01*
X212729087Y-114305587D01*
X212706552Y-114371722D01*
X212661505Y-114410760D01*
X212652446Y-114415376D01*
X212652440Y-114415380D01*
X212598282Y-114454727D01*
X212598282Y-114454728D01*
X213230591Y-115087037D01*
X213167007Y-115104075D01*
X213052993Y-115169901D01*
X212959901Y-115262993D01*
X212894075Y-115377007D01*
X212877037Y-115440591D01*
X212244728Y-114808282D01*
X212244727Y-114808282D01*
X212205380Y-114862439D01*
X212108904Y-115051782D01*
X212043242Y-115253869D01*
X212043242Y-115253872D01*
X212010000Y-115463753D01*
X212010000Y-115676246D01*
X212043242Y-115886127D01*
X212043242Y-115886130D01*
X212108904Y-116088217D01*
X212205375Y-116277550D01*
X212244728Y-116331716D01*
X212877037Y-115699408D01*
X212894075Y-115762993D01*
X212959901Y-115877007D01*
X213052993Y-115970099D01*
X213167007Y-116035925D01*
X213230590Y-116052962D01*
X212598282Y-116685269D01*
X212598282Y-116685270D01*
X212652452Y-116724626D01*
X212652451Y-116724626D01*
X212661495Y-116729234D01*
X212712292Y-116777208D01*
X212729087Y-116845029D01*
X212706550Y-116911164D01*
X212661499Y-116950202D01*
X212652182Y-116954949D01*
X212480213Y-117079890D01*
X212329890Y-117230213D01*
X212204951Y-117402179D01*
X212108444Y-117591585D01*
X212108443Y-117591587D01*
X212108443Y-117591588D01*
X212097467Y-117625368D01*
X212042753Y-117793760D01*
X212039490Y-117814362D01*
X212009500Y-118003713D01*
X212009500Y-118216287D01*
X212042754Y-118426243D01*
X212097467Y-118594632D01*
X212108444Y-118628414D01*
X212204951Y-118817820D01*
X212329890Y-118989786D01*
X212480213Y-119140109D01*
X212652182Y-119265050D01*
X212660946Y-119269516D01*
X212711742Y-119317491D01*
X212728536Y-119385312D01*
X212705998Y-119451447D01*
X212660946Y-119490484D01*
X212652182Y-119494949D01*
X212480213Y-119619890D01*
X212329890Y-119770213D01*
X212204951Y-119942179D01*
X212108444Y-120131585D01*
X212108443Y-120131587D01*
X212108443Y-120131588D01*
X212097467Y-120165368D01*
X212042753Y-120333760D01*
X212030661Y-120410109D01*
X212009500Y-120543713D01*
X212009500Y-120756287D01*
X212042754Y-120966243D01*
X212097467Y-121134632D01*
X212108444Y-121168414D01*
X212204951Y-121357820D01*
X212329890Y-121529786D01*
X212480213Y-121680109D01*
X212652182Y-121805050D01*
X212660946Y-121809516D01*
X212711742Y-121857491D01*
X212728536Y-121925312D01*
X212705998Y-121991447D01*
X212660946Y-122030484D01*
X212652182Y-122034949D01*
X212480213Y-122159890D01*
X212329890Y-122310213D01*
X212204951Y-122482179D01*
X212108444Y-122671585D01*
X212108443Y-122671587D01*
X212108443Y-122671588D01*
X212097467Y-122705368D01*
X212042753Y-122873760D01*
X212009500Y-123083713D01*
X212009500Y-123296286D01*
X212042735Y-123506127D01*
X212042754Y-123506243D01*
X212097467Y-123674632D01*
X212108444Y-123708414D01*
X212204951Y-123897820D01*
X212329890Y-124069786D01*
X212480213Y-124220109D01*
X212652182Y-124345050D01*
X212660946Y-124349516D01*
X212711742Y-124397491D01*
X212728536Y-124465312D01*
X212705998Y-124531447D01*
X212660946Y-124570484D01*
X212652182Y-124574949D01*
X212480213Y-124699890D01*
X212329890Y-124850213D01*
X212204951Y-125022179D01*
X212108444Y-125211585D01*
X212108443Y-125211587D01*
X212108443Y-125211588D01*
X212097467Y-125245368D01*
X212042753Y-125413760D01*
X212009500Y-125623713D01*
X212009500Y-125836286D01*
X212042163Y-126042517D01*
X212042754Y-126046243D01*
X212097467Y-126214632D01*
X212108444Y-126248414D01*
X212204951Y-126437820D01*
X212329890Y-126609786D01*
X212480213Y-126760109D01*
X212652182Y-126885050D01*
X212660946Y-126889516D01*
X212711742Y-126937491D01*
X212728536Y-127005312D01*
X212705998Y-127071447D01*
X212660946Y-127110484D01*
X212652182Y-127114949D01*
X212480213Y-127239890D01*
X212329890Y-127390213D01*
X212204951Y-127562179D01*
X212108444Y-127751585D01*
X212108443Y-127751587D01*
X212108443Y-127751588D01*
X212097467Y-127785368D01*
X212042753Y-127953760D01*
X212039490Y-127974362D01*
X212009500Y-128163713D01*
X212009500Y-128376287D01*
X212042754Y-128586243D01*
X212097467Y-128754632D01*
X212108444Y-128788414D01*
X212204951Y-128977820D01*
X212329890Y-129149786D01*
X212480213Y-129300109D01*
X212652182Y-129425050D01*
X212660946Y-129429516D01*
X212711742Y-129477491D01*
X212728536Y-129545312D01*
X212705998Y-129611447D01*
X212660946Y-129650484D01*
X212652182Y-129654949D01*
X212480213Y-129779890D01*
X212329890Y-129930213D01*
X212204951Y-130102179D01*
X212108444Y-130291585D01*
X212108443Y-130291587D01*
X212108443Y-130291588D01*
X212097467Y-130325368D01*
X212042753Y-130493760D01*
X212039490Y-130514362D01*
X212009500Y-130703713D01*
X212009500Y-130916287D01*
X212042754Y-131126243D01*
X212097467Y-131294632D01*
X212108444Y-131328414D01*
X212204951Y-131517820D01*
X212329890Y-131689786D01*
X212480213Y-131840109D01*
X212652179Y-131965048D01*
X212652181Y-131965049D01*
X212652184Y-131965051D01*
X212661493Y-131969794D01*
X212712290Y-132017766D01*
X212729087Y-132085587D01*
X212706552Y-132151722D01*
X212661505Y-132190760D01*
X212652446Y-132195376D01*
X212652440Y-132195380D01*
X212598282Y-132234727D01*
X212598282Y-132234728D01*
X213230591Y-132867037D01*
X213167007Y-132884075D01*
X213052993Y-132949901D01*
X212959901Y-133042993D01*
X212894075Y-133157007D01*
X212877037Y-133220591D01*
X212244728Y-132588282D01*
X212244727Y-132588282D01*
X212205380Y-132642439D01*
X212108904Y-132831782D01*
X212043242Y-133033869D01*
X212043242Y-133033872D01*
X212010000Y-133243753D01*
X212010000Y-133456246D01*
X212043242Y-133666127D01*
X212043242Y-133666130D01*
X212108904Y-133868217D01*
X212205375Y-134057550D01*
X212244728Y-134111716D01*
X212877037Y-133479408D01*
X212894075Y-133542993D01*
X212959901Y-133657007D01*
X213052993Y-133750099D01*
X213167007Y-133815925D01*
X213230590Y-133832962D01*
X212560370Y-134503181D01*
X212499047Y-134536666D01*
X212472698Y-134539500D01*
X212462134Y-134539500D01*
X212462123Y-134539501D01*
X212402516Y-134545908D01*
X212267671Y-134596202D01*
X212267664Y-134596206D01*
X212152455Y-134682452D01*
X212152452Y-134682455D01*
X212066206Y-134797664D01*
X212066202Y-134797671D01*
X212015908Y-134932517D01*
X212009501Y-134992116D01*
X212009501Y-134992123D01*
X212009500Y-134992135D01*
X212009500Y-136787870D01*
X212009501Y-136787876D01*
X212015908Y-136847483D01*
X212066202Y-136982328D01*
X212066206Y-136982335D01*
X212152452Y-137097544D01*
X212152455Y-137097547D01*
X212267664Y-137183793D01*
X212267671Y-137183797D01*
X212402517Y-137234091D01*
X212402516Y-137234091D01*
X212409444Y-137234835D01*
X212462127Y-137240500D01*
X214257872Y-137240499D01*
X214317483Y-137234091D01*
X214452331Y-137183796D01*
X214567546Y-137097546D01*
X214653796Y-136982331D01*
X214704091Y-136847483D01*
X214710500Y-136787873D01*
X214710499Y-134992128D01*
X214704091Y-134932517D01*
X214702040Y-134927019D01*
X214653797Y-134797671D01*
X214653793Y-134797664D01*
X214567547Y-134682455D01*
X214567544Y-134682452D01*
X214452335Y-134596206D01*
X214452328Y-134596202D01*
X214317482Y-134545908D01*
X214317483Y-134545908D01*
X214257883Y-134539501D01*
X214257881Y-134539500D01*
X214257873Y-134539500D01*
X214257865Y-134539500D01*
X214247309Y-134539500D01*
X214180270Y-134519815D01*
X214159628Y-134503181D01*
X213489408Y-133832962D01*
X213552993Y-133815925D01*
X213667007Y-133750099D01*
X213760099Y-133657007D01*
X213825925Y-133542993D01*
X213842962Y-133479408D01*
X214475270Y-134111717D01*
X214475270Y-134111716D01*
X214514622Y-134057554D01*
X214611095Y-133868217D01*
X214676757Y-133666130D01*
X214676757Y-133666127D01*
X214710000Y-133456246D01*
X214710000Y-133243753D01*
X214676757Y-133033872D01*
X214676757Y-133033869D01*
X214611095Y-132831782D01*
X214514624Y-132642449D01*
X214475270Y-132588282D01*
X214475269Y-132588282D01*
X213842962Y-133220590D01*
X213825925Y-133157007D01*
X213760099Y-133042993D01*
X213667007Y-132949901D01*
X213552993Y-132884075D01*
X213489409Y-132867037D01*
X214121716Y-132234728D01*
X214067547Y-132195373D01*
X214067547Y-132195372D01*
X214058500Y-132190763D01*
X214007706Y-132142788D01*
X213990912Y-132074966D01*
X214013451Y-132008832D01*
X214058508Y-131969793D01*
X214067816Y-131965051D01*
X214147007Y-131907515D01*
X214239786Y-131840109D01*
X214239788Y-131840106D01*
X214239792Y-131840104D01*
X214390104Y-131689792D01*
X214390106Y-131689788D01*
X214390109Y-131689786D01*
X214515048Y-131517820D01*
X214515047Y-131517820D01*
X214515051Y-131517816D01*
X214611557Y-131328412D01*
X214677246Y-131126243D01*
X214710500Y-130916287D01*
X214710500Y-130703713D01*
X214677246Y-130493757D01*
X214611557Y-130291588D01*
X214515051Y-130102184D01*
X214515049Y-130102181D01*
X214515048Y-130102179D01*
X214390109Y-129930213D01*
X214239786Y-129779890D01*
X214067820Y-129654951D01*
X214067115Y-129654591D01*
X214059054Y-129650485D01*
X214008259Y-129602512D01*
X213991463Y-129534692D01*
X214013999Y-129468556D01*
X214059054Y-129429515D01*
X214067816Y-129425051D01*
X214171409Y-129349787D01*
X214239786Y-129300109D01*
X214239788Y-129300106D01*
X214239792Y-129300104D01*
X214390104Y-129149792D01*
X214390106Y-129149788D01*
X214390109Y-129149786D01*
X214515048Y-128977820D01*
X214515047Y-128977820D01*
X214515051Y-128977816D01*
X214611557Y-128788412D01*
X214677246Y-128586243D01*
X214710500Y-128376287D01*
X214710500Y-128163713D01*
X214677246Y-127953757D01*
X214611557Y-127751588D01*
X214515051Y-127562184D01*
X214515049Y-127562181D01*
X214515048Y-127562179D01*
X214390109Y-127390213D01*
X214239786Y-127239890D01*
X214067820Y-127114951D01*
X214067115Y-127114591D01*
X214059054Y-127110485D01*
X214008259Y-127062512D01*
X213991463Y-126994692D01*
X214013999Y-126928556D01*
X214059054Y-126889515D01*
X214067816Y-126885051D01*
X214171409Y-126809787D01*
X214239786Y-126760109D01*
X214239788Y-126760106D01*
X214239792Y-126760104D01*
X214390104Y-126609792D01*
X214390106Y-126609788D01*
X214390109Y-126609786D01*
X214515048Y-126437820D01*
X214515047Y-126437820D01*
X214515051Y-126437816D01*
X214611557Y-126248412D01*
X214677246Y-126046243D01*
X214710500Y-125836287D01*
X214710500Y-125623713D01*
X214677246Y-125413757D01*
X214611557Y-125211588D01*
X214515051Y-125022184D01*
X214515049Y-125022181D01*
X214515048Y-125022179D01*
X214390109Y-124850213D01*
X214239786Y-124699890D01*
X214067820Y-124574951D01*
X214067115Y-124574591D01*
X214059054Y-124570485D01*
X214008259Y-124522512D01*
X213991463Y-124454692D01*
X214013999Y-124388556D01*
X214059054Y-124349515D01*
X214067816Y-124345051D01*
X214171409Y-124269787D01*
X214239786Y-124220109D01*
X214239788Y-124220106D01*
X214239792Y-124220104D01*
X214390104Y-124069792D01*
X214390106Y-124069788D01*
X214390109Y-124069786D01*
X214515048Y-123897820D01*
X214515047Y-123897820D01*
X214515051Y-123897816D01*
X214611557Y-123708412D01*
X214677246Y-123506243D01*
X214710500Y-123296287D01*
X214710500Y-123083713D01*
X214677246Y-122873757D01*
X214611557Y-122671588D01*
X214515051Y-122482184D01*
X214515049Y-122482181D01*
X214515048Y-122482179D01*
X214390109Y-122310213D01*
X214239786Y-122159890D01*
X214067820Y-122034951D01*
X214059600Y-122030763D01*
X214059054Y-122030485D01*
X214008259Y-121982512D01*
X213991463Y-121914692D01*
X214013999Y-121848556D01*
X214059054Y-121809515D01*
X214067816Y-121805051D01*
X214089789Y-121789086D01*
X214239786Y-121680109D01*
X214239788Y-121680106D01*
X214239792Y-121680104D01*
X214390104Y-121529792D01*
X214390106Y-121529788D01*
X214390109Y-121529786D01*
X214515048Y-121357820D01*
X214515047Y-121357820D01*
X214515051Y-121357816D01*
X214611557Y-121168412D01*
X214677246Y-120966243D01*
X214710500Y-120756287D01*
X214710500Y-120543713D01*
X214677246Y-120333757D01*
X214611557Y-120131588D01*
X214515051Y-119942184D01*
X214515049Y-119942181D01*
X214515048Y-119942179D01*
X214390109Y-119770213D01*
X214239786Y-119619890D01*
X214067820Y-119494951D01*
X214067115Y-119494591D01*
X214059054Y-119490485D01*
X214008259Y-119442512D01*
X213991463Y-119374692D01*
X214013999Y-119308556D01*
X214059054Y-119269515D01*
X214067816Y-119265051D01*
X214171409Y-119189787D01*
X214239786Y-119140109D01*
X214239788Y-119140106D01*
X214239792Y-119140104D01*
X214390104Y-118989792D01*
X214390106Y-118989788D01*
X214390109Y-118989786D01*
X214515048Y-118817820D01*
X214515047Y-118817820D01*
X214515051Y-118817816D01*
X214611557Y-118628412D01*
X214677246Y-118426243D01*
X214710500Y-118216287D01*
X214710500Y-118003713D01*
X214677246Y-117793757D01*
X214611557Y-117591588D01*
X214515051Y-117402184D01*
X214515049Y-117402181D01*
X214515048Y-117402179D01*
X214390109Y-117230213D01*
X214239786Y-117079890D01*
X214067817Y-116954949D01*
X214058504Y-116950204D01*
X214007707Y-116902230D01*
X213990912Y-116834409D01*
X214013449Y-116768274D01*
X214058507Y-116729232D01*
X214067555Y-116724622D01*
X214121716Y-116685270D01*
X214121717Y-116685270D01*
X213489408Y-116052962D01*
X213552993Y-116035925D01*
X213667007Y-115970099D01*
X213760099Y-115877007D01*
X213825925Y-115762993D01*
X213842962Y-115699408D01*
X214475270Y-116331717D01*
X214475270Y-116331716D01*
X214514622Y-116277554D01*
X214611095Y-116088217D01*
X214676757Y-115886130D01*
X214676757Y-115886127D01*
X214710000Y-115676246D01*
X214710000Y-115463753D01*
X214676757Y-115253872D01*
X214676757Y-115253869D01*
X214611095Y-115051782D01*
X214514624Y-114862449D01*
X214475270Y-114808282D01*
X214475269Y-114808282D01*
X213842962Y-115440590D01*
X213825925Y-115377007D01*
X213760099Y-115262993D01*
X213667007Y-115169901D01*
X213552993Y-115104075D01*
X213489409Y-115087037D01*
X214121716Y-114454728D01*
X214067547Y-114415373D01*
X214067547Y-114415372D01*
X214058500Y-114410763D01*
X214007706Y-114362788D01*
X213990912Y-114294966D01*
X214013451Y-114228832D01*
X214058508Y-114189793D01*
X214067816Y-114185051D01*
X214147007Y-114127515D01*
X214239786Y-114060109D01*
X214239788Y-114060106D01*
X214239792Y-114060104D01*
X214390104Y-113909792D01*
X214390106Y-113909788D01*
X214390109Y-113909786D01*
X214515048Y-113737820D01*
X214515047Y-113737820D01*
X214515051Y-113737816D01*
X214611557Y-113548412D01*
X214677246Y-113346243D01*
X214710500Y-113136287D01*
X214710500Y-112923713D01*
X214677246Y-112713757D01*
X214611557Y-112511588D01*
X214515051Y-112322184D01*
X214515049Y-112322181D01*
X214515048Y-112322179D01*
X214390109Y-112150213D01*
X214239786Y-111999890D01*
X214067820Y-111874951D01*
X214067115Y-111874591D01*
X214059054Y-111870485D01*
X214008259Y-111822512D01*
X213991463Y-111754692D01*
X214013999Y-111688556D01*
X214059054Y-111649515D01*
X214067816Y-111645051D01*
X214171409Y-111569787D01*
X214239786Y-111520109D01*
X214239788Y-111520106D01*
X214239792Y-111520104D01*
X214390104Y-111369792D01*
X214390106Y-111369788D01*
X214390109Y-111369786D01*
X214515048Y-111197820D01*
X214515047Y-111197820D01*
X214515051Y-111197816D01*
X214611557Y-111008412D01*
X214677246Y-110806243D01*
X214710500Y-110596287D01*
X214710500Y-110383713D01*
X214677246Y-110173757D01*
X214611557Y-109971588D01*
X214515051Y-109782184D01*
X214515049Y-109782181D01*
X214515048Y-109782179D01*
X214390109Y-109610213D01*
X214239786Y-109459890D01*
X214067820Y-109334951D01*
X214067115Y-109334591D01*
X214059054Y-109330485D01*
X214008259Y-109282512D01*
X213991463Y-109214692D01*
X214013999Y-109148556D01*
X214059054Y-109109515D01*
X214067816Y-109105051D01*
X214171409Y-109029787D01*
X214239786Y-108980109D01*
X214239788Y-108980106D01*
X214239792Y-108980104D01*
X214390104Y-108829792D01*
X214390106Y-108829788D01*
X214390109Y-108829786D01*
X214515048Y-108657820D01*
X214515047Y-108657820D01*
X214515051Y-108657816D01*
X214611557Y-108468412D01*
X214677246Y-108266243D01*
X214710500Y-108056287D01*
X214710500Y-107843713D01*
X214677246Y-107633757D01*
X214611557Y-107431588D01*
X214515051Y-107242184D01*
X214515049Y-107242181D01*
X214515048Y-107242179D01*
X214390109Y-107070213D01*
X214239786Y-106919890D01*
X214067820Y-106794951D01*
X214067115Y-106794591D01*
X214059054Y-106790485D01*
X214008259Y-106742512D01*
X213991463Y-106674692D01*
X214013999Y-106608556D01*
X214059054Y-106569515D01*
X214067816Y-106565051D01*
X214171409Y-106489787D01*
X214239786Y-106440109D01*
X214239788Y-106440106D01*
X214239792Y-106440104D01*
X214390104Y-106289792D01*
X214390106Y-106289788D01*
X214390109Y-106289786D01*
X214515048Y-106117820D01*
X214515047Y-106117820D01*
X214515051Y-106117816D01*
X214611557Y-105928412D01*
X214677246Y-105726243D01*
X214710500Y-105516287D01*
X214710500Y-105303713D01*
X214677246Y-105093757D01*
X214611557Y-104891588D01*
X214515051Y-104702184D01*
X214515049Y-104702181D01*
X214515048Y-104702179D01*
X214390109Y-104530213D01*
X214239786Y-104379890D01*
X214067820Y-104254951D01*
X214067115Y-104254591D01*
X214059054Y-104250485D01*
X214008259Y-104202512D01*
X213991463Y-104134692D01*
X214013999Y-104068556D01*
X214059054Y-104029515D01*
X214067816Y-104025051D01*
X214171409Y-103949787D01*
X214239786Y-103900109D01*
X214239788Y-103900106D01*
X214239792Y-103900104D01*
X214390104Y-103749792D01*
X214390106Y-103749788D01*
X214390109Y-103749786D01*
X214515048Y-103577820D01*
X214515047Y-103577820D01*
X214515051Y-103577816D01*
X214611557Y-103388412D01*
X214677246Y-103186243D01*
X214710500Y-102976287D01*
X214710500Y-102763713D01*
X214677246Y-102553757D01*
X214611557Y-102351588D01*
X214515051Y-102162184D01*
X214515049Y-102162181D01*
X214515048Y-102162179D01*
X214390109Y-101990213D01*
X214239786Y-101839890D01*
X214067820Y-101714951D01*
X214067115Y-101714591D01*
X214059054Y-101710485D01*
X214008259Y-101662512D01*
X213991463Y-101594692D01*
X214013999Y-101528556D01*
X214059054Y-101489515D01*
X214067816Y-101485051D01*
X214171409Y-101409787D01*
X214239786Y-101360109D01*
X214239788Y-101360106D01*
X214239792Y-101360104D01*
X214390104Y-101209792D01*
X214390106Y-101209788D01*
X214390109Y-101209786D01*
X214515048Y-101037820D01*
X214515047Y-101037820D01*
X214515051Y-101037816D01*
X214611557Y-100848412D01*
X214677246Y-100646243D01*
X214710500Y-100436287D01*
X214710500Y-100223713D01*
X214677246Y-100013757D01*
X214611557Y-99811588D01*
X214515051Y-99622184D01*
X214515049Y-99622181D01*
X214515048Y-99622179D01*
X214390109Y-99450213D01*
X214239786Y-99299890D01*
X214067820Y-99174951D01*
X213878414Y-99078444D01*
X213878413Y-99078443D01*
X213878412Y-99078443D01*
X213676243Y-99012754D01*
X213676241Y-99012753D01*
X213676240Y-99012753D01*
X213514957Y-98987208D01*
X213466287Y-98979500D01*
X213253713Y-98979500D01*
X213205042Y-98987208D01*
X213043760Y-99012753D01*
X212841585Y-99078444D01*
X212652179Y-99174951D01*
X212480213Y-99299890D01*
X212329890Y-99450213D01*
X212204951Y-99622179D01*
X212108444Y-99811585D01*
X212108443Y-99811587D01*
X212108443Y-99811588D01*
X212097467Y-99845368D01*
X212042753Y-100013760D01*
X212039490Y-100034362D01*
X212009500Y-100223713D01*
X208271403Y-100223713D01*
X208241413Y-100034364D01*
X208180005Y-99845368D01*
X208180005Y-99845367D01*
X208089786Y-99668305D01*
X208056277Y-99622184D01*
X207972981Y-99507536D01*
X207832464Y-99367019D01*
X207671694Y-99250213D01*
X207494632Y-99159994D01*
X207494629Y-99159993D01*
X207305637Y-99098587D01*
X207178452Y-99078443D01*
X207109361Y-99067500D01*
X206910639Y-99067500D01*
X206845214Y-99077862D01*
X206714362Y-99098587D01*
X206525370Y-99159993D01*
X206525367Y-99159994D01*
X206348305Y-99250213D01*
X206187533Y-99367021D01*
X206047021Y-99507533D01*
X205930213Y-99668305D01*
X205839994Y-99845367D01*
X205839993Y-99845370D01*
X205778587Y-100034362D01*
X205747500Y-100230639D01*
X180332500Y-100230639D01*
X180301413Y-100034364D01*
X180240005Y-99845368D01*
X180240005Y-99845367D01*
X180149786Y-99668305D01*
X180116277Y-99622184D01*
X180032981Y-99507536D01*
X179892464Y-99367019D01*
X179731694Y-99250213D01*
X179554632Y-99159994D01*
X179554629Y-99159993D01*
X179365637Y-99098587D01*
X179238452Y-99078443D01*
X179169361Y-99067500D01*
X178970639Y-99067500D01*
X178905214Y-99077862D01*
X178774362Y-99098587D01*
X178585370Y-99159993D01*
X178585367Y-99159994D01*
X178408305Y-99250213D01*
X178247533Y-99367021D01*
X178107021Y-99507533D01*
X177990213Y-99668305D01*
X177899994Y-99845367D01*
X177899993Y-99845370D01*
X177838587Y-100034362D01*
X177807500Y-100230639D01*
X174070500Y-100230639D01*
X174070500Y-100223713D01*
X174037246Y-100013757D01*
X173971557Y-99811588D01*
X173875051Y-99622184D01*
X173875049Y-99622181D01*
X173875048Y-99622179D01*
X173750109Y-99450213D01*
X173599786Y-99299890D01*
X173427820Y-99174951D01*
X173238414Y-99078444D01*
X173238413Y-99078443D01*
X173238412Y-99078443D01*
X173036243Y-99012754D01*
X173036241Y-99012753D01*
X173036240Y-99012753D01*
X172874957Y-98987208D01*
X172826287Y-98979500D01*
X172613713Y-98979500D01*
X172565042Y-98987208D01*
X172403760Y-99012753D01*
X172201585Y-99078444D01*
X172012179Y-99174951D01*
X171840213Y-99299890D01*
X171689890Y-99450213D01*
X171564951Y-99622179D01*
X171468444Y-99811585D01*
X171468443Y-99811587D01*
X171468443Y-99811588D01*
X171457467Y-99845368D01*
X171402753Y-100013760D01*
X171399490Y-100034362D01*
X171369500Y-100223713D01*
X135000000Y-100223713D01*
X135000000Y-93878711D01*
X214149500Y-93878711D01*
X214149500Y-94121288D01*
X214181161Y-94361785D01*
X214243947Y-94596104D01*
X214336773Y-94820205D01*
X214336776Y-94820212D01*
X214458064Y-95030289D01*
X214458066Y-95030292D01*
X214458067Y-95030293D01*
X214605733Y-95222736D01*
X214605739Y-95222743D01*
X214777256Y-95394260D01*
X214777262Y-95394265D01*
X214969711Y-95541936D01*
X215179788Y-95663224D01*
X215403900Y-95756054D01*
X215638211Y-95818838D01*
X215818586Y-95842584D01*
X215878711Y-95850500D01*
X215878712Y-95850500D01*
X216121289Y-95850500D01*
X216169388Y-95844167D01*
X216361789Y-95818838D01*
X216596100Y-95756054D01*
X216820212Y-95663224D01*
X217030289Y-95541936D01*
X217222738Y-95394265D01*
X217394265Y-95222738D01*
X217541936Y-95030289D01*
X217663224Y-94820212D01*
X217756054Y-94596100D01*
X217818838Y-94361789D01*
X217850500Y-94121288D01*
X217850500Y-93878712D01*
X217818838Y-93638211D01*
X217756054Y-93403900D01*
X217663224Y-93179788D01*
X217541936Y-92969711D01*
X217394265Y-92777262D01*
X217394260Y-92777256D01*
X217222743Y-92605739D01*
X217222736Y-92605733D01*
X217030293Y-92458067D01*
X217030292Y-92458066D01*
X217030289Y-92458064D01*
X216820212Y-92336776D01*
X216820205Y-92336773D01*
X216596104Y-92243947D01*
X216361785Y-92181161D01*
X216121289Y-92149500D01*
X216121288Y-92149500D01*
X215878712Y-92149500D01*
X215878711Y-92149500D01*
X215638214Y-92181161D01*
X215403895Y-92243947D01*
X215179794Y-92336773D01*
X215179785Y-92336777D01*
X214969706Y-92458067D01*
X214777263Y-92605733D01*
X214777256Y-92605739D01*
X214605739Y-92777256D01*
X214605733Y-92777263D01*
X214458067Y-92969706D01*
X214336777Y-93179785D01*
X214336773Y-93179794D01*
X214243947Y-93403895D01*
X214181161Y-93638214D01*
X214149500Y-93878711D01*
X135000000Y-93878711D01*
X135000000Y-90624500D01*
X135019685Y-90557461D01*
X135072489Y-90511706D01*
X135124000Y-90500500D01*
X219375500Y-90500500D01*
X219442539Y-90520185D01*
G37*
%TD.AperFunction*%
%TD*%
M02*
