%TF.GenerationSoftware,KiCad,Pcbnew,10.0.3*%
%TF.CreationDate,2026-06-06T17:53:42+05:30*%
%TF.ProjectId,MOTOR,4d4f544f-522e-46b6-9963-61645f706362,rev?*%
%TF.SameCoordinates,Original*%
%TF.FileFunction,Soldermask,Top*%
%TF.FilePolarity,Negative*%
%FSLAX46Y46*%
G04 Gerber Fmt 4.6, Leading zero omitted, Abs format (unit mm)*
G04 Created by KiCad (PCBNEW 10.0.3) date 2026-06-06 17:53:42*
%MOMM*%
%LPD*%
G01*
G04 APERTURE LIST*
G04 Aperture macros list*
%AMRoundRect*
0 Rectangle with rounded corners*
0 $1 Rounding radius*
0 $2 $3 $4 $5 $6 $7 $8 $9 X,Y pos of 4 corners*
0 Add a 4 corners polygon primitive as box body*
4,1,4,$2,$3,$4,$5,$6,$7,$8,$9,$2,$3,0*
0 Add four circle primitives for the rounded corners*
1,1,$1+$1,$2,$3*
1,1,$1+$1,$4,$5*
1,1,$1+$1,$6,$7*
1,1,$1+$1,$8,$9*
0 Add four rect primitives between the rounded corners*
20,1,$1+$1,$2,$3,$4,$5,0*
20,1,$1+$1,$4,$5,$6,$7,0*
20,1,$1+$1,$6,$7,$8,$9,0*
20,1,$1+$1,$8,$9,$2,$3,0*%
G04 Aperture macros list end*
%ADD10R,1.700000X1.700000*%
%ADD11C,1.700000*%
%ADD12RoundRect,0.250000X-0.750000X-0.900000X0.750000X-0.900000X0.750000X0.900000X-0.750000X0.900000X0*%
%ADD13O,2.000000X2.300000*%
%ADD14C,3.200000*%
%ADD15RoundRect,0.250001X1.149999X-1.149999X1.149999X1.149999X-1.149999X1.149999X-1.149999X-1.149999X0*%
%ADD16C,2.800000*%
%ADD17C,1.524000*%
G04 APERTURE END LIST*
D10*
%TO.C,J2*%
X165100000Y-127000000D03*
D11*
X165100000Y-124460000D03*
X165100000Y-121920000D03*
X165100000Y-119380000D03*
X165100000Y-116840000D03*
X165100000Y-114300000D03*
X165100000Y-111760000D03*
X165100000Y-109220000D03*
%TD*%
D12*
%TO.C,PS1*%
X112252500Y-114450000D03*
D13*
X112252500Y-122250000D03*
X154752500Y-107050000D03*
X154752500Y-129650000D03*
%TD*%
D10*
%TO.C,J4*%
X172720000Y-135890000D03*
D11*
X172720000Y-133350000D03*
X172720000Y-130810000D03*
X172720000Y-128270000D03*
X172720000Y-125730000D03*
X172720000Y-123190000D03*
X172720000Y-120650000D03*
X172720000Y-118110000D03*
X172720000Y-115570000D03*
X172720000Y-113030000D03*
X172720000Y-110490000D03*
X172720000Y-107950000D03*
X172720000Y-105410000D03*
X172720000Y-102870000D03*
X172720000Y-100330000D03*
%TD*%
D14*
%TO.C,H4*%
X93000000Y-142000000D03*
%TD*%
D10*
%TO.C,J3*%
X213360000Y-135890000D03*
D11*
X213360000Y-133350000D03*
X213360000Y-130810000D03*
X213360000Y-128270000D03*
X213360000Y-125730000D03*
X213360000Y-123190000D03*
X213360000Y-120650000D03*
X213360000Y-118110000D03*
X213360000Y-115570000D03*
X213360000Y-113030000D03*
X213360000Y-110490000D03*
X213360000Y-107950000D03*
X213360000Y-105410000D03*
X213360000Y-102870000D03*
X213360000Y-100330000D03*
%TD*%
D14*
%TO.C,H1*%
X93000000Y-94000000D03*
%TD*%
%TO.C,H2*%
X216000000Y-94000000D03*
%TD*%
%TO.C,H3*%
X216000000Y-142000000D03*
%TD*%
D15*
%TO.C,J1*%
X96420000Y-119620000D03*
D16*
X96420000Y-114620000D03*
%TD*%
D17*
%TO.C,U1*%
X179070000Y-100330000D03*
X179070000Y-102870000D03*
X179070000Y-105410000D03*
X179070000Y-107950000D03*
X179070000Y-110490000D03*
X179070000Y-113030000D03*
X179070000Y-115570000D03*
X179070000Y-118110000D03*
X179070000Y-120650000D03*
X179070000Y-123190000D03*
X179070000Y-125730000D03*
X179070000Y-128270000D03*
X179070000Y-130810000D03*
X179070000Y-133350000D03*
X179070000Y-135890000D03*
X207010000Y-135890000D03*
X207010000Y-133350000D03*
X207010000Y-130810000D03*
X207010000Y-128270000D03*
X207010000Y-125730000D03*
X207010000Y-123190000D03*
X207010000Y-120650000D03*
X207010000Y-118110000D03*
X207010000Y-115570000D03*
X207010000Y-113030000D03*
X207010000Y-110490000D03*
X207010000Y-107950000D03*
X207010000Y-105410000D03*
X207010000Y-102870000D03*
X207010000Y-100330000D03*
%TD*%
M02*
