%TF.GenerationSoftware,KiCad,Pcbnew,10.0.3*%
%TF.CreationDate,2026-06-06T17:53:41+05:30*%
%TF.ProjectId,MOTOR,4d4f544f-522e-46b6-9963-61645f706362,rev?*%
%TF.SameCoordinates,Original*%
%TF.FileFunction,Legend,Top*%
%TF.FilePolarity,Positive*%
%FSLAX46Y46*%
G04 Gerber Fmt 4.6, Leading zero omitted, Abs format (unit mm)*
G04 Created by KiCad (PCBNEW 10.0.3) date 2026-06-06 17:53:41*
%MOMM*%
%LPD*%
G01*
G04 APERTURE LIST*
%ADD10C,0.100000*%
%ADD11C,0.150000*%
%ADD12C,0.120000*%
%ADD13C,1.524000*%
G04 APERTURE END LIST*
D10*
X95875312Y-137777180D02*
X95827693Y-137824800D01*
X95827693Y-137824800D02*
X95684836Y-137872419D01*
X95684836Y-137872419D02*
X95589598Y-137872419D01*
X95589598Y-137872419D02*
X95446741Y-137824800D01*
X95446741Y-137824800D02*
X95351503Y-137729561D01*
X95351503Y-137729561D02*
X95303884Y-137634323D01*
X95303884Y-137634323D02*
X95256265Y-137443847D01*
X95256265Y-137443847D02*
X95256265Y-137300990D01*
X95256265Y-137300990D02*
X95303884Y-137110514D01*
X95303884Y-137110514D02*
X95351503Y-137015276D01*
X95351503Y-137015276D02*
X95446741Y-136920038D01*
X95446741Y-136920038D02*
X95589598Y-136872419D01*
X95589598Y-136872419D02*
X95684836Y-136872419D01*
X95684836Y-136872419D02*
X95827693Y-136920038D01*
X95827693Y-136920038D02*
X95875312Y-136967657D01*
X96256265Y-137586704D02*
X96732455Y-137586704D01*
X96161027Y-137872419D02*
X96494360Y-136872419D01*
X96494360Y-136872419D02*
X96827693Y-137872419D01*
X97161027Y-136872419D02*
X97161027Y-137681942D01*
X97161027Y-137681942D02*
X97208646Y-137777180D01*
X97208646Y-137777180D02*
X97256265Y-137824800D01*
X97256265Y-137824800D02*
X97351503Y-137872419D01*
X97351503Y-137872419D02*
X97541979Y-137872419D01*
X97541979Y-137872419D02*
X97637217Y-137824800D01*
X97637217Y-137824800D02*
X97684836Y-137777180D01*
X97684836Y-137777180D02*
X97732455Y-137681942D01*
X97732455Y-137681942D02*
X97732455Y-136872419D01*
X98065789Y-136872419D02*
X98637217Y-136872419D01*
X98351503Y-137872419D02*
X98351503Y-136872419D01*
X98970551Y-137872419D02*
X98970551Y-136872419D01*
X99637217Y-136872419D02*
X99827693Y-136872419D01*
X99827693Y-136872419D02*
X99922931Y-136920038D01*
X99922931Y-136920038D02*
X100018169Y-137015276D01*
X100018169Y-137015276D02*
X100065788Y-137205752D01*
X100065788Y-137205752D02*
X100065788Y-137539085D01*
X100065788Y-137539085D02*
X100018169Y-137729561D01*
X100018169Y-137729561D02*
X99922931Y-137824800D01*
X99922931Y-137824800D02*
X99827693Y-137872419D01*
X99827693Y-137872419D02*
X99637217Y-137872419D01*
X99637217Y-137872419D02*
X99541979Y-137824800D01*
X99541979Y-137824800D02*
X99446741Y-137729561D01*
X99446741Y-137729561D02*
X99399122Y-137539085D01*
X99399122Y-137539085D02*
X99399122Y-137205752D01*
X99399122Y-137205752D02*
X99446741Y-137015276D01*
X99446741Y-137015276D02*
X99541979Y-136920038D01*
X99541979Y-136920038D02*
X99637217Y-136872419D01*
X100494360Y-137872419D02*
X100494360Y-136872419D01*
X100494360Y-136872419D02*
X101065788Y-137872419D01*
X101065788Y-137872419D02*
X101065788Y-136872419D01*
X101541979Y-137777180D02*
X101589598Y-137824800D01*
X101589598Y-137824800D02*
X101541979Y-137872419D01*
X101541979Y-137872419D02*
X101494360Y-137824800D01*
X101494360Y-137824800D02*
X101541979Y-137777180D01*
X101541979Y-137777180D02*
X101541979Y-137872419D01*
X101541979Y-137253371D02*
X101589598Y-137300990D01*
X101589598Y-137300990D02*
X101541979Y-137348609D01*
X101541979Y-137348609D02*
X101494360Y-137300990D01*
X101494360Y-137300990D02*
X101541979Y-137253371D01*
X101541979Y-137253371D02*
X101541979Y-137348609D01*
X102732455Y-137824800D02*
X102875312Y-137872419D01*
X102875312Y-137872419D02*
X103113407Y-137872419D01*
X103113407Y-137872419D02*
X103208645Y-137824800D01*
X103208645Y-137824800D02*
X103256264Y-137777180D01*
X103256264Y-137777180D02*
X103303883Y-137681942D01*
X103303883Y-137681942D02*
X103303883Y-137586704D01*
X103303883Y-137586704D02*
X103256264Y-137491466D01*
X103256264Y-137491466D02*
X103208645Y-137443847D01*
X103208645Y-137443847D02*
X103113407Y-137396228D01*
X103113407Y-137396228D02*
X102922931Y-137348609D01*
X102922931Y-137348609D02*
X102827693Y-137300990D01*
X102827693Y-137300990D02*
X102780074Y-137253371D01*
X102780074Y-137253371D02*
X102732455Y-137158133D01*
X102732455Y-137158133D02*
X102732455Y-137062895D01*
X102732455Y-137062895D02*
X102780074Y-136967657D01*
X102780074Y-136967657D02*
X102827693Y-136920038D01*
X102827693Y-136920038D02*
X102922931Y-136872419D01*
X102922931Y-136872419D02*
X103161026Y-136872419D01*
X103161026Y-136872419D02*
X103303883Y-136920038D01*
X103732455Y-137872419D02*
X103732455Y-136872419D01*
X103732455Y-137348609D02*
X104303883Y-137348609D01*
X104303883Y-137872419D02*
X104303883Y-136872419D01*
X104970550Y-136872419D02*
X105161026Y-136872419D01*
X105161026Y-136872419D02*
X105256264Y-136920038D01*
X105256264Y-136920038D02*
X105351502Y-137015276D01*
X105351502Y-137015276D02*
X105399121Y-137205752D01*
X105399121Y-137205752D02*
X105399121Y-137539085D01*
X105399121Y-137539085D02*
X105351502Y-137729561D01*
X105351502Y-137729561D02*
X105256264Y-137824800D01*
X105256264Y-137824800D02*
X105161026Y-137872419D01*
X105161026Y-137872419D02*
X104970550Y-137872419D01*
X104970550Y-137872419D02*
X104875312Y-137824800D01*
X104875312Y-137824800D02*
X104780074Y-137729561D01*
X104780074Y-137729561D02*
X104732455Y-137539085D01*
X104732455Y-137539085D02*
X104732455Y-137205752D01*
X104732455Y-137205752D02*
X104780074Y-137015276D01*
X104780074Y-137015276D02*
X104875312Y-136920038D01*
X104875312Y-136920038D02*
X104970550Y-136872419D01*
X106399121Y-137777180D02*
X106351502Y-137824800D01*
X106351502Y-137824800D02*
X106208645Y-137872419D01*
X106208645Y-137872419D02*
X106113407Y-137872419D01*
X106113407Y-137872419D02*
X105970550Y-137824800D01*
X105970550Y-137824800D02*
X105875312Y-137729561D01*
X105875312Y-137729561D02*
X105827693Y-137634323D01*
X105827693Y-137634323D02*
X105780074Y-137443847D01*
X105780074Y-137443847D02*
X105780074Y-137300990D01*
X105780074Y-137300990D02*
X105827693Y-137110514D01*
X105827693Y-137110514D02*
X105875312Y-137015276D01*
X105875312Y-137015276D02*
X105970550Y-136920038D01*
X105970550Y-136920038D02*
X106113407Y-136872419D01*
X106113407Y-136872419D02*
X106208645Y-136872419D01*
X106208645Y-136872419D02*
X106351502Y-136920038D01*
X106351502Y-136920038D02*
X106399121Y-136967657D01*
X106827693Y-137872419D02*
X106827693Y-136872419D01*
X107399121Y-137872419D02*
X106970550Y-137300990D01*
X107399121Y-136872419D02*
X106827693Y-137443847D01*
X108589598Y-137872419D02*
X108589598Y-136872419D01*
X108589598Y-137348609D02*
X109161026Y-137348609D01*
X109161026Y-137872419D02*
X109161026Y-136872419D01*
X109589598Y-137586704D02*
X110065788Y-137586704D01*
X109494360Y-137872419D02*
X109827693Y-136872419D01*
X109827693Y-136872419D02*
X110161026Y-137872419D01*
X110399122Y-136872419D02*
X111065788Y-136872419D01*
X111065788Y-136872419D02*
X110399122Y-137872419D01*
X110399122Y-137872419D02*
X111065788Y-137872419D01*
X111399122Y-137586704D02*
X111875312Y-137586704D01*
X111303884Y-137872419D02*
X111637217Y-136872419D01*
X111637217Y-136872419D02*
X111970550Y-137872419D01*
X112875312Y-137872419D02*
X112541979Y-137396228D01*
X112303884Y-137872419D02*
X112303884Y-136872419D01*
X112303884Y-136872419D02*
X112684836Y-136872419D01*
X112684836Y-136872419D02*
X112780074Y-136920038D01*
X112780074Y-136920038D02*
X112827693Y-136967657D01*
X112827693Y-136967657D02*
X112875312Y-137062895D01*
X112875312Y-137062895D02*
X112875312Y-137205752D01*
X112875312Y-137205752D02*
X112827693Y-137300990D01*
X112827693Y-137300990D02*
X112780074Y-137348609D01*
X112780074Y-137348609D02*
X112684836Y-137396228D01*
X112684836Y-137396228D02*
X112303884Y-137396228D01*
X113303884Y-137872419D02*
X113303884Y-136872419D01*
X113303884Y-136872419D02*
X113541979Y-136872419D01*
X113541979Y-136872419D02*
X113684836Y-136920038D01*
X113684836Y-136920038D02*
X113780074Y-137015276D01*
X113780074Y-137015276D02*
X113827693Y-137110514D01*
X113827693Y-137110514D02*
X113875312Y-137300990D01*
X113875312Y-137300990D02*
X113875312Y-137443847D01*
X113875312Y-137443847D02*
X113827693Y-137634323D01*
X113827693Y-137634323D02*
X113780074Y-137729561D01*
X113780074Y-137729561D02*
X113684836Y-137824800D01*
X113684836Y-137824800D02*
X113541979Y-137872419D01*
X113541979Y-137872419D02*
X113303884Y-137872419D01*
X101303884Y-124872419D02*
X101303884Y-123872419D01*
X101303884Y-123872419D02*
X101875312Y-124872419D01*
X101875312Y-124872419D02*
X101875312Y-123872419D01*
X102351503Y-124348609D02*
X102684836Y-124348609D01*
X102827693Y-124872419D02*
X102351503Y-124872419D01*
X102351503Y-124872419D02*
X102351503Y-123872419D01*
X102351503Y-123872419D02*
X102827693Y-123872419D01*
X103256265Y-123872419D02*
X103256265Y-124681942D01*
X103256265Y-124681942D02*
X103303884Y-124777180D01*
X103303884Y-124777180D02*
X103351503Y-124824800D01*
X103351503Y-124824800D02*
X103446741Y-124872419D01*
X103446741Y-124872419D02*
X103637217Y-124872419D01*
X103637217Y-124872419D02*
X103732455Y-124824800D01*
X103732455Y-124824800D02*
X103780074Y-124777180D01*
X103780074Y-124777180D02*
X103827693Y-124681942D01*
X103827693Y-124681942D02*
X103827693Y-123872419D01*
X104161027Y-123872419D02*
X104732455Y-123872419D01*
X104446741Y-124872419D02*
X104446741Y-123872419D01*
X105637217Y-124872419D02*
X105303884Y-124396228D01*
X105065789Y-124872419D02*
X105065789Y-123872419D01*
X105065789Y-123872419D02*
X105446741Y-123872419D01*
X105446741Y-123872419D02*
X105541979Y-123920038D01*
X105541979Y-123920038D02*
X105589598Y-123967657D01*
X105589598Y-123967657D02*
X105637217Y-124062895D01*
X105637217Y-124062895D02*
X105637217Y-124205752D01*
X105637217Y-124205752D02*
X105589598Y-124300990D01*
X105589598Y-124300990D02*
X105541979Y-124348609D01*
X105541979Y-124348609D02*
X105446741Y-124396228D01*
X105446741Y-124396228D02*
X105065789Y-124396228D01*
X106018170Y-124586704D02*
X106494360Y-124586704D01*
X105922932Y-124872419D02*
X106256265Y-123872419D01*
X106256265Y-123872419D02*
X106589598Y-124872419D01*
X107399122Y-124872419D02*
X106922932Y-124872419D01*
X106922932Y-124872419D02*
X106922932Y-123872419D01*
X103780074Y-105872419D02*
X103303884Y-105872419D01*
X103303884Y-105872419D02*
X103303884Y-104872419D01*
X104113408Y-105872419D02*
X104113408Y-104872419D01*
X104589598Y-105872419D02*
X104589598Y-104872419D01*
X104589598Y-104872419D02*
X105161026Y-105872419D01*
X105161026Y-105872419D02*
X105161026Y-104872419D01*
X105637217Y-105348609D02*
X105970550Y-105348609D01*
X106113407Y-105872419D02*
X105637217Y-105872419D01*
X105637217Y-105872419D02*
X105637217Y-104872419D01*
X105637217Y-104872419D02*
X106113407Y-104872419D01*
X160827693Y-111920038D02*
X160732455Y-111872419D01*
X160732455Y-111872419D02*
X160589598Y-111872419D01*
X160589598Y-111872419D02*
X160446741Y-111920038D01*
X160446741Y-111920038D02*
X160351503Y-112015276D01*
X160351503Y-112015276D02*
X160303884Y-112110514D01*
X160303884Y-112110514D02*
X160256265Y-112300990D01*
X160256265Y-112300990D02*
X160256265Y-112443847D01*
X160256265Y-112443847D02*
X160303884Y-112634323D01*
X160303884Y-112634323D02*
X160351503Y-112729561D01*
X160351503Y-112729561D02*
X160446741Y-112824800D01*
X160446741Y-112824800D02*
X160589598Y-112872419D01*
X160589598Y-112872419D02*
X160684836Y-112872419D01*
X160684836Y-112872419D02*
X160827693Y-112824800D01*
X160827693Y-112824800D02*
X160875312Y-112777180D01*
X160875312Y-112777180D02*
X160875312Y-112443847D01*
X160875312Y-112443847D02*
X160684836Y-112443847D01*
X161303884Y-112872419D02*
X161303884Y-111872419D01*
X161303884Y-111872419D02*
X161875312Y-112872419D01*
X161875312Y-112872419D02*
X161875312Y-111872419D01*
X162351503Y-112872419D02*
X162351503Y-111872419D01*
X162351503Y-111872419D02*
X162589598Y-111872419D01*
X162589598Y-111872419D02*
X162732455Y-111920038D01*
X162732455Y-111920038D02*
X162827693Y-112015276D01*
X162827693Y-112015276D02*
X162875312Y-112110514D01*
X162875312Y-112110514D02*
X162922931Y-112300990D01*
X162922931Y-112300990D02*
X162922931Y-112443847D01*
X162922931Y-112443847D02*
X162875312Y-112634323D01*
X162875312Y-112634323D02*
X162827693Y-112729561D01*
X162827693Y-112729561D02*
X162732455Y-112824800D01*
X162732455Y-112824800D02*
X162589598Y-112872419D01*
X162589598Y-112872419D02*
X162351503Y-112872419D01*
X160303884Y-123491466D02*
X161065789Y-123491466D01*
X160684836Y-123872419D02*
X160684836Y-123110514D01*
X162018169Y-122872419D02*
X161541979Y-122872419D01*
X161541979Y-122872419D02*
X161494360Y-123348609D01*
X161494360Y-123348609D02*
X161541979Y-123300990D01*
X161541979Y-123300990D02*
X161637217Y-123253371D01*
X161637217Y-123253371D02*
X161875312Y-123253371D01*
X161875312Y-123253371D02*
X161970550Y-123300990D01*
X161970550Y-123300990D02*
X162018169Y-123348609D01*
X162018169Y-123348609D02*
X162065788Y-123443847D01*
X162065788Y-123443847D02*
X162065788Y-123681942D01*
X162065788Y-123681942D02*
X162018169Y-123777180D01*
X162018169Y-123777180D02*
X161970550Y-123824800D01*
X161970550Y-123824800D02*
X161875312Y-123872419D01*
X161875312Y-123872419D02*
X161637217Y-123872419D01*
X161637217Y-123872419D02*
X161541979Y-123824800D01*
X161541979Y-123824800D02*
X161494360Y-123777180D01*
X162351503Y-122872419D02*
X162684836Y-123872419D01*
X162684836Y-123872419D02*
X163018169Y-122872419D01*
X186303884Y-118872419D02*
X186303884Y-117872419D01*
X186303884Y-117872419D02*
X186875312Y-118872419D01*
X186875312Y-118872419D02*
X186875312Y-117872419D01*
X187494360Y-118872419D02*
X187399122Y-118824800D01*
X187399122Y-118824800D02*
X187351503Y-118777180D01*
X187351503Y-118777180D02*
X187303884Y-118681942D01*
X187303884Y-118681942D02*
X187303884Y-118396228D01*
X187303884Y-118396228D02*
X187351503Y-118300990D01*
X187351503Y-118300990D02*
X187399122Y-118253371D01*
X187399122Y-118253371D02*
X187494360Y-118205752D01*
X187494360Y-118205752D02*
X187637217Y-118205752D01*
X187637217Y-118205752D02*
X187732455Y-118253371D01*
X187732455Y-118253371D02*
X187780074Y-118300990D01*
X187780074Y-118300990D02*
X187827693Y-118396228D01*
X187827693Y-118396228D02*
X187827693Y-118681942D01*
X187827693Y-118681942D02*
X187780074Y-118777180D01*
X187780074Y-118777180D02*
X187732455Y-118824800D01*
X187732455Y-118824800D02*
X187637217Y-118872419D01*
X187637217Y-118872419D02*
X187494360Y-118872419D01*
X188684836Y-118872419D02*
X188684836Y-117872419D01*
X188684836Y-118824800D02*
X188589598Y-118872419D01*
X188589598Y-118872419D02*
X188399122Y-118872419D01*
X188399122Y-118872419D02*
X188303884Y-118824800D01*
X188303884Y-118824800D02*
X188256265Y-118777180D01*
X188256265Y-118777180D02*
X188208646Y-118681942D01*
X188208646Y-118681942D02*
X188208646Y-118396228D01*
X188208646Y-118396228D02*
X188256265Y-118300990D01*
X188256265Y-118300990D02*
X188303884Y-118253371D01*
X188303884Y-118253371D02*
X188399122Y-118205752D01*
X188399122Y-118205752D02*
X188589598Y-118205752D01*
X188589598Y-118205752D02*
X188684836Y-118253371D01*
X189541979Y-118824800D02*
X189446741Y-118872419D01*
X189446741Y-118872419D02*
X189256265Y-118872419D01*
X189256265Y-118872419D02*
X189161027Y-118824800D01*
X189161027Y-118824800D02*
X189113408Y-118729561D01*
X189113408Y-118729561D02*
X189113408Y-118348609D01*
X189113408Y-118348609D02*
X189161027Y-118253371D01*
X189161027Y-118253371D02*
X189256265Y-118205752D01*
X189256265Y-118205752D02*
X189446741Y-118205752D01*
X189446741Y-118205752D02*
X189541979Y-118253371D01*
X189541979Y-118253371D02*
X189589598Y-118348609D01*
X189589598Y-118348609D02*
X189589598Y-118443847D01*
X189589598Y-118443847D02*
X189113408Y-118539085D01*
X190780075Y-118872419D02*
X190780075Y-117872419D01*
X190780075Y-117872419D02*
X191113408Y-118586704D01*
X191113408Y-118586704D02*
X191446741Y-117872419D01*
X191446741Y-117872419D02*
X191446741Y-118872419D01*
X192494360Y-118777180D02*
X192446741Y-118824800D01*
X192446741Y-118824800D02*
X192303884Y-118872419D01*
X192303884Y-118872419D02*
X192208646Y-118872419D01*
X192208646Y-118872419D02*
X192065789Y-118824800D01*
X192065789Y-118824800D02*
X191970551Y-118729561D01*
X191970551Y-118729561D02*
X191922932Y-118634323D01*
X191922932Y-118634323D02*
X191875313Y-118443847D01*
X191875313Y-118443847D02*
X191875313Y-118300990D01*
X191875313Y-118300990D02*
X191922932Y-118110514D01*
X191922932Y-118110514D02*
X191970551Y-118015276D01*
X191970551Y-118015276D02*
X192065789Y-117920038D01*
X192065789Y-117920038D02*
X192208646Y-117872419D01*
X192208646Y-117872419D02*
X192303884Y-117872419D01*
X192303884Y-117872419D02*
X192446741Y-117920038D01*
X192446741Y-117920038D02*
X192494360Y-117967657D01*
X192922932Y-117872419D02*
X192922932Y-118681942D01*
X192922932Y-118681942D02*
X192970551Y-118777180D01*
X192970551Y-118777180D02*
X193018170Y-118824800D01*
X193018170Y-118824800D02*
X193113408Y-118872419D01*
X193113408Y-118872419D02*
X193303884Y-118872419D01*
X193303884Y-118872419D02*
X193399122Y-118824800D01*
X193399122Y-118824800D02*
X193446741Y-118777180D01*
X193446741Y-118777180D02*
X193494360Y-118681942D01*
X193494360Y-118681942D02*
X193494360Y-117872419D01*
X195018170Y-119253371D02*
X194970551Y-119205752D01*
X194970551Y-119205752D02*
X194875313Y-119062895D01*
X194875313Y-119062895D02*
X194827694Y-118967657D01*
X194827694Y-118967657D02*
X194780075Y-118824800D01*
X194780075Y-118824800D02*
X194732456Y-118586704D01*
X194732456Y-118586704D02*
X194732456Y-118396228D01*
X194732456Y-118396228D02*
X194780075Y-118158133D01*
X194780075Y-118158133D02*
X194827694Y-118015276D01*
X194827694Y-118015276D02*
X194875313Y-117920038D01*
X194875313Y-117920038D02*
X194970551Y-117777180D01*
X194970551Y-117777180D02*
X195018170Y-117729561D01*
X195399123Y-118348609D02*
X195732456Y-118348609D01*
X195875313Y-118872419D02*
X195399123Y-118872419D01*
X195399123Y-118872419D02*
X195399123Y-117872419D01*
X195399123Y-117872419D02*
X195875313Y-117872419D01*
X196256266Y-118824800D02*
X196399123Y-118872419D01*
X196399123Y-118872419D02*
X196637218Y-118872419D01*
X196637218Y-118872419D02*
X196732456Y-118824800D01*
X196732456Y-118824800D02*
X196780075Y-118777180D01*
X196780075Y-118777180D02*
X196827694Y-118681942D01*
X196827694Y-118681942D02*
X196827694Y-118586704D01*
X196827694Y-118586704D02*
X196780075Y-118491466D01*
X196780075Y-118491466D02*
X196732456Y-118443847D01*
X196732456Y-118443847D02*
X196637218Y-118396228D01*
X196637218Y-118396228D02*
X196446742Y-118348609D01*
X196446742Y-118348609D02*
X196351504Y-118300990D01*
X196351504Y-118300990D02*
X196303885Y-118253371D01*
X196303885Y-118253371D02*
X196256266Y-118158133D01*
X196256266Y-118158133D02*
X196256266Y-118062895D01*
X196256266Y-118062895D02*
X196303885Y-117967657D01*
X196303885Y-117967657D02*
X196351504Y-117920038D01*
X196351504Y-117920038D02*
X196446742Y-117872419D01*
X196446742Y-117872419D02*
X196684837Y-117872419D01*
X196684837Y-117872419D02*
X196827694Y-117920038D01*
X197256266Y-118872419D02*
X197256266Y-117872419D01*
X197256266Y-117872419D02*
X197637218Y-117872419D01*
X197637218Y-117872419D02*
X197732456Y-117920038D01*
X197732456Y-117920038D02*
X197780075Y-117967657D01*
X197780075Y-117967657D02*
X197827694Y-118062895D01*
X197827694Y-118062895D02*
X197827694Y-118205752D01*
X197827694Y-118205752D02*
X197780075Y-118300990D01*
X197780075Y-118300990D02*
X197732456Y-118348609D01*
X197732456Y-118348609D02*
X197637218Y-118396228D01*
X197637218Y-118396228D02*
X197256266Y-118396228D01*
X198256266Y-118491466D02*
X199018171Y-118491466D01*
X200018170Y-118872419D02*
X199446742Y-118872419D01*
X199732456Y-118872419D02*
X199732456Y-117872419D01*
X199732456Y-117872419D02*
X199637218Y-118015276D01*
X199637218Y-118015276D02*
X199541980Y-118110514D01*
X199541980Y-118110514D02*
X199446742Y-118158133D01*
X200399123Y-117967657D02*
X200446742Y-117920038D01*
X200446742Y-117920038D02*
X200541980Y-117872419D01*
X200541980Y-117872419D02*
X200780075Y-117872419D01*
X200780075Y-117872419D02*
X200875313Y-117920038D01*
X200875313Y-117920038D02*
X200922932Y-117967657D01*
X200922932Y-117967657D02*
X200970551Y-118062895D01*
X200970551Y-118062895D02*
X200970551Y-118158133D01*
X200970551Y-118158133D02*
X200922932Y-118300990D01*
X200922932Y-118300990D02*
X200351504Y-118872419D01*
X200351504Y-118872419D02*
X200970551Y-118872419D01*
X201399123Y-118348609D02*
X201732456Y-118348609D01*
X201875313Y-118872419D02*
X201399123Y-118872419D01*
X201399123Y-118872419D02*
X201399123Y-117872419D01*
X201399123Y-117872419D02*
X201875313Y-117872419D01*
X202208647Y-119253371D02*
X202256266Y-119205752D01*
X202256266Y-119205752D02*
X202351504Y-119062895D01*
X202351504Y-119062895D02*
X202399123Y-118967657D01*
X202399123Y-118967657D02*
X202446742Y-118824800D01*
X202446742Y-118824800D02*
X202494361Y-118586704D01*
X202494361Y-118586704D02*
X202494361Y-118396228D01*
X202494361Y-118396228D02*
X202446742Y-118158133D01*
X202446742Y-118158133D02*
X202399123Y-118015276D01*
X202399123Y-118015276D02*
X202351504Y-117920038D01*
X202351504Y-117920038D02*
X202256266Y-117777180D01*
X202256266Y-117777180D02*
X202208647Y-117729561D01*
D11*
X164766666Y-128834819D02*
X164766666Y-129549104D01*
X164766666Y-129549104D02*
X164719047Y-129691961D01*
X164719047Y-129691961D02*
X164623809Y-129787200D01*
X164623809Y-129787200D02*
X164480952Y-129834819D01*
X164480952Y-129834819D02*
X164385714Y-129834819D01*
X165195238Y-128930057D02*
X165242857Y-128882438D01*
X165242857Y-128882438D02*
X165338095Y-128834819D01*
X165338095Y-128834819D02*
X165576190Y-128834819D01*
X165576190Y-128834819D02*
X165671428Y-128882438D01*
X165671428Y-128882438D02*
X165719047Y-128930057D01*
X165719047Y-128930057D02*
X165766666Y-129025295D01*
X165766666Y-129025295D02*
X165766666Y-129120533D01*
X165766666Y-129120533D02*
X165719047Y-129263390D01*
X165719047Y-129263390D02*
X165147619Y-129834819D01*
X165147619Y-129834819D02*
X165766666Y-129834819D01*
X132288214Y-102604819D02*
X132288214Y-101604819D01*
X132288214Y-101604819D02*
X132669166Y-101604819D01*
X132669166Y-101604819D02*
X132764404Y-101652438D01*
X132764404Y-101652438D02*
X132812023Y-101700057D01*
X132812023Y-101700057D02*
X132859642Y-101795295D01*
X132859642Y-101795295D02*
X132859642Y-101938152D01*
X132859642Y-101938152D02*
X132812023Y-102033390D01*
X132812023Y-102033390D02*
X132764404Y-102081009D01*
X132764404Y-102081009D02*
X132669166Y-102128628D01*
X132669166Y-102128628D02*
X132288214Y-102128628D01*
X133240595Y-102557200D02*
X133383452Y-102604819D01*
X133383452Y-102604819D02*
X133621547Y-102604819D01*
X133621547Y-102604819D02*
X133716785Y-102557200D01*
X133716785Y-102557200D02*
X133764404Y-102509580D01*
X133764404Y-102509580D02*
X133812023Y-102414342D01*
X133812023Y-102414342D02*
X133812023Y-102319104D01*
X133812023Y-102319104D02*
X133764404Y-102223866D01*
X133764404Y-102223866D02*
X133716785Y-102176247D01*
X133716785Y-102176247D02*
X133621547Y-102128628D01*
X133621547Y-102128628D02*
X133431071Y-102081009D01*
X133431071Y-102081009D02*
X133335833Y-102033390D01*
X133335833Y-102033390D02*
X133288214Y-101985771D01*
X133288214Y-101985771D02*
X133240595Y-101890533D01*
X133240595Y-101890533D02*
X133240595Y-101795295D01*
X133240595Y-101795295D02*
X133288214Y-101700057D01*
X133288214Y-101700057D02*
X133335833Y-101652438D01*
X133335833Y-101652438D02*
X133431071Y-101604819D01*
X133431071Y-101604819D02*
X133669166Y-101604819D01*
X133669166Y-101604819D02*
X133812023Y-101652438D01*
X134764404Y-102604819D02*
X134192976Y-102604819D01*
X134478690Y-102604819D02*
X134478690Y-101604819D01*
X134478690Y-101604819D02*
X134383452Y-101747676D01*
X134383452Y-101747676D02*
X134288214Y-101842914D01*
X134288214Y-101842914D02*
X134192976Y-101890533D01*
X172386666Y-137724819D02*
X172386666Y-138439104D01*
X172386666Y-138439104D02*
X172339047Y-138581961D01*
X172339047Y-138581961D02*
X172243809Y-138677200D01*
X172243809Y-138677200D02*
X172100952Y-138724819D01*
X172100952Y-138724819D02*
X172005714Y-138724819D01*
X173291428Y-138058152D02*
X173291428Y-138724819D01*
X173053333Y-137677200D02*
X172815238Y-138391485D01*
X172815238Y-138391485D02*
X173434285Y-138391485D01*
X97238095Y-142454819D02*
X97238095Y-141454819D01*
X97238095Y-141931009D02*
X97809523Y-141931009D01*
X97809523Y-142454819D02*
X97809523Y-141454819D01*
X98714285Y-141788152D02*
X98714285Y-142454819D01*
X98476190Y-141407200D02*
X98238095Y-142121485D01*
X98238095Y-142121485D02*
X98857142Y-142121485D01*
X213026666Y-137724819D02*
X213026666Y-138439104D01*
X213026666Y-138439104D02*
X212979047Y-138581961D01*
X212979047Y-138581961D02*
X212883809Y-138677200D01*
X212883809Y-138677200D02*
X212740952Y-138724819D01*
X212740952Y-138724819D02*
X212645714Y-138724819D01*
X213407619Y-137724819D02*
X214026666Y-137724819D01*
X214026666Y-137724819D02*
X213693333Y-138105771D01*
X213693333Y-138105771D02*
X213836190Y-138105771D01*
X213836190Y-138105771D02*
X213931428Y-138153390D01*
X213931428Y-138153390D02*
X213979047Y-138201009D01*
X213979047Y-138201009D02*
X214026666Y-138296247D01*
X214026666Y-138296247D02*
X214026666Y-138534342D01*
X214026666Y-138534342D02*
X213979047Y-138629580D01*
X213979047Y-138629580D02*
X213931428Y-138677200D01*
X213931428Y-138677200D02*
X213836190Y-138724819D01*
X213836190Y-138724819D02*
X213550476Y-138724819D01*
X213550476Y-138724819D02*
X213455238Y-138677200D01*
X213455238Y-138677200D02*
X213407619Y-138629580D01*
X97238095Y-94454819D02*
X97238095Y-93454819D01*
X97238095Y-93931009D02*
X97809523Y-93931009D01*
X97809523Y-94454819D02*
X97809523Y-93454819D01*
X98809523Y-94454819D02*
X98238095Y-94454819D01*
X98523809Y-94454819D02*
X98523809Y-93454819D01*
X98523809Y-93454819D02*
X98428571Y-93597676D01*
X98428571Y-93597676D02*
X98333333Y-93692914D01*
X98333333Y-93692914D02*
X98238095Y-93740533D01*
X209238095Y-94454819D02*
X209238095Y-93454819D01*
X209238095Y-93931009D02*
X209809523Y-93931009D01*
X209809523Y-94454819D02*
X209809523Y-93454819D01*
X210238095Y-93550057D02*
X210285714Y-93502438D01*
X210285714Y-93502438D02*
X210380952Y-93454819D01*
X210380952Y-93454819D02*
X210619047Y-93454819D01*
X210619047Y-93454819D02*
X210714285Y-93502438D01*
X210714285Y-93502438D02*
X210761904Y-93550057D01*
X210761904Y-93550057D02*
X210809523Y-93645295D01*
X210809523Y-93645295D02*
X210809523Y-93740533D01*
X210809523Y-93740533D02*
X210761904Y-93883390D01*
X210761904Y-93883390D02*
X210190476Y-94454819D01*
X210190476Y-94454819D02*
X210809523Y-94454819D01*
X209238095Y-142454819D02*
X209238095Y-141454819D01*
X209238095Y-141931009D02*
X209809523Y-141931009D01*
X209809523Y-142454819D02*
X209809523Y-141454819D01*
X210190476Y-141454819D02*
X210809523Y-141454819D01*
X210809523Y-141454819D02*
X210476190Y-141835771D01*
X210476190Y-141835771D02*
X210619047Y-141835771D01*
X210619047Y-141835771D02*
X210714285Y-141883390D01*
X210714285Y-141883390D02*
X210761904Y-141931009D01*
X210761904Y-141931009D02*
X210809523Y-142026247D01*
X210809523Y-142026247D02*
X210809523Y-142264342D01*
X210809523Y-142264342D02*
X210761904Y-142359580D01*
X210761904Y-142359580D02*
X210714285Y-142407200D01*
X210714285Y-142407200D02*
X210619047Y-142454819D01*
X210619047Y-142454819D02*
X210333333Y-142454819D01*
X210333333Y-142454819D02*
X210238095Y-142407200D01*
X210238095Y-142407200D02*
X210190476Y-142359580D01*
X90754819Y-117703333D02*
X91469104Y-117703333D01*
X91469104Y-117703333D02*
X91611961Y-117750952D01*
X91611961Y-117750952D02*
X91707200Y-117846190D01*
X91707200Y-117846190D02*
X91754819Y-117989047D01*
X91754819Y-117989047D02*
X91754819Y-118084285D01*
X91754819Y-116703333D02*
X91754819Y-117274761D01*
X91754819Y-116989047D02*
X90754819Y-116989047D01*
X90754819Y-116989047D02*
X90897676Y-117084285D01*
X90897676Y-117084285D02*
X90992914Y-117179523D01*
X90992914Y-117179523D02*
X91040533Y-117274761D01*
X192278095Y-106454819D02*
X192278095Y-107264342D01*
X192278095Y-107264342D02*
X192325714Y-107359580D01*
X192325714Y-107359580D02*
X192373333Y-107407200D01*
X192373333Y-107407200D02*
X192468571Y-107454819D01*
X192468571Y-107454819D02*
X192659047Y-107454819D01*
X192659047Y-107454819D02*
X192754285Y-107407200D01*
X192754285Y-107407200D02*
X192801904Y-107359580D01*
X192801904Y-107359580D02*
X192849523Y-107264342D01*
X192849523Y-107264342D02*
X192849523Y-106454819D01*
X193849523Y-107454819D02*
X193278095Y-107454819D01*
X193563809Y-107454819D02*
X193563809Y-106454819D01*
X193563809Y-106454819D02*
X193468571Y-106597676D01*
X193468571Y-106597676D02*
X193373333Y-106692914D01*
X193373333Y-106692914D02*
X193278095Y-106740533D01*
X180895714Y-100499104D02*
X181371904Y-100499104D01*
X180800476Y-100784819D02*
X181133809Y-99784819D01*
X181133809Y-99784819D02*
X181467142Y-100784819D01*
X181990952Y-99784819D02*
X182086190Y-99784819D01*
X182086190Y-99784819D02*
X182181428Y-99832438D01*
X182181428Y-99832438D02*
X182229047Y-99880057D01*
X182229047Y-99880057D02*
X182276666Y-99975295D01*
X182276666Y-99975295D02*
X182324285Y-100165771D01*
X182324285Y-100165771D02*
X182324285Y-100403866D01*
X182324285Y-100403866D02*
X182276666Y-100594342D01*
X182276666Y-100594342D02*
X182229047Y-100689580D01*
X182229047Y-100689580D02*
X182181428Y-100737200D01*
X182181428Y-100737200D02*
X182086190Y-100784819D01*
X182086190Y-100784819D02*
X181990952Y-100784819D01*
X181990952Y-100784819D02*
X181895714Y-100737200D01*
X181895714Y-100737200D02*
X181848095Y-100689580D01*
X181848095Y-100689580D02*
X181800476Y-100594342D01*
X181800476Y-100594342D02*
X181752857Y-100403866D01*
X181752857Y-100403866D02*
X181752857Y-100165771D01*
X181752857Y-100165771D02*
X181800476Y-99975295D01*
X181800476Y-99975295D02*
X181848095Y-99880057D01*
X181848095Y-99880057D02*
X181895714Y-99832438D01*
X181895714Y-99832438D02*
X181990952Y-99784819D01*
X181871904Y-102372438D02*
X181776666Y-102324819D01*
X181776666Y-102324819D02*
X181633809Y-102324819D01*
X181633809Y-102324819D02*
X181490952Y-102372438D01*
X181490952Y-102372438D02*
X181395714Y-102467676D01*
X181395714Y-102467676D02*
X181348095Y-102562914D01*
X181348095Y-102562914D02*
X181300476Y-102753390D01*
X181300476Y-102753390D02*
X181300476Y-102896247D01*
X181300476Y-102896247D02*
X181348095Y-103086723D01*
X181348095Y-103086723D02*
X181395714Y-103181961D01*
X181395714Y-103181961D02*
X181490952Y-103277200D01*
X181490952Y-103277200D02*
X181633809Y-103324819D01*
X181633809Y-103324819D02*
X181729047Y-103324819D01*
X181729047Y-103324819D02*
X181871904Y-103277200D01*
X181871904Y-103277200D02*
X181919523Y-103229580D01*
X181919523Y-103229580D02*
X181919523Y-102896247D01*
X181919523Y-102896247D02*
X181729047Y-102896247D01*
X180752857Y-104864819D02*
X181086190Y-105864819D01*
X181086190Y-105864819D02*
X181419523Y-104864819D01*
X181752857Y-104864819D02*
X181752857Y-105674342D01*
X181752857Y-105674342D02*
X181800476Y-105769580D01*
X181800476Y-105769580D02*
X181848095Y-105817200D01*
X181848095Y-105817200D02*
X181943333Y-105864819D01*
X181943333Y-105864819D02*
X182133809Y-105864819D01*
X182133809Y-105864819D02*
X182229047Y-105817200D01*
X182229047Y-105817200D02*
X182276666Y-105769580D01*
X182276666Y-105769580D02*
X182324285Y-105674342D01*
X182324285Y-105674342D02*
X182324285Y-104864819D01*
X180848095Y-108357200D02*
X180990952Y-108404819D01*
X180990952Y-108404819D02*
X181229047Y-108404819D01*
X181229047Y-108404819D02*
X181324285Y-108357200D01*
X181324285Y-108357200D02*
X181371904Y-108309580D01*
X181371904Y-108309580D02*
X181419523Y-108214342D01*
X181419523Y-108214342D02*
X181419523Y-108119104D01*
X181419523Y-108119104D02*
X181371904Y-108023866D01*
X181371904Y-108023866D02*
X181324285Y-107976247D01*
X181324285Y-107976247D02*
X181229047Y-107928628D01*
X181229047Y-107928628D02*
X181038571Y-107881009D01*
X181038571Y-107881009D02*
X180943333Y-107833390D01*
X180943333Y-107833390D02*
X180895714Y-107785771D01*
X180895714Y-107785771D02*
X180848095Y-107690533D01*
X180848095Y-107690533D02*
X180848095Y-107595295D01*
X180848095Y-107595295D02*
X180895714Y-107500057D01*
X180895714Y-107500057D02*
X180943333Y-107452438D01*
X180943333Y-107452438D02*
X181038571Y-107404819D01*
X181038571Y-107404819D02*
X181276666Y-107404819D01*
X181276666Y-107404819D02*
X181419523Y-107452438D01*
X181752857Y-107404819D02*
X182371904Y-107404819D01*
X182371904Y-107404819D02*
X182038571Y-107785771D01*
X182038571Y-107785771D02*
X182181428Y-107785771D01*
X182181428Y-107785771D02*
X182276666Y-107833390D01*
X182276666Y-107833390D02*
X182324285Y-107881009D01*
X182324285Y-107881009D02*
X182371904Y-107976247D01*
X182371904Y-107976247D02*
X182371904Y-108214342D01*
X182371904Y-108214342D02*
X182324285Y-108309580D01*
X182324285Y-108309580D02*
X182276666Y-108357200D01*
X182276666Y-108357200D02*
X182181428Y-108404819D01*
X182181428Y-108404819D02*
X181895714Y-108404819D01*
X181895714Y-108404819D02*
X181800476Y-108357200D01*
X181800476Y-108357200D02*
X181752857Y-108309580D01*
X180848095Y-110897200D02*
X180990952Y-110944819D01*
X180990952Y-110944819D02*
X181229047Y-110944819D01*
X181229047Y-110944819D02*
X181324285Y-110897200D01*
X181324285Y-110897200D02*
X181371904Y-110849580D01*
X181371904Y-110849580D02*
X181419523Y-110754342D01*
X181419523Y-110754342D02*
X181419523Y-110659104D01*
X181419523Y-110659104D02*
X181371904Y-110563866D01*
X181371904Y-110563866D02*
X181324285Y-110516247D01*
X181324285Y-110516247D02*
X181229047Y-110468628D01*
X181229047Y-110468628D02*
X181038571Y-110421009D01*
X181038571Y-110421009D02*
X180943333Y-110373390D01*
X180943333Y-110373390D02*
X180895714Y-110325771D01*
X180895714Y-110325771D02*
X180848095Y-110230533D01*
X180848095Y-110230533D02*
X180848095Y-110135295D01*
X180848095Y-110135295D02*
X180895714Y-110040057D01*
X180895714Y-110040057D02*
X180943333Y-109992438D01*
X180943333Y-109992438D02*
X181038571Y-109944819D01*
X181038571Y-109944819D02*
X181276666Y-109944819D01*
X181276666Y-109944819D02*
X181419523Y-109992438D01*
X181800476Y-110040057D02*
X181848095Y-109992438D01*
X181848095Y-109992438D02*
X181943333Y-109944819D01*
X181943333Y-109944819D02*
X182181428Y-109944819D01*
X182181428Y-109944819D02*
X182276666Y-109992438D01*
X182276666Y-109992438D02*
X182324285Y-110040057D01*
X182324285Y-110040057D02*
X182371904Y-110135295D01*
X182371904Y-110135295D02*
X182371904Y-110230533D01*
X182371904Y-110230533D02*
X182324285Y-110373390D01*
X182324285Y-110373390D02*
X181752857Y-110944819D01*
X181752857Y-110944819D02*
X182371904Y-110944819D01*
X180848095Y-113437200D02*
X180990952Y-113484819D01*
X180990952Y-113484819D02*
X181229047Y-113484819D01*
X181229047Y-113484819D02*
X181324285Y-113437200D01*
X181324285Y-113437200D02*
X181371904Y-113389580D01*
X181371904Y-113389580D02*
X181419523Y-113294342D01*
X181419523Y-113294342D02*
X181419523Y-113199104D01*
X181419523Y-113199104D02*
X181371904Y-113103866D01*
X181371904Y-113103866D02*
X181324285Y-113056247D01*
X181324285Y-113056247D02*
X181229047Y-113008628D01*
X181229047Y-113008628D02*
X181038571Y-112961009D01*
X181038571Y-112961009D02*
X180943333Y-112913390D01*
X180943333Y-112913390D02*
X180895714Y-112865771D01*
X180895714Y-112865771D02*
X180848095Y-112770533D01*
X180848095Y-112770533D02*
X180848095Y-112675295D01*
X180848095Y-112675295D02*
X180895714Y-112580057D01*
X180895714Y-112580057D02*
X180943333Y-112532438D01*
X180943333Y-112532438D02*
X181038571Y-112484819D01*
X181038571Y-112484819D02*
X181276666Y-112484819D01*
X181276666Y-112484819D02*
X181419523Y-112532438D01*
X182371904Y-113484819D02*
X181800476Y-113484819D01*
X182086190Y-113484819D02*
X182086190Y-112484819D01*
X182086190Y-112484819D02*
X181990952Y-112627676D01*
X181990952Y-112627676D02*
X181895714Y-112722914D01*
X181895714Y-112722914D02*
X181800476Y-112770533D01*
X180824286Y-115977200D02*
X180967143Y-116024819D01*
X180967143Y-116024819D02*
X181205238Y-116024819D01*
X181205238Y-116024819D02*
X181300476Y-115977200D01*
X181300476Y-115977200D02*
X181348095Y-115929580D01*
X181348095Y-115929580D02*
X181395714Y-115834342D01*
X181395714Y-115834342D02*
X181395714Y-115739104D01*
X181395714Y-115739104D02*
X181348095Y-115643866D01*
X181348095Y-115643866D02*
X181300476Y-115596247D01*
X181300476Y-115596247D02*
X181205238Y-115548628D01*
X181205238Y-115548628D02*
X181014762Y-115501009D01*
X181014762Y-115501009D02*
X180919524Y-115453390D01*
X180919524Y-115453390D02*
X180871905Y-115405771D01*
X180871905Y-115405771D02*
X180824286Y-115310533D01*
X180824286Y-115310533D02*
X180824286Y-115215295D01*
X180824286Y-115215295D02*
X180871905Y-115120057D01*
X180871905Y-115120057D02*
X180919524Y-115072438D01*
X180919524Y-115072438D02*
X181014762Y-115024819D01*
X181014762Y-115024819D02*
X181252857Y-115024819D01*
X181252857Y-115024819D02*
X181395714Y-115072438D01*
X182395714Y-115929580D02*
X182348095Y-115977200D01*
X182348095Y-115977200D02*
X182205238Y-116024819D01*
X182205238Y-116024819D02*
X182110000Y-116024819D01*
X182110000Y-116024819D02*
X181967143Y-115977200D01*
X181967143Y-115977200D02*
X181871905Y-115881961D01*
X181871905Y-115881961D02*
X181824286Y-115786723D01*
X181824286Y-115786723D02*
X181776667Y-115596247D01*
X181776667Y-115596247D02*
X181776667Y-115453390D01*
X181776667Y-115453390D02*
X181824286Y-115262914D01*
X181824286Y-115262914D02*
X181871905Y-115167676D01*
X181871905Y-115167676D02*
X181967143Y-115072438D01*
X181967143Y-115072438D02*
X182110000Y-115024819D01*
X182110000Y-115024819D02*
X182205238Y-115024819D01*
X182205238Y-115024819D02*
X182348095Y-115072438D01*
X182348095Y-115072438D02*
X182395714Y-115120057D01*
X180800476Y-118517200D02*
X180943333Y-118564819D01*
X180943333Y-118564819D02*
X181181428Y-118564819D01*
X181181428Y-118564819D02*
X181276666Y-118517200D01*
X181276666Y-118517200D02*
X181324285Y-118469580D01*
X181324285Y-118469580D02*
X181371904Y-118374342D01*
X181371904Y-118374342D02*
X181371904Y-118279104D01*
X181371904Y-118279104D02*
X181324285Y-118183866D01*
X181324285Y-118183866D02*
X181276666Y-118136247D01*
X181276666Y-118136247D02*
X181181428Y-118088628D01*
X181181428Y-118088628D02*
X180990952Y-118041009D01*
X180990952Y-118041009D02*
X180895714Y-117993390D01*
X180895714Y-117993390D02*
X180848095Y-117945771D01*
X180848095Y-117945771D02*
X180800476Y-117850533D01*
X180800476Y-117850533D02*
X180800476Y-117755295D01*
X180800476Y-117755295D02*
X180848095Y-117660057D01*
X180848095Y-117660057D02*
X180895714Y-117612438D01*
X180895714Y-117612438D02*
X180990952Y-117564819D01*
X180990952Y-117564819D02*
X181229047Y-117564819D01*
X181229047Y-117564819D02*
X181371904Y-117612438D01*
X181990952Y-117564819D02*
X182181428Y-117564819D01*
X182181428Y-117564819D02*
X182276666Y-117612438D01*
X182276666Y-117612438D02*
X182371904Y-117707676D01*
X182371904Y-117707676D02*
X182419523Y-117898152D01*
X182419523Y-117898152D02*
X182419523Y-118231485D01*
X182419523Y-118231485D02*
X182371904Y-118421961D01*
X182371904Y-118421961D02*
X182276666Y-118517200D01*
X182276666Y-118517200D02*
X182181428Y-118564819D01*
X182181428Y-118564819D02*
X181990952Y-118564819D01*
X181990952Y-118564819D02*
X181895714Y-118517200D01*
X181895714Y-118517200D02*
X181800476Y-118421961D01*
X181800476Y-118421961D02*
X181752857Y-118231485D01*
X181752857Y-118231485D02*
X181752857Y-117898152D01*
X181752857Y-117898152D02*
X181800476Y-117707676D01*
X181800476Y-117707676D02*
X181895714Y-117612438D01*
X181895714Y-117612438D02*
X181990952Y-117564819D01*
X180824286Y-121057200D02*
X180967143Y-121104819D01*
X180967143Y-121104819D02*
X181205238Y-121104819D01*
X181205238Y-121104819D02*
X181300476Y-121057200D01*
X181300476Y-121057200D02*
X181348095Y-121009580D01*
X181348095Y-121009580D02*
X181395714Y-120914342D01*
X181395714Y-120914342D02*
X181395714Y-120819104D01*
X181395714Y-120819104D02*
X181348095Y-120723866D01*
X181348095Y-120723866D02*
X181300476Y-120676247D01*
X181300476Y-120676247D02*
X181205238Y-120628628D01*
X181205238Y-120628628D02*
X181014762Y-120581009D01*
X181014762Y-120581009D02*
X180919524Y-120533390D01*
X180919524Y-120533390D02*
X180871905Y-120485771D01*
X180871905Y-120485771D02*
X180824286Y-120390533D01*
X180824286Y-120390533D02*
X180824286Y-120295295D01*
X180824286Y-120295295D02*
X180871905Y-120200057D01*
X180871905Y-120200057D02*
X180919524Y-120152438D01*
X180919524Y-120152438D02*
X181014762Y-120104819D01*
X181014762Y-120104819D02*
X181252857Y-120104819D01*
X181252857Y-120104819D02*
X181395714Y-120152438D01*
X181824286Y-121104819D02*
X181824286Y-120104819D01*
X182395714Y-121104819D02*
X181967143Y-120533390D01*
X182395714Y-120104819D02*
X181824286Y-120676247D01*
X181871904Y-122692438D02*
X181776666Y-122644819D01*
X181776666Y-122644819D02*
X181633809Y-122644819D01*
X181633809Y-122644819D02*
X181490952Y-122692438D01*
X181490952Y-122692438D02*
X181395714Y-122787676D01*
X181395714Y-122787676D02*
X181348095Y-122882914D01*
X181348095Y-122882914D02*
X181300476Y-123073390D01*
X181300476Y-123073390D02*
X181300476Y-123216247D01*
X181300476Y-123216247D02*
X181348095Y-123406723D01*
X181348095Y-123406723D02*
X181395714Y-123501961D01*
X181395714Y-123501961D02*
X181490952Y-123597200D01*
X181490952Y-123597200D02*
X181633809Y-123644819D01*
X181633809Y-123644819D02*
X181729047Y-123644819D01*
X181729047Y-123644819D02*
X181871904Y-123597200D01*
X181871904Y-123597200D02*
X181919523Y-123549580D01*
X181919523Y-123549580D02*
X181919523Y-123216247D01*
X181919523Y-123216247D02*
X181729047Y-123216247D01*
X180848095Y-125184819D02*
X181467142Y-125184819D01*
X181467142Y-125184819D02*
X181133809Y-125565771D01*
X181133809Y-125565771D02*
X181276666Y-125565771D01*
X181276666Y-125565771D02*
X181371904Y-125613390D01*
X181371904Y-125613390D02*
X181419523Y-125661009D01*
X181419523Y-125661009D02*
X181467142Y-125756247D01*
X181467142Y-125756247D02*
X181467142Y-125994342D01*
X181467142Y-125994342D02*
X181419523Y-126089580D01*
X181419523Y-126089580D02*
X181371904Y-126137200D01*
X181371904Y-126137200D02*
X181276666Y-126184819D01*
X181276666Y-126184819D02*
X180990952Y-126184819D01*
X180990952Y-126184819D02*
X180895714Y-126137200D01*
X180895714Y-126137200D02*
X180848095Y-126089580D01*
X181752857Y-125184819D02*
X182086190Y-126184819D01*
X182086190Y-126184819D02*
X182419523Y-125184819D01*
X180871905Y-128201009D02*
X181205238Y-128201009D01*
X181348095Y-128724819D02*
X180871905Y-128724819D01*
X180871905Y-128724819D02*
X180871905Y-127724819D01*
X180871905Y-127724819D02*
X181348095Y-127724819D01*
X181776667Y-128724819D02*
X181776667Y-127724819D01*
X181776667Y-127724819D02*
X182348095Y-128724819D01*
X182348095Y-128724819D02*
X182348095Y-127724819D01*
X181062380Y-131264819D02*
X180729047Y-130788628D01*
X180490952Y-131264819D02*
X180490952Y-130264819D01*
X180490952Y-130264819D02*
X180871904Y-130264819D01*
X180871904Y-130264819D02*
X180967142Y-130312438D01*
X180967142Y-130312438D02*
X181014761Y-130360057D01*
X181014761Y-130360057D02*
X181062380Y-130455295D01*
X181062380Y-130455295D02*
X181062380Y-130598152D01*
X181062380Y-130598152D02*
X181014761Y-130693390D01*
X181014761Y-130693390D02*
X180967142Y-130741009D01*
X180967142Y-130741009D02*
X180871904Y-130788628D01*
X180871904Y-130788628D02*
X180490952Y-130788628D01*
X181443333Y-131217200D02*
X181586190Y-131264819D01*
X181586190Y-131264819D02*
X181824285Y-131264819D01*
X181824285Y-131264819D02*
X181919523Y-131217200D01*
X181919523Y-131217200D02*
X181967142Y-131169580D01*
X181967142Y-131169580D02*
X182014761Y-131074342D01*
X182014761Y-131074342D02*
X182014761Y-130979104D01*
X182014761Y-130979104D02*
X181967142Y-130883866D01*
X181967142Y-130883866D02*
X181919523Y-130836247D01*
X181919523Y-130836247D02*
X181824285Y-130788628D01*
X181824285Y-130788628D02*
X181633809Y-130741009D01*
X181633809Y-130741009D02*
X181538571Y-130693390D01*
X181538571Y-130693390D02*
X181490952Y-130645771D01*
X181490952Y-130645771D02*
X181443333Y-130550533D01*
X181443333Y-130550533D02*
X181443333Y-130455295D01*
X181443333Y-130455295D02*
X181490952Y-130360057D01*
X181490952Y-130360057D02*
X181538571Y-130312438D01*
X181538571Y-130312438D02*
X181633809Y-130264819D01*
X181633809Y-130264819D02*
X181871904Y-130264819D01*
X181871904Y-130264819D02*
X182014761Y-130312438D01*
X182300476Y-130264819D02*
X182871904Y-130264819D01*
X182586190Y-131264819D02*
X182586190Y-130264819D01*
X181871904Y-132852438D02*
X181776666Y-132804819D01*
X181776666Y-132804819D02*
X181633809Y-132804819D01*
X181633809Y-132804819D02*
X181490952Y-132852438D01*
X181490952Y-132852438D02*
X181395714Y-132947676D01*
X181395714Y-132947676D02*
X181348095Y-133042914D01*
X181348095Y-133042914D02*
X181300476Y-133233390D01*
X181300476Y-133233390D02*
X181300476Y-133376247D01*
X181300476Y-133376247D02*
X181348095Y-133566723D01*
X181348095Y-133566723D02*
X181395714Y-133661961D01*
X181395714Y-133661961D02*
X181490952Y-133757200D01*
X181490952Y-133757200D02*
X181633809Y-133804819D01*
X181633809Y-133804819D02*
X181729047Y-133804819D01*
X181729047Y-133804819D02*
X181871904Y-133757200D01*
X181871904Y-133757200D02*
X181919523Y-133709580D01*
X181919523Y-133709580D02*
X181919523Y-133376247D01*
X181919523Y-133376247D02*
X181729047Y-133376247D01*
X189587618Y-98244819D02*
X189254285Y-97768628D01*
X189016190Y-98244819D02*
X189016190Y-97244819D01*
X189016190Y-97244819D02*
X189397142Y-97244819D01*
X189397142Y-97244819D02*
X189492380Y-97292438D01*
X189492380Y-97292438D02*
X189539999Y-97340057D01*
X189539999Y-97340057D02*
X189587618Y-97435295D01*
X189587618Y-97435295D02*
X189587618Y-97578152D01*
X189587618Y-97578152D02*
X189539999Y-97673390D01*
X189539999Y-97673390D02*
X189492380Y-97721009D01*
X189492380Y-97721009D02*
X189397142Y-97768628D01*
X189397142Y-97768628D02*
X189016190Y-97768628D01*
X190349523Y-97721009D02*
X190016190Y-97721009D01*
X190016190Y-98244819D02*
X190016190Y-97244819D01*
X190016190Y-97244819D02*
X190492380Y-97244819D01*
X191587619Y-97959104D02*
X192063809Y-97959104D01*
X191492381Y-98244819D02*
X191825714Y-97244819D01*
X191825714Y-97244819D02*
X192159047Y-98244819D01*
X192492381Y-97578152D02*
X192492381Y-98244819D01*
X192492381Y-97673390D02*
X192540000Y-97625771D01*
X192540000Y-97625771D02*
X192635238Y-97578152D01*
X192635238Y-97578152D02*
X192778095Y-97578152D01*
X192778095Y-97578152D02*
X192873333Y-97625771D01*
X192873333Y-97625771D02*
X192920952Y-97721009D01*
X192920952Y-97721009D02*
X192920952Y-98244819D01*
X193254286Y-97578152D02*
X193635238Y-97578152D01*
X193397143Y-97244819D02*
X193397143Y-98101961D01*
X193397143Y-98101961D02*
X193444762Y-98197200D01*
X193444762Y-98197200D02*
X193540000Y-98244819D01*
X193540000Y-98244819D02*
X193635238Y-98244819D01*
X194349524Y-98197200D02*
X194254286Y-98244819D01*
X194254286Y-98244819D02*
X194063810Y-98244819D01*
X194063810Y-98244819D02*
X193968572Y-98197200D01*
X193968572Y-98197200D02*
X193920953Y-98101961D01*
X193920953Y-98101961D02*
X193920953Y-97721009D01*
X193920953Y-97721009D02*
X193968572Y-97625771D01*
X193968572Y-97625771D02*
X194063810Y-97578152D01*
X194063810Y-97578152D02*
X194254286Y-97578152D01*
X194254286Y-97578152D02*
X194349524Y-97625771D01*
X194349524Y-97625771D02*
X194397143Y-97721009D01*
X194397143Y-97721009D02*
X194397143Y-97816247D01*
X194397143Y-97816247D02*
X193920953Y-97911485D01*
X194825715Y-97578152D02*
X194825715Y-98244819D01*
X194825715Y-97673390D02*
X194873334Y-97625771D01*
X194873334Y-97625771D02*
X194968572Y-97578152D01*
X194968572Y-97578152D02*
X195111429Y-97578152D01*
X195111429Y-97578152D02*
X195206667Y-97625771D01*
X195206667Y-97625771D02*
X195254286Y-97721009D01*
X195254286Y-97721009D02*
X195254286Y-98244819D01*
X195730477Y-97578152D02*
X195730477Y-98244819D01*
X195730477Y-97673390D02*
X195778096Y-97625771D01*
X195778096Y-97625771D02*
X195873334Y-97578152D01*
X195873334Y-97578152D02*
X196016191Y-97578152D01*
X196016191Y-97578152D02*
X196111429Y-97625771D01*
X196111429Y-97625771D02*
X196159048Y-97721009D01*
X196159048Y-97721009D02*
X196159048Y-98244819D01*
X197063810Y-98244819D02*
X197063810Y-97721009D01*
X197063810Y-97721009D02*
X197016191Y-97625771D01*
X197016191Y-97625771D02*
X196920953Y-97578152D01*
X196920953Y-97578152D02*
X196730477Y-97578152D01*
X196730477Y-97578152D02*
X196635239Y-97625771D01*
X197063810Y-98197200D02*
X196968572Y-98244819D01*
X196968572Y-98244819D02*
X196730477Y-98244819D01*
X196730477Y-98244819D02*
X196635239Y-98197200D01*
X196635239Y-98197200D02*
X196587620Y-98101961D01*
X196587620Y-98101961D02*
X196587620Y-98006723D01*
X196587620Y-98006723D02*
X196635239Y-97911485D01*
X196635239Y-97911485D02*
X196730477Y-97863866D01*
X196730477Y-97863866D02*
X196968572Y-97863866D01*
X196968572Y-97863866D02*
X197063810Y-97816247D01*
X191778095Y-140424819D02*
X191778095Y-141234342D01*
X191778095Y-141234342D02*
X191825714Y-141329580D01*
X191825714Y-141329580D02*
X191873333Y-141377200D01*
X191873333Y-141377200D02*
X191968571Y-141424819D01*
X191968571Y-141424819D02*
X192159047Y-141424819D01*
X192159047Y-141424819D02*
X192254285Y-141377200D01*
X192254285Y-141377200D02*
X192301904Y-141329580D01*
X192301904Y-141329580D02*
X192349523Y-141234342D01*
X192349523Y-141234342D02*
X192349523Y-140424819D01*
X192778095Y-141377200D02*
X192920952Y-141424819D01*
X192920952Y-141424819D02*
X193159047Y-141424819D01*
X193159047Y-141424819D02*
X193254285Y-141377200D01*
X193254285Y-141377200D02*
X193301904Y-141329580D01*
X193301904Y-141329580D02*
X193349523Y-141234342D01*
X193349523Y-141234342D02*
X193349523Y-141139104D01*
X193349523Y-141139104D02*
X193301904Y-141043866D01*
X193301904Y-141043866D02*
X193254285Y-140996247D01*
X193254285Y-140996247D02*
X193159047Y-140948628D01*
X193159047Y-140948628D02*
X192968571Y-140901009D01*
X192968571Y-140901009D02*
X192873333Y-140853390D01*
X192873333Y-140853390D02*
X192825714Y-140805771D01*
X192825714Y-140805771D02*
X192778095Y-140710533D01*
X192778095Y-140710533D02*
X192778095Y-140615295D01*
X192778095Y-140615295D02*
X192825714Y-140520057D01*
X192825714Y-140520057D02*
X192873333Y-140472438D01*
X192873333Y-140472438D02*
X192968571Y-140424819D01*
X192968571Y-140424819D02*
X193206666Y-140424819D01*
X193206666Y-140424819D02*
X193349523Y-140472438D01*
X194111428Y-140901009D02*
X194254285Y-140948628D01*
X194254285Y-140948628D02*
X194301904Y-140996247D01*
X194301904Y-140996247D02*
X194349523Y-141091485D01*
X194349523Y-141091485D02*
X194349523Y-141234342D01*
X194349523Y-141234342D02*
X194301904Y-141329580D01*
X194301904Y-141329580D02*
X194254285Y-141377200D01*
X194254285Y-141377200D02*
X194159047Y-141424819D01*
X194159047Y-141424819D02*
X193778095Y-141424819D01*
X193778095Y-141424819D02*
X193778095Y-140424819D01*
X193778095Y-140424819D02*
X194111428Y-140424819D01*
X194111428Y-140424819D02*
X194206666Y-140472438D01*
X194206666Y-140472438D02*
X194254285Y-140520057D01*
X194254285Y-140520057D02*
X194301904Y-140615295D01*
X194301904Y-140615295D02*
X194301904Y-140710533D01*
X194301904Y-140710533D02*
X194254285Y-140805771D01*
X194254285Y-140805771D02*
X194206666Y-140853390D01*
X194206666Y-140853390D02*
X194111428Y-140901009D01*
X194111428Y-140901009D02*
X193778095Y-140901009D01*
X203731905Y-100784819D02*
X203731905Y-99784819D01*
X203731905Y-99784819D02*
X203970000Y-99784819D01*
X203970000Y-99784819D02*
X204112857Y-99832438D01*
X204112857Y-99832438D02*
X204208095Y-99927676D01*
X204208095Y-99927676D02*
X204255714Y-100022914D01*
X204255714Y-100022914D02*
X204303333Y-100213390D01*
X204303333Y-100213390D02*
X204303333Y-100356247D01*
X204303333Y-100356247D02*
X204255714Y-100546723D01*
X204255714Y-100546723D02*
X204208095Y-100641961D01*
X204208095Y-100641961D02*
X204112857Y-100737200D01*
X204112857Y-100737200D02*
X203970000Y-100784819D01*
X203970000Y-100784819D02*
X203731905Y-100784819D01*
X204922381Y-99784819D02*
X205017619Y-99784819D01*
X205017619Y-99784819D02*
X205112857Y-99832438D01*
X205112857Y-99832438D02*
X205160476Y-99880057D01*
X205160476Y-99880057D02*
X205208095Y-99975295D01*
X205208095Y-99975295D02*
X205255714Y-100165771D01*
X205255714Y-100165771D02*
X205255714Y-100403866D01*
X205255714Y-100403866D02*
X205208095Y-100594342D01*
X205208095Y-100594342D02*
X205160476Y-100689580D01*
X205160476Y-100689580D02*
X205112857Y-100737200D01*
X205112857Y-100737200D02*
X205017619Y-100784819D01*
X205017619Y-100784819D02*
X204922381Y-100784819D01*
X204922381Y-100784819D02*
X204827143Y-100737200D01*
X204827143Y-100737200D02*
X204779524Y-100689580D01*
X204779524Y-100689580D02*
X204731905Y-100594342D01*
X204731905Y-100594342D02*
X204684286Y-100403866D01*
X204684286Y-100403866D02*
X204684286Y-100165771D01*
X204684286Y-100165771D02*
X204731905Y-99975295D01*
X204731905Y-99975295D02*
X204779524Y-99880057D01*
X204779524Y-99880057D02*
X204827143Y-99832438D01*
X204827143Y-99832438D02*
X204922381Y-99784819D01*
X203731905Y-103324819D02*
X203731905Y-102324819D01*
X203731905Y-102324819D02*
X203970000Y-102324819D01*
X203970000Y-102324819D02*
X204112857Y-102372438D01*
X204112857Y-102372438D02*
X204208095Y-102467676D01*
X204208095Y-102467676D02*
X204255714Y-102562914D01*
X204255714Y-102562914D02*
X204303333Y-102753390D01*
X204303333Y-102753390D02*
X204303333Y-102896247D01*
X204303333Y-102896247D02*
X204255714Y-103086723D01*
X204255714Y-103086723D02*
X204208095Y-103181961D01*
X204208095Y-103181961D02*
X204112857Y-103277200D01*
X204112857Y-103277200D02*
X203970000Y-103324819D01*
X203970000Y-103324819D02*
X203731905Y-103324819D01*
X205255714Y-103324819D02*
X204684286Y-103324819D01*
X204970000Y-103324819D02*
X204970000Y-102324819D01*
X204970000Y-102324819D02*
X204874762Y-102467676D01*
X204874762Y-102467676D02*
X204779524Y-102562914D01*
X204779524Y-102562914D02*
X204684286Y-102610533D01*
X203731905Y-105864819D02*
X203731905Y-104864819D01*
X203731905Y-104864819D02*
X203970000Y-104864819D01*
X203970000Y-104864819D02*
X204112857Y-104912438D01*
X204112857Y-104912438D02*
X204208095Y-105007676D01*
X204208095Y-105007676D02*
X204255714Y-105102914D01*
X204255714Y-105102914D02*
X204303333Y-105293390D01*
X204303333Y-105293390D02*
X204303333Y-105436247D01*
X204303333Y-105436247D02*
X204255714Y-105626723D01*
X204255714Y-105626723D02*
X204208095Y-105721961D01*
X204208095Y-105721961D02*
X204112857Y-105817200D01*
X204112857Y-105817200D02*
X203970000Y-105864819D01*
X203970000Y-105864819D02*
X203731905Y-105864819D01*
X204684286Y-104960057D02*
X204731905Y-104912438D01*
X204731905Y-104912438D02*
X204827143Y-104864819D01*
X204827143Y-104864819D02*
X205065238Y-104864819D01*
X205065238Y-104864819D02*
X205160476Y-104912438D01*
X205160476Y-104912438D02*
X205208095Y-104960057D01*
X205208095Y-104960057D02*
X205255714Y-105055295D01*
X205255714Y-105055295D02*
X205255714Y-105150533D01*
X205255714Y-105150533D02*
X205208095Y-105293390D01*
X205208095Y-105293390D02*
X204636667Y-105864819D01*
X204636667Y-105864819D02*
X205255714Y-105864819D01*
X203731905Y-108404819D02*
X203731905Y-107404819D01*
X203731905Y-107404819D02*
X203970000Y-107404819D01*
X203970000Y-107404819D02*
X204112857Y-107452438D01*
X204112857Y-107452438D02*
X204208095Y-107547676D01*
X204208095Y-107547676D02*
X204255714Y-107642914D01*
X204255714Y-107642914D02*
X204303333Y-107833390D01*
X204303333Y-107833390D02*
X204303333Y-107976247D01*
X204303333Y-107976247D02*
X204255714Y-108166723D01*
X204255714Y-108166723D02*
X204208095Y-108261961D01*
X204208095Y-108261961D02*
X204112857Y-108357200D01*
X204112857Y-108357200D02*
X203970000Y-108404819D01*
X203970000Y-108404819D02*
X203731905Y-108404819D01*
X204636667Y-107404819D02*
X205255714Y-107404819D01*
X205255714Y-107404819D02*
X204922381Y-107785771D01*
X204922381Y-107785771D02*
X205065238Y-107785771D01*
X205065238Y-107785771D02*
X205160476Y-107833390D01*
X205160476Y-107833390D02*
X205208095Y-107881009D01*
X205208095Y-107881009D02*
X205255714Y-107976247D01*
X205255714Y-107976247D02*
X205255714Y-108214342D01*
X205255714Y-108214342D02*
X205208095Y-108309580D01*
X205208095Y-108309580D02*
X205160476Y-108357200D01*
X205160476Y-108357200D02*
X205065238Y-108404819D01*
X205065238Y-108404819D02*
X204779524Y-108404819D01*
X204779524Y-108404819D02*
X204684286Y-108357200D01*
X204684286Y-108357200D02*
X204636667Y-108309580D01*
X203731905Y-110944819D02*
X203731905Y-109944819D01*
X203731905Y-109944819D02*
X203970000Y-109944819D01*
X203970000Y-109944819D02*
X204112857Y-109992438D01*
X204112857Y-109992438D02*
X204208095Y-110087676D01*
X204208095Y-110087676D02*
X204255714Y-110182914D01*
X204255714Y-110182914D02*
X204303333Y-110373390D01*
X204303333Y-110373390D02*
X204303333Y-110516247D01*
X204303333Y-110516247D02*
X204255714Y-110706723D01*
X204255714Y-110706723D02*
X204208095Y-110801961D01*
X204208095Y-110801961D02*
X204112857Y-110897200D01*
X204112857Y-110897200D02*
X203970000Y-110944819D01*
X203970000Y-110944819D02*
X203731905Y-110944819D01*
X205160476Y-110278152D02*
X205160476Y-110944819D01*
X204922381Y-109897200D02*
X204684286Y-110611485D01*
X204684286Y-110611485D02*
X205303333Y-110611485D01*
X203708095Y-112484819D02*
X204327142Y-112484819D01*
X204327142Y-112484819D02*
X203993809Y-112865771D01*
X203993809Y-112865771D02*
X204136666Y-112865771D01*
X204136666Y-112865771D02*
X204231904Y-112913390D01*
X204231904Y-112913390D02*
X204279523Y-112961009D01*
X204279523Y-112961009D02*
X204327142Y-113056247D01*
X204327142Y-113056247D02*
X204327142Y-113294342D01*
X204327142Y-113294342D02*
X204279523Y-113389580D01*
X204279523Y-113389580D02*
X204231904Y-113437200D01*
X204231904Y-113437200D02*
X204136666Y-113484819D01*
X204136666Y-113484819D02*
X203850952Y-113484819D01*
X203850952Y-113484819D02*
X203755714Y-113437200D01*
X203755714Y-113437200D02*
X203708095Y-113389580D01*
X204612857Y-112484819D02*
X204946190Y-113484819D01*
X204946190Y-113484819D02*
X205279523Y-112484819D01*
X204731904Y-115072438D02*
X204636666Y-115024819D01*
X204636666Y-115024819D02*
X204493809Y-115024819D01*
X204493809Y-115024819D02*
X204350952Y-115072438D01*
X204350952Y-115072438D02*
X204255714Y-115167676D01*
X204255714Y-115167676D02*
X204208095Y-115262914D01*
X204208095Y-115262914D02*
X204160476Y-115453390D01*
X204160476Y-115453390D02*
X204160476Y-115596247D01*
X204160476Y-115596247D02*
X204208095Y-115786723D01*
X204208095Y-115786723D02*
X204255714Y-115881961D01*
X204255714Y-115881961D02*
X204350952Y-115977200D01*
X204350952Y-115977200D02*
X204493809Y-116024819D01*
X204493809Y-116024819D02*
X204589047Y-116024819D01*
X204589047Y-116024819D02*
X204731904Y-115977200D01*
X204731904Y-115977200D02*
X204779523Y-115929580D01*
X204779523Y-115929580D02*
X204779523Y-115596247D01*
X204779523Y-115596247D02*
X204589047Y-115596247D01*
X203731905Y-118564819D02*
X203731905Y-117564819D01*
X203731905Y-117564819D02*
X203970000Y-117564819D01*
X203970000Y-117564819D02*
X204112857Y-117612438D01*
X204112857Y-117612438D02*
X204208095Y-117707676D01*
X204208095Y-117707676D02*
X204255714Y-117802914D01*
X204255714Y-117802914D02*
X204303333Y-117993390D01*
X204303333Y-117993390D02*
X204303333Y-118136247D01*
X204303333Y-118136247D02*
X204255714Y-118326723D01*
X204255714Y-118326723D02*
X204208095Y-118421961D01*
X204208095Y-118421961D02*
X204112857Y-118517200D01*
X204112857Y-118517200D02*
X203970000Y-118564819D01*
X203970000Y-118564819D02*
X203731905Y-118564819D01*
X205208095Y-117564819D02*
X204731905Y-117564819D01*
X204731905Y-117564819D02*
X204684286Y-118041009D01*
X204684286Y-118041009D02*
X204731905Y-117993390D01*
X204731905Y-117993390D02*
X204827143Y-117945771D01*
X204827143Y-117945771D02*
X205065238Y-117945771D01*
X205065238Y-117945771D02*
X205160476Y-117993390D01*
X205160476Y-117993390D02*
X205208095Y-118041009D01*
X205208095Y-118041009D02*
X205255714Y-118136247D01*
X205255714Y-118136247D02*
X205255714Y-118374342D01*
X205255714Y-118374342D02*
X205208095Y-118469580D01*
X205208095Y-118469580D02*
X205160476Y-118517200D01*
X205160476Y-118517200D02*
X205065238Y-118564819D01*
X205065238Y-118564819D02*
X204827143Y-118564819D01*
X204827143Y-118564819D02*
X204731905Y-118517200D01*
X204731905Y-118517200D02*
X204684286Y-118469580D01*
X203731905Y-121104819D02*
X203731905Y-120104819D01*
X203731905Y-120104819D02*
X203970000Y-120104819D01*
X203970000Y-120104819D02*
X204112857Y-120152438D01*
X204112857Y-120152438D02*
X204208095Y-120247676D01*
X204208095Y-120247676D02*
X204255714Y-120342914D01*
X204255714Y-120342914D02*
X204303333Y-120533390D01*
X204303333Y-120533390D02*
X204303333Y-120676247D01*
X204303333Y-120676247D02*
X204255714Y-120866723D01*
X204255714Y-120866723D02*
X204208095Y-120961961D01*
X204208095Y-120961961D02*
X204112857Y-121057200D01*
X204112857Y-121057200D02*
X203970000Y-121104819D01*
X203970000Y-121104819D02*
X203731905Y-121104819D01*
X205160476Y-120104819D02*
X204970000Y-120104819D01*
X204970000Y-120104819D02*
X204874762Y-120152438D01*
X204874762Y-120152438D02*
X204827143Y-120200057D01*
X204827143Y-120200057D02*
X204731905Y-120342914D01*
X204731905Y-120342914D02*
X204684286Y-120533390D01*
X204684286Y-120533390D02*
X204684286Y-120914342D01*
X204684286Y-120914342D02*
X204731905Y-121009580D01*
X204731905Y-121009580D02*
X204779524Y-121057200D01*
X204779524Y-121057200D02*
X204874762Y-121104819D01*
X204874762Y-121104819D02*
X205065238Y-121104819D01*
X205065238Y-121104819D02*
X205160476Y-121057200D01*
X205160476Y-121057200D02*
X205208095Y-121009580D01*
X205208095Y-121009580D02*
X205255714Y-120914342D01*
X205255714Y-120914342D02*
X205255714Y-120676247D01*
X205255714Y-120676247D02*
X205208095Y-120581009D01*
X205208095Y-120581009D02*
X205160476Y-120533390D01*
X205160476Y-120533390D02*
X205065238Y-120485771D01*
X205065238Y-120485771D02*
X204874762Y-120485771D01*
X204874762Y-120485771D02*
X204779524Y-120533390D01*
X204779524Y-120533390D02*
X204731905Y-120581009D01*
X204731905Y-120581009D02*
X204684286Y-120676247D01*
X203731905Y-123644819D02*
X203731905Y-122644819D01*
X203731905Y-122644819D02*
X203970000Y-122644819D01*
X203970000Y-122644819D02*
X204112857Y-122692438D01*
X204112857Y-122692438D02*
X204208095Y-122787676D01*
X204208095Y-122787676D02*
X204255714Y-122882914D01*
X204255714Y-122882914D02*
X204303333Y-123073390D01*
X204303333Y-123073390D02*
X204303333Y-123216247D01*
X204303333Y-123216247D02*
X204255714Y-123406723D01*
X204255714Y-123406723D02*
X204208095Y-123501961D01*
X204208095Y-123501961D02*
X204112857Y-123597200D01*
X204112857Y-123597200D02*
X203970000Y-123644819D01*
X203970000Y-123644819D02*
X203731905Y-123644819D01*
X204636667Y-122644819D02*
X205303333Y-122644819D01*
X205303333Y-122644819D02*
X204874762Y-123644819D01*
X203731905Y-126184819D02*
X203731905Y-125184819D01*
X203731905Y-125184819D02*
X203970000Y-125184819D01*
X203970000Y-125184819D02*
X204112857Y-125232438D01*
X204112857Y-125232438D02*
X204208095Y-125327676D01*
X204208095Y-125327676D02*
X204255714Y-125422914D01*
X204255714Y-125422914D02*
X204303333Y-125613390D01*
X204303333Y-125613390D02*
X204303333Y-125756247D01*
X204303333Y-125756247D02*
X204255714Y-125946723D01*
X204255714Y-125946723D02*
X204208095Y-126041961D01*
X204208095Y-126041961D02*
X204112857Y-126137200D01*
X204112857Y-126137200D02*
X203970000Y-126184819D01*
X203970000Y-126184819D02*
X203731905Y-126184819D01*
X204874762Y-125613390D02*
X204779524Y-125565771D01*
X204779524Y-125565771D02*
X204731905Y-125518152D01*
X204731905Y-125518152D02*
X204684286Y-125422914D01*
X204684286Y-125422914D02*
X204684286Y-125375295D01*
X204684286Y-125375295D02*
X204731905Y-125280057D01*
X204731905Y-125280057D02*
X204779524Y-125232438D01*
X204779524Y-125232438D02*
X204874762Y-125184819D01*
X204874762Y-125184819D02*
X205065238Y-125184819D01*
X205065238Y-125184819D02*
X205160476Y-125232438D01*
X205160476Y-125232438D02*
X205208095Y-125280057D01*
X205208095Y-125280057D02*
X205255714Y-125375295D01*
X205255714Y-125375295D02*
X205255714Y-125422914D01*
X205255714Y-125422914D02*
X205208095Y-125518152D01*
X205208095Y-125518152D02*
X205160476Y-125565771D01*
X205160476Y-125565771D02*
X205065238Y-125613390D01*
X205065238Y-125613390D02*
X204874762Y-125613390D01*
X204874762Y-125613390D02*
X204779524Y-125661009D01*
X204779524Y-125661009D02*
X204731905Y-125708628D01*
X204731905Y-125708628D02*
X204684286Y-125803866D01*
X204684286Y-125803866D02*
X204684286Y-125994342D01*
X204684286Y-125994342D02*
X204731905Y-126089580D01*
X204731905Y-126089580D02*
X204779524Y-126137200D01*
X204779524Y-126137200D02*
X204874762Y-126184819D01*
X204874762Y-126184819D02*
X205065238Y-126184819D01*
X205065238Y-126184819D02*
X205160476Y-126137200D01*
X205160476Y-126137200D02*
X205208095Y-126089580D01*
X205208095Y-126089580D02*
X205255714Y-125994342D01*
X205255714Y-125994342D02*
X205255714Y-125803866D01*
X205255714Y-125803866D02*
X205208095Y-125708628D01*
X205208095Y-125708628D02*
X205160476Y-125661009D01*
X205160476Y-125661009D02*
X205065238Y-125613390D01*
X204303333Y-128724819D02*
X203970000Y-128248628D01*
X203731905Y-128724819D02*
X203731905Y-127724819D01*
X203731905Y-127724819D02*
X204112857Y-127724819D01*
X204112857Y-127724819D02*
X204208095Y-127772438D01*
X204208095Y-127772438D02*
X204255714Y-127820057D01*
X204255714Y-127820057D02*
X204303333Y-127915295D01*
X204303333Y-127915295D02*
X204303333Y-128058152D01*
X204303333Y-128058152D02*
X204255714Y-128153390D01*
X204255714Y-128153390D02*
X204208095Y-128201009D01*
X204208095Y-128201009D02*
X204112857Y-128248628D01*
X204112857Y-128248628D02*
X203731905Y-128248628D01*
X204636667Y-127724819D02*
X205303333Y-128724819D01*
X205303333Y-127724819D02*
X204636667Y-128724819D01*
X203708095Y-130264819D02*
X204279523Y-130264819D01*
X203993809Y-131264819D02*
X203993809Y-130264819D01*
X204517619Y-130264819D02*
X205184285Y-131264819D01*
X205184285Y-130264819D02*
X204517619Y-131264819D01*
X204731904Y-132852438D02*
X204636666Y-132804819D01*
X204636666Y-132804819D02*
X204493809Y-132804819D01*
X204493809Y-132804819D02*
X204350952Y-132852438D01*
X204350952Y-132852438D02*
X204255714Y-132947676D01*
X204255714Y-132947676D02*
X204208095Y-133042914D01*
X204208095Y-133042914D02*
X204160476Y-133233390D01*
X204160476Y-133233390D02*
X204160476Y-133376247D01*
X204160476Y-133376247D02*
X204208095Y-133566723D01*
X204208095Y-133566723D02*
X204255714Y-133661961D01*
X204255714Y-133661961D02*
X204350952Y-133757200D01*
X204350952Y-133757200D02*
X204493809Y-133804819D01*
X204493809Y-133804819D02*
X204589047Y-133804819D01*
X204589047Y-133804819D02*
X204731904Y-133757200D01*
X204731904Y-133757200D02*
X204779523Y-133709580D01*
X204779523Y-133709580D02*
X204779523Y-133376247D01*
X204779523Y-133376247D02*
X204589047Y-133376247D01*
X203708095Y-135344819D02*
X204327142Y-135344819D01*
X204327142Y-135344819D02*
X203993809Y-135725771D01*
X203993809Y-135725771D02*
X204136666Y-135725771D01*
X204136666Y-135725771D02*
X204231904Y-135773390D01*
X204231904Y-135773390D02*
X204279523Y-135821009D01*
X204279523Y-135821009D02*
X204327142Y-135916247D01*
X204327142Y-135916247D02*
X204327142Y-136154342D01*
X204327142Y-136154342D02*
X204279523Y-136249580D01*
X204279523Y-136249580D02*
X204231904Y-136297200D01*
X204231904Y-136297200D02*
X204136666Y-136344819D01*
X204136666Y-136344819D02*
X203850952Y-136344819D01*
X203850952Y-136344819D02*
X203755714Y-136297200D01*
X203755714Y-136297200D02*
X203708095Y-136249580D01*
X204612857Y-135344819D02*
X204946190Y-136344819D01*
X204946190Y-136344819D02*
X205279523Y-135344819D01*
%TO.C,J2*%
D12*
X163720000Y-125730000D02*
X163720000Y-107840000D01*
X166480000Y-107840000D02*
X163720000Y-107840000D01*
X166480000Y-125730000D02*
X163720000Y-125730000D01*
X166480000Y-125730000D02*
X166480000Y-107840000D01*
X166480000Y-127000000D02*
X166480000Y-128380000D01*
X166480000Y-128380000D02*
X165100000Y-128380000D01*
%TO.C,PS1*%
X108642500Y-102990000D02*
X158362500Y-102990000D01*
X108642500Y-114154000D02*
X108642500Y-102990000D01*
X108642500Y-133710000D02*
X108642500Y-114746000D01*
X158362500Y-102990000D02*
X158362500Y-133710000D01*
X158362500Y-133710000D02*
X108642500Y-133710000D01*
X108642500Y-114450000D02*
X108032500Y-114890000D01*
X108032500Y-114010000D01*
X108642500Y-114450000D01*
G36*
X108642500Y-114450000D02*
G01*
X108032500Y-114890000D01*
X108032500Y-114010000D01*
X108642500Y-114450000D01*
G37*
%TO.C,J4*%
X171340000Y-134620000D02*
X171340000Y-98950000D01*
X174100000Y-98950000D02*
X171340000Y-98950000D01*
X174100000Y-134620000D02*
X171340000Y-134620000D01*
X174100000Y-134620000D02*
X174100000Y-98950000D01*
X174100000Y-135890000D02*
X174100000Y-137270000D01*
X174100000Y-137270000D02*
X172720000Y-137270000D01*
%TO.C,J3*%
X211980000Y-134620000D02*
X211980000Y-98950000D01*
X214740000Y-98950000D02*
X211980000Y-98950000D01*
X214740000Y-134620000D02*
X211980000Y-134620000D01*
X214740000Y-134620000D02*
X214740000Y-98950000D01*
X214740000Y-135890000D02*
X214740000Y-137270000D01*
X214740000Y-137270000D02*
X213360000Y-137270000D01*
%TO.C,J1*%
X92300000Y-112000000D02*
X100340000Y-112000000D01*
X92300000Y-122740000D02*
X92300000Y-112000000D01*
X95920000Y-112808000D02*
X95920000Y-112000000D01*
X95920000Y-117740000D02*
X95920000Y-116432000D01*
X95920000Y-122740000D02*
X95920000Y-121500000D01*
X96920000Y-112808000D02*
X96920000Y-112000000D01*
X96920000Y-117740000D02*
X96920000Y-116432000D01*
X96920000Y-122740000D02*
X96920000Y-121500000D01*
X98220000Y-114077000D02*
X98220000Y-112000000D01*
X98220000Y-117740000D02*
X98220000Y-115163000D01*
X98220000Y-122740000D02*
X98220000Y-121500000D01*
X100340000Y-112000000D02*
X100340000Y-119320000D01*
X100340000Y-119920000D02*
X100340000Y-122740000D01*
X100340000Y-122740000D02*
X92300000Y-122740000D01*
X100340000Y-119620000D02*
X100950000Y-119180000D01*
X100950000Y-120060000D01*
X100340000Y-119620000D01*
G36*
X100950000Y-120060000D02*
G01*
X100340000Y-119620000D01*
X100950000Y-119180000D01*
X100950000Y-120060000D01*
G37*
%TO.C,U1*%
D11*
X177800000Y-95250000D02*
X177800000Y-140970000D01*
X187540000Y-101110000D02*
X187540000Y-93980000D01*
X189240000Y-137510000D02*
X196840000Y-137510000D01*
X189240000Y-142240000D02*
X179070000Y-142240000D01*
X189240000Y-143240000D02*
X189240000Y-137510000D01*
X196840000Y-137510000D02*
X196840000Y-143240000D01*
X196840000Y-143240000D02*
X189240000Y-143240000D01*
X198540000Y-93980000D02*
X198540000Y-101110000D01*
X198540000Y-101110000D02*
X187540000Y-101110000D01*
X207010000Y-93980000D02*
X179070000Y-93980000D01*
X207020000Y-142240000D02*
X196850000Y-142240000D01*
X208280000Y-95250000D02*
X208280000Y-140970000D01*
X177800000Y-95250000D02*
G75*
G02*
X179070000Y-93980000I1269999J1D01*
G01*
X179070000Y-142240000D02*
G75*
G02*
X177800000Y-140970000I-1J1269999D01*
G01*
X207010000Y-93980000D02*
G75*
G02*
X208280000Y-95250000I0J-1270000D01*
G01*
X208280000Y-140970000D02*
G75*
G02*
X207010000Y-142240000I-1270000J0D01*
G01*
X182136051Y-96520000D02*
G75*
G02*
X178543949Y-96520000I-1796051J0D01*
G01*
X178543949Y-96520000D02*
G75*
G02*
X182136051Y-96520000I1796051J0D01*
G01*
X182136051Y-139700000D02*
G75*
G02*
X178543949Y-139700000I-1796051J0D01*
G01*
X178543949Y-139700000D02*
G75*
G02*
X182136051Y-139700000I1796051J0D01*
G01*
X207536051Y-96520000D02*
G75*
G02*
X203943949Y-96520000I-1796051J0D01*
G01*
X203943949Y-96520000D02*
G75*
G02*
X207536051Y-96520000I1796051J0D01*
G01*
X207536051Y-139700000D02*
G75*
G02*
X203943949Y-139700000I-1796051J0D01*
G01*
X203943949Y-139700000D02*
G75*
G02*
X207536051Y-139700000I1796051J0D01*
G01*
%TD*%
D13*
%TO.C,U1*%
X179070000Y-100330000D03*
X179070000Y-102870000D03*
X179070000Y-105410000D03*
X179070000Y-107950000D03*
X179070000Y-110490000D03*
X179070000Y-113030000D03*
X179070000Y-115570000D03*
X179070000Y-118110000D03*
X179070000Y-120650000D03*
X179070000Y-123190000D03*
X179070000Y-125730000D03*
X179070000Y-128270000D03*
X179070000Y-130810000D03*
X179070000Y-133350000D03*
X179070000Y-135890000D03*
X207010000Y-135890000D03*
X207010000Y-133350000D03*
X207010000Y-130810000D03*
X207010000Y-128270000D03*
X207010000Y-125730000D03*
X207010000Y-123190000D03*
X207010000Y-120650000D03*
X207010000Y-118110000D03*
X207010000Y-115570000D03*
X207010000Y-113030000D03*
X207010000Y-110490000D03*
X207010000Y-107950000D03*
X207010000Y-105410000D03*
X207010000Y-102870000D03*
X207010000Y-100330000D03*
%TD*%
M02*
