M48
; DRILL file KiCad 10.0.3 date 2026-06-06T17:53:46
; FORMAT={-:-/ absolute / metric / decimal}
; #@! TF.CreationDate,2026-06-06T17:53:46+05:30
; #@! TF.GenerationSoftware,Kicad,Pcbnew,10.0.3
; #@! TF.FileFunction,Plated,1,2,PTH
FMAT,2
METRIC
; #@! TA.AperFunction,Plated,PTH,ComponentDrill
T1C0.762
; #@! TA.AperFunction,Plated,PTH,ComponentDrill
T2C1.000
; #@! TA.AperFunction,Plated,PTH,ComponentDrill
T3C1.300
%
G90
G05
T1
X179.07Y-100.33
X179.07Y-102.87
X179.07Y-105.41
X179.07Y-107.95
X179.07Y-110.49
X179.07Y-113.03
X179.07Y-115.57
X179.07Y-118.11
X179.07Y-120.65
X179.07Y-123.19
X179.07Y-125.73
X179.07Y-128.27
X179.07Y-130.81
X179.07Y-133.35
X179.07Y-135.89
X207.01Y-100.33
X207.01Y-102.87
X207.01Y-105.41
X207.01Y-107.95
X207.01Y-110.49
X207.01Y-113.03
X207.01Y-115.57
X207.01Y-118.11
X207.01Y-120.65
X207.01Y-123.19
X207.01Y-125.73
X207.01Y-128.27
X207.01Y-130.81
X207.01Y-133.35
X207.01Y-135.89
T2
X165.1Y-109.22
X165.1Y-111.76
X165.1Y-114.3
X165.1Y-116.84
X165.1Y-119.38
X165.1Y-121.92
X165.1Y-124.46
X165.1Y-127.0
X172.72Y-100.33
X172.72Y-102.87
X172.72Y-105.41
X172.72Y-107.95
X172.72Y-110.49
X172.72Y-113.03
X172.72Y-115.57
X172.72Y-118.11
X172.72Y-120.65
X172.72Y-123.19
X172.72Y-125.73
X172.72Y-128.27
X172.72Y-130.81
X172.72Y-133.35
X172.72Y-135.89
X213.36Y-100.33
X213.36Y-102.87
X213.36Y-105.41
X213.36Y-107.95
X213.36Y-110.49
X213.36Y-113.03
X213.36Y-115.57
X213.36Y-118.11
X213.36Y-120.65
X213.36Y-123.19
X213.36Y-125.73
X213.36Y-128.27
X213.36Y-130.81
X213.36Y-133.35
X213.36Y-135.89
T3
X96.42Y-114.62
X96.42Y-119.62
X112.252Y-114.45
X112.252Y-122.25
X154.752Y-107.05
X154.752Y-129.65
M30
