%TF.GenerationSoftware,KiCad,Pcbnew,10.0.3*%
%TF.CreationDate,2026-06-06T17:53:42+05:30*%
%TF.ProjectId,MOTOR,4d4f544f-522e-46b6-9963-61645f706362,rev?*%
%TF.SameCoordinates,Original*%
%TF.FileFunction,Profile,NP*%
%FSLAX46Y46*%
G04 Gerber Fmt 4.6, Leading zero omitted, Abs format (unit mm)*
G04 Created by KiCad (PCBNEW 10.0.3) date 2026-06-06 17:53:42*
%MOMM*%
%LPD*%
G01*
G04 APERTURE LIST*
%TA.AperFunction,Profile*%
%ADD10C,0.050000*%
%TD*%
G04 APERTURE END LIST*
D10*
X89000000Y-90000000D02*
X220000000Y-90000000D01*
X220000000Y-146000000D01*
X89000000Y-146000000D01*
X89000000Y-90000000D01*
X92900000Y-116700000D02*
X92900000Y-117700000D01*
X92900000Y-116700000D02*
X99900000Y-116700000D01*
X99900000Y-116700000D02*
X99900000Y-117700000D01*
X99900000Y-117700000D02*
X92900000Y-117700000D01*
X108900000Y-113700000D02*
X108900000Y-117600000D01*
X108900000Y-119200000D02*
X108900000Y-119800000D01*
X108900000Y-120700000D02*
X108900000Y-119800000D01*
X108900000Y-123800000D02*
X108900000Y-120700000D01*
X109000000Y-117600000D02*
X108900000Y-117600000D01*
X109900000Y-113700000D02*
X108900000Y-113700000D01*
X109900000Y-113700000D02*
X109900000Y-116700000D01*
X109900000Y-116700000D02*
X114900000Y-116700000D01*
X109900000Y-120200000D02*
X109900000Y-120700000D01*
X109900000Y-120200000D02*
X115000000Y-120200000D01*
X109900000Y-123800000D02*
X108900000Y-123800000D01*
X109900000Y-123800000D02*
X109900000Y-120700000D01*
X114900000Y-111480000D02*
X115900000Y-111480000D01*
X114900000Y-113700000D02*
X114900000Y-111480000D01*
X114900000Y-113700000D02*
X114900000Y-116700000D01*
X115000000Y-120200000D02*
X115000000Y-126000000D01*
X115000000Y-126000000D02*
X116000000Y-126000000D01*
X115900000Y-111480000D02*
X115900000Y-117600000D01*
X115900000Y-117600000D02*
X109000000Y-117600000D01*
X116000000Y-119200000D02*
X108900000Y-119200000D01*
X116000000Y-120200000D02*
X116000000Y-119200000D01*
X116000000Y-126000000D02*
X116000000Y-120200000D01*
M02*
