%TF.GenerationSoftware,KiCad,Pcbnew,10.0.3*%
%TF.CreationDate,2026-06-06T12:47:51+05:30*%
%TF.ProjectId,MOTOR,4d4f544f-522e-46b6-9963-61645f706362,rev?*%
%TF.SameCoordinates,Original*%
%TF.FileFunction,Legend,Top*%
%TF.FilePolarity,Positive*%
%FSLAX46Y46*%
G04 Gerber Fmt 4.6, Leading zero omitted, Abs format (unit mm)*
G04 Created by KiCad (PCBNEW 10.0.3) date 2026-06-06 12:47:51*
%MOMM*%
%LPD*%
G01*
G04 APERTURE LIST*
%ADD10C,0.150000*%
%ADD11C,0.120000*%
%ADD12C,1.524000*%
G04 APERTURE END LIST*
D10*
X162226666Y-130104819D02*
X162226666Y-130819104D01*
X162226666Y-130819104D02*
X162179047Y-130961961D01*
X162179047Y-130961961D02*
X162083809Y-131057200D01*
X162083809Y-131057200D02*
X161940952Y-131104819D01*
X161940952Y-131104819D02*
X161845714Y-131104819D01*
X162655238Y-130200057D02*
X162702857Y-130152438D01*
X162702857Y-130152438D02*
X162798095Y-130104819D01*
X162798095Y-130104819D02*
X163036190Y-130104819D01*
X163036190Y-130104819D02*
X163131428Y-130152438D01*
X163131428Y-130152438D02*
X163179047Y-130200057D01*
X163179047Y-130200057D02*
X163226666Y-130295295D01*
X163226666Y-130295295D02*
X163226666Y-130390533D01*
X163226666Y-130390533D02*
X163179047Y-130533390D01*
X163179047Y-130533390D02*
X162607619Y-131104819D01*
X162607619Y-131104819D02*
X163226666Y-131104819D01*
X132388214Y-104904819D02*
X132388214Y-103904819D01*
X132388214Y-103904819D02*
X132769166Y-103904819D01*
X132769166Y-103904819D02*
X132864404Y-103952438D01*
X132864404Y-103952438D02*
X132912023Y-104000057D01*
X132912023Y-104000057D02*
X132959642Y-104095295D01*
X132959642Y-104095295D02*
X132959642Y-104238152D01*
X132959642Y-104238152D02*
X132912023Y-104333390D01*
X132912023Y-104333390D02*
X132864404Y-104381009D01*
X132864404Y-104381009D02*
X132769166Y-104428628D01*
X132769166Y-104428628D02*
X132388214Y-104428628D01*
X133340595Y-104857200D02*
X133483452Y-104904819D01*
X133483452Y-104904819D02*
X133721547Y-104904819D01*
X133721547Y-104904819D02*
X133816785Y-104857200D01*
X133816785Y-104857200D02*
X133864404Y-104809580D01*
X133864404Y-104809580D02*
X133912023Y-104714342D01*
X133912023Y-104714342D02*
X133912023Y-104619104D01*
X133912023Y-104619104D02*
X133864404Y-104523866D01*
X133864404Y-104523866D02*
X133816785Y-104476247D01*
X133816785Y-104476247D02*
X133721547Y-104428628D01*
X133721547Y-104428628D02*
X133531071Y-104381009D01*
X133531071Y-104381009D02*
X133435833Y-104333390D01*
X133435833Y-104333390D02*
X133388214Y-104285771D01*
X133388214Y-104285771D02*
X133340595Y-104190533D01*
X133340595Y-104190533D02*
X133340595Y-104095295D01*
X133340595Y-104095295D02*
X133388214Y-104000057D01*
X133388214Y-104000057D02*
X133435833Y-103952438D01*
X133435833Y-103952438D02*
X133531071Y-103904819D01*
X133531071Y-103904819D02*
X133769166Y-103904819D01*
X133769166Y-103904819D02*
X133912023Y-103952438D01*
X134864404Y-104904819D02*
X134292976Y-104904819D01*
X134578690Y-104904819D02*
X134578690Y-103904819D01*
X134578690Y-103904819D02*
X134483452Y-104047676D01*
X134483452Y-104047676D02*
X134388214Y-104142914D01*
X134388214Y-104142914D02*
X134292976Y-104190533D01*
X90854819Y-120003333D02*
X91569104Y-120003333D01*
X91569104Y-120003333D02*
X91711961Y-120050952D01*
X91711961Y-120050952D02*
X91807200Y-120146190D01*
X91807200Y-120146190D02*
X91854819Y-120289047D01*
X91854819Y-120289047D02*
X91854819Y-120384285D01*
X91854819Y-119003333D02*
X91854819Y-119574761D01*
X91854819Y-119289047D02*
X90854819Y-119289047D01*
X90854819Y-119289047D02*
X90997676Y-119384285D01*
X90997676Y-119384285D02*
X91092914Y-119479523D01*
X91092914Y-119479523D02*
X91140533Y-119574761D01*
X182738095Y-118454819D02*
X182738095Y-119264342D01*
X182738095Y-119264342D02*
X182785714Y-119359580D01*
X182785714Y-119359580D02*
X182833333Y-119407200D01*
X182833333Y-119407200D02*
X182928571Y-119454819D01*
X182928571Y-119454819D02*
X183119047Y-119454819D01*
X183119047Y-119454819D02*
X183214285Y-119407200D01*
X183214285Y-119407200D02*
X183261904Y-119359580D01*
X183261904Y-119359580D02*
X183309523Y-119264342D01*
X183309523Y-119264342D02*
X183309523Y-118454819D01*
X184309523Y-119454819D02*
X183738095Y-119454819D01*
X184023809Y-119454819D02*
X184023809Y-118454819D01*
X184023809Y-118454819D02*
X183928571Y-118597676D01*
X183928571Y-118597676D02*
X183833333Y-118692914D01*
X183833333Y-118692914D02*
X183738095Y-118740533D01*
X171355714Y-101389104D02*
X171831904Y-101389104D01*
X171260476Y-101674819D02*
X171593809Y-100674819D01*
X171593809Y-100674819D02*
X171927142Y-101674819D01*
X172450952Y-100674819D02*
X172546190Y-100674819D01*
X172546190Y-100674819D02*
X172641428Y-100722438D01*
X172641428Y-100722438D02*
X172689047Y-100770057D01*
X172689047Y-100770057D02*
X172736666Y-100865295D01*
X172736666Y-100865295D02*
X172784285Y-101055771D01*
X172784285Y-101055771D02*
X172784285Y-101293866D01*
X172784285Y-101293866D02*
X172736666Y-101484342D01*
X172736666Y-101484342D02*
X172689047Y-101579580D01*
X172689047Y-101579580D02*
X172641428Y-101627200D01*
X172641428Y-101627200D02*
X172546190Y-101674819D01*
X172546190Y-101674819D02*
X172450952Y-101674819D01*
X172450952Y-101674819D02*
X172355714Y-101627200D01*
X172355714Y-101627200D02*
X172308095Y-101579580D01*
X172308095Y-101579580D02*
X172260476Y-101484342D01*
X172260476Y-101484342D02*
X172212857Y-101293866D01*
X172212857Y-101293866D02*
X172212857Y-101055771D01*
X172212857Y-101055771D02*
X172260476Y-100865295D01*
X172260476Y-100865295D02*
X172308095Y-100770057D01*
X172308095Y-100770057D02*
X172355714Y-100722438D01*
X172355714Y-100722438D02*
X172450952Y-100674819D01*
X172331904Y-103262438D02*
X172236666Y-103214819D01*
X172236666Y-103214819D02*
X172093809Y-103214819D01*
X172093809Y-103214819D02*
X171950952Y-103262438D01*
X171950952Y-103262438D02*
X171855714Y-103357676D01*
X171855714Y-103357676D02*
X171808095Y-103452914D01*
X171808095Y-103452914D02*
X171760476Y-103643390D01*
X171760476Y-103643390D02*
X171760476Y-103786247D01*
X171760476Y-103786247D02*
X171808095Y-103976723D01*
X171808095Y-103976723D02*
X171855714Y-104071961D01*
X171855714Y-104071961D02*
X171950952Y-104167200D01*
X171950952Y-104167200D02*
X172093809Y-104214819D01*
X172093809Y-104214819D02*
X172189047Y-104214819D01*
X172189047Y-104214819D02*
X172331904Y-104167200D01*
X172331904Y-104167200D02*
X172379523Y-104119580D01*
X172379523Y-104119580D02*
X172379523Y-103786247D01*
X172379523Y-103786247D02*
X172189047Y-103786247D01*
X171212857Y-105754819D02*
X171546190Y-106754819D01*
X171546190Y-106754819D02*
X171879523Y-105754819D01*
X172212857Y-105754819D02*
X172212857Y-106564342D01*
X172212857Y-106564342D02*
X172260476Y-106659580D01*
X172260476Y-106659580D02*
X172308095Y-106707200D01*
X172308095Y-106707200D02*
X172403333Y-106754819D01*
X172403333Y-106754819D02*
X172593809Y-106754819D01*
X172593809Y-106754819D02*
X172689047Y-106707200D01*
X172689047Y-106707200D02*
X172736666Y-106659580D01*
X172736666Y-106659580D02*
X172784285Y-106564342D01*
X172784285Y-106564342D02*
X172784285Y-105754819D01*
X171308095Y-109247200D02*
X171450952Y-109294819D01*
X171450952Y-109294819D02*
X171689047Y-109294819D01*
X171689047Y-109294819D02*
X171784285Y-109247200D01*
X171784285Y-109247200D02*
X171831904Y-109199580D01*
X171831904Y-109199580D02*
X171879523Y-109104342D01*
X171879523Y-109104342D02*
X171879523Y-109009104D01*
X171879523Y-109009104D02*
X171831904Y-108913866D01*
X171831904Y-108913866D02*
X171784285Y-108866247D01*
X171784285Y-108866247D02*
X171689047Y-108818628D01*
X171689047Y-108818628D02*
X171498571Y-108771009D01*
X171498571Y-108771009D02*
X171403333Y-108723390D01*
X171403333Y-108723390D02*
X171355714Y-108675771D01*
X171355714Y-108675771D02*
X171308095Y-108580533D01*
X171308095Y-108580533D02*
X171308095Y-108485295D01*
X171308095Y-108485295D02*
X171355714Y-108390057D01*
X171355714Y-108390057D02*
X171403333Y-108342438D01*
X171403333Y-108342438D02*
X171498571Y-108294819D01*
X171498571Y-108294819D02*
X171736666Y-108294819D01*
X171736666Y-108294819D02*
X171879523Y-108342438D01*
X172212857Y-108294819D02*
X172831904Y-108294819D01*
X172831904Y-108294819D02*
X172498571Y-108675771D01*
X172498571Y-108675771D02*
X172641428Y-108675771D01*
X172641428Y-108675771D02*
X172736666Y-108723390D01*
X172736666Y-108723390D02*
X172784285Y-108771009D01*
X172784285Y-108771009D02*
X172831904Y-108866247D01*
X172831904Y-108866247D02*
X172831904Y-109104342D01*
X172831904Y-109104342D02*
X172784285Y-109199580D01*
X172784285Y-109199580D02*
X172736666Y-109247200D01*
X172736666Y-109247200D02*
X172641428Y-109294819D01*
X172641428Y-109294819D02*
X172355714Y-109294819D01*
X172355714Y-109294819D02*
X172260476Y-109247200D01*
X172260476Y-109247200D02*
X172212857Y-109199580D01*
X171308095Y-111787200D02*
X171450952Y-111834819D01*
X171450952Y-111834819D02*
X171689047Y-111834819D01*
X171689047Y-111834819D02*
X171784285Y-111787200D01*
X171784285Y-111787200D02*
X171831904Y-111739580D01*
X171831904Y-111739580D02*
X171879523Y-111644342D01*
X171879523Y-111644342D02*
X171879523Y-111549104D01*
X171879523Y-111549104D02*
X171831904Y-111453866D01*
X171831904Y-111453866D02*
X171784285Y-111406247D01*
X171784285Y-111406247D02*
X171689047Y-111358628D01*
X171689047Y-111358628D02*
X171498571Y-111311009D01*
X171498571Y-111311009D02*
X171403333Y-111263390D01*
X171403333Y-111263390D02*
X171355714Y-111215771D01*
X171355714Y-111215771D02*
X171308095Y-111120533D01*
X171308095Y-111120533D02*
X171308095Y-111025295D01*
X171308095Y-111025295D02*
X171355714Y-110930057D01*
X171355714Y-110930057D02*
X171403333Y-110882438D01*
X171403333Y-110882438D02*
X171498571Y-110834819D01*
X171498571Y-110834819D02*
X171736666Y-110834819D01*
X171736666Y-110834819D02*
X171879523Y-110882438D01*
X172260476Y-110930057D02*
X172308095Y-110882438D01*
X172308095Y-110882438D02*
X172403333Y-110834819D01*
X172403333Y-110834819D02*
X172641428Y-110834819D01*
X172641428Y-110834819D02*
X172736666Y-110882438D01*
X172736666Y-110882438D02*
X172784285Y-110930057D01*
X172784285Y-110930057D02*
X172831904Y-111025295D01*
X172831904Y-111025295D02*
X172831904Y-111120533D01*
X172831904Y-111120533D02*
X172784285Y-111263390D01*
X172784285Y-111263390D02*
X172212857Y-111834819D01*
X172212857Y-111834819D02*
X172831904Y-111834819D01*
X171308095Y-114327200D02*
X171450952Y-114374819D01*
X171450952Y-114374819D02*
X171689047Y-114374819D01*
X171689047Y-114374819D02*
X171784285Y-114327200D01*
X171784285Y-114327200D02*
X171831904Y-114279580D01*
X171831904Y-114279580D02*
X171879523Y-114184342D01*
X171879523Y-114184342D02*
X171879523Y-114089104D01*
X171879523Y-114089104D02*
X171831904Y-113993866D01*
X171831904Y-113993866D02*
X171784285Y-113946247D01*
X171784285Y-113946247D02*
X171689047Y-113898628D01*
X171689047Y-113898628D02*
X171498571Y-113851009D01*
X171498571Y-113851009D02*
X171403333Y-113803390D01*
X171403333Y-113803390D02*
X171355714Y-113755771D01*
X171355714Y-113755771D02*
X171308095Y-113660533D01*
X171308095Y-113660533D02*
X171308095Y-113565295D01*
X171308095Y-113565295D02*
X171355714Y-113470057D01*
X171355714Y-113470057D02*
X171403333Y-113422438D01*
X171403333Y-113422438D02*
X171498571Y-113374819D01*
X171498571Y-113374819D02*
X171736666Y-113374819D01*
X171736666Y-113374819D02*
X171879523Y-113422438D01*
X172831904Y-114374819D02*
X172260476Y-114374819D01*
X172546190Y-114374819D02*
X172546190Y-113374819D01*
X172546190Y-113374819D02*
X172450952Y-113517676D01*
X172450952Y-113517676D02*
X172355714Y-113612914D01*
X172355714Y-113612914D02*
X172260476Y-113660533D01*
X171284286Y-116867200D02*
X171427143Y-116914819D01*
X171427143Y-116914819D02*
X171665238Y-116914819D01*
X171665238Y-116914819D02*
X171760476Y-116867200D01*
X171760476Y-116867200D02*
X171808095Y-116819580D01*
X171808095Y-116819580D02*
X171855714Y-116724342D01*
X171855714Y-116724342D02*
X171855714Y-116629104D01*
X171855714Y-116629104D02*
X171808095Y-116533866D01*
X171808095Y-116533866D02*
X171760476Y-116486247D01*
X171760476Y-116486247D02*
X171665238Y-116438628D01*
X171665238Y-116438628D02*
X171474762Y-116391009D01*
X171474762Y-116391009D02*
X171379524Y-116343390D01*
X171379524Y-116343390D02*
X171331905Y-116295771D01*
X171331905Y-116295771D02*
X171284286Y-116200533D01*
X171284286Y-116200533D02*
X171284286Y-116105295D01*
X171284286Y-116105295D02*
X171331905Y-116010057D01*
X171331905Y-116010057D02*
X171379524Y-115962438D01*
X171379524Y-115962438D02*
X171474762Y-115914819D01*
X171474762Y-115914819D02*
X171712857Y-115914819D01*
X171712857Y-115914819D02*
X171855714Y-115962438D01*
X172855714Y-116819580D02*
X172808095Y-116867200D01*
X172808095Y-116867200D02*
X172665238Y-116914819D01*
X172665238Y-116914819D02*
X172570000Y-116914819D01*
X172570000Y-116914819D02*
X172427143Y-116867200D01*
X172427143Y-116867200D02*
X172331905Y-116771961D01*
X172331905Y-116771961D02*
X172284286Y-116676723D01*
X172284286Y-116676723D02*
X172236667Y-116486247D01*
X172236667Y-116486247D02*
X172236667Y-116343390D01*
X172236667Y-116343390D02*
X172284286Y-116152914D01*
X172284286Y-116152914D02*
X172331905Y-116057676D01*
X172331905Y-116057676D02*
X172427143Y-115962438D01*
X172427143Y-115962438D02*
X172570000Y-115914819D01*
X172570000Y-115914819D02*
X172665238Y-115914819D01*
X172665238Y-115914819D02*
X172808095Y-115962438D01*
X172808095Y-115962438D02*
X172855714Y-116010057D01*
X171260476Y-119407200D02*
X171403333Y-119454819D01*
X171403333Y-119454819D02*
X171641428Y-119454819D01*
X171641428Y-119454819D02*
X171736666Y-119407200D01*
X171736666Y-119407200D02*
X171784285Y-119359580D01*
X171784285Y-119359580D02*
X171831904Y-119264342D01*
X171831904Y-119264342D02*
X171831904Y-119169104D01*
X171831904Y-119169104D02*
X171784285Y-119073866D01*
X171784285Y-119073866D02*
X171736666Y-119026247D01*
X171736666Y-119026247D02*
X171641428Y-118978628D01*
X171641428Y-118978628D02*
X171450952Y-118931009D01*
X171450952Y-118931009D02*
X171355714Y-118883390D01*
X171355714Y-118883390D02*
X171308095Y-118835771D01*
X171308095Y-118835771D02*
X171260476Y-118740533D01*
X171260476Y-118740533D02*
X171260476Y-118645295D01*
X171260476Y-118645295D02*
X171308095Y-118550057D01*
X171308095Y-118550057D02*
X171355714Y-118502438D01*
X171355714Y-118502438D02*
X171450952Y-118454819D01*
X171450952Y-118454819D02*
X171689047Y-118454819D01*
X171689047Y-118454819D02*
X171831904Y-118502438D01*
X172450952Y-118454819D02*
X172641428Y-118454819D01*
X172641428Y-118454819D02*
X172736666Y-118502438D01*
X172736666Y-118502438D02*
X172831904Y-118597676D01*
X172831904Y-118597676D02*
X172879523Y-118788152D01*
X172879523Y-118788152D02*
X172879523Y-119121485D01*
X172879523Y-119121485D02*
X172831904Y-119311961D01*
X172831904Y-119311961D02*
X172736666Y-119407200D01*
X172736666Y-119407200D02*
X172641428Y-119454819D01*
X172641428Y-119454819D02*
X172450952Y-119454819D01*
X172450952Y-119454819D02*
X172355714Y-119407200D01*
X172355714Y-119407200D02*
X172260476Y-119311961D01*
X172260476Y-119311961D02*
X172212857Y-119121485D01*
X172212857Y-119121485D02*
X172212857Y-118788152D01*
X172212857Y-118788152D02*
X172260476Y-118597676D01*
X172260476Y-118597676D02*
X172355714Y-118502438D01*
X172355714Y-118502438D02*
X172450952Y-118454819D01*
X171284286Y-121947200D02*
X171427143Y-121994819D01*
X171427143Y-121994819D02*
X171665238Y-121994819D01*
X171665238Y-121994819D02*
X171760476Y-121947200D01*
X171760476Y-121947200D02*
X171808095Y-121899580D01*
X171808095Y-121899580D02*
X171855714Y-121804342D01*
X171855714Y-121804342D02*
X171855714Y-121709104D01*
X171855714Y-121709104D02*
X171808095Y-121613866D01*
X171808095Y-121613866D02*
X171760476Y-121566247D01*
X171760476Y-121566247D02*
X171665238Y-121518628D01*
X171665238Y-121518628D02*
X171474762Y-121471009D01*
X171474762Y-121471009D02*
X171379524Y-121423390D01*
X171379524Y-121423390D02*
X171331905Y-121375771D01*
X171331905Y-121375771D02*
X171284286Y-121280533D01*
X171284286Y-121280533D02*
X171284286Y-121185295D01*
X171284286Y-121185295D02*
X171331905Y-121090057D01*
X171331905Y-121090057D02*
X171379524Y-121042438D01*
X171379524Y-121042438D02*
X171474762Y-120994819D01*
X171474762Y-120994819D02*
X171712857Y-120994819D01*
X171712857Y-120994819D02*
X171855714Y-121042438D01*
X172284286Y-121994819D02*
X172284286Y-120994819D01*
X172855714Y-121994819D02*
X172427143Y-121423390D01*
X172855714Y-120994819D02*
X172284286Y-121566247D01*
X172331904Y-123582438D02*
X172236666Y-123534819D01*
X172236666Y-123534819D02*
X172093809Y-123534819D01*
X172093809Y-123534819D02*
X171950952Y-123582438D01*
X171950952Y-123582438D02*
X171855714Y-123677676D01*
X171855714Y-123677676D02*
X171808095Y-123772914D01*
X171808095Y-123772914D02*
X171760476Y-123963390D01*
X171760476Y-123963390D02*
X171760476Y-124106247D01*
X171760476Y-124106247D02*
X171808095Y-124296723D01*
X171808095Y-124296723D02*
X171855714Y-124391961D01*
X171855714Y-124391961D02*
X171950952Y-124487200D01*
X171950952Y-124487200D02*
X172093809Y-124534819D01*
X172093809Y-124534819D02*
X172189047Y-124534819D01*
X172189047Y-124534819D02*
X172331904Y-124487200D01*
X172331904Y-124487200D02*
X172379523Y-124439580D01*
X172379523Y-124439580D02*
X172379523Y-124106247D01*
X172379523Y-124106247D02*
X172189047Y-124106247D01*
X171308095Y-126074819D02*
X171927142Y-126074819D01*
X171927142Y-126074819D02*
X171593809Y-126455771D01*
X171593809Y-126455771D02*
X171736666Y-126455771D01*
X171736666Y-126455771D02*
X171831904Y-126503390D01*
X171831904Y-126503390D02*
X171879523Y-126551009D01*
X171879523Y-126551009D02*
X171927142Y-126646247D01*
X171927142Y-126646247D02*
X171927142Y-126884342D01*
X171927142Y-126884342D02*
X171879523Y-126979580D01*
X171879523Y-126979580D02*
X171831904Y-127027200D01*
X171831904Y-127027200D02*
X171736666Y-127074819D01*
X171736666Y-127074819D02*
X171450952Y-127074819D01*
X171450952Y-127074819D02*
X171355714Y-127027200D01*
X171355714Y-127027200D02*
X171308095Y-126979580D01*
X172212857Y-126074819D02*
X172546190Y-127074819D01*
X172546190Y-127074819D02*
X172879523Y-126074819D01*
X171331905Y-129091009D02*
X171665238Y-129091009D01*
X171808095Y-129614819D02*
X171331905Y-129614819D01*
X171331905Y-129614819D02*
X171331905Y-128614819D01*
X171331905Y-128614819D02*
X171808095Y-128614819D01*
X172236667Y-129614819D02*
X172236667Y-128614819D01*
X172236667Y-128614819D02*
X172808095Y-129614819D01*
X172808095Y-129614819D02*
X172808095Y-128614819D01*
X171522380Y-132154819D02*
X171189047Y-131678628D01*
X170950952Y-132154819D02*
X170950952Y-131154819D01*
X170950952Y-131154819D02*
X171331904Y-131154819D01*
X171331904Y-131154819D02*
X171427142Y-131202438D01*
X171427142Y-131202438D02*
X171474761Y-131250057D01*
X171474761Y-131250057D02*
X171522380Y-131345295D01*
X171522380Y-131345295D02*
X171522380Y-131488152D01*
X171522380Y-131488152D02*
X171474761Y-131583390D01*
X171474761Y-131583390D02*
X171427142Y-131631009D01*
X171427142Y-131631009D02*
X171331904Y-131678628D01*
X171331904Y-131678628D02*
X170950952Y-131678628D01*
X171903333Y-132107200D02*
X172046190Y-132154819D01*
X172046190Y-132154819D02*
X172284285Y-132154819D01*
X172284285Y-132154819D02*
X172379523Y-132107200D01*
X172379523Y-132107200D02*
X172427142Y-132059580D01*
X172427142Y-132059580D02*
X172474761Y-131964342D01*
X172474761Y-131964342D02*
X172474761Y-131869104D01*
X172474761Y-131869104D02*
X172427142Y-131773866D01*
X172427142Y-131773866D02*
X172379523Y-131726247D01*
X172379523Y-131726247D02*
X172284285Y-131678628D01*
X172284285Y-131678628D02*
X172093809Y-131631009D01*
X172093809Y-131631009D02*
X171998571Y-131583390D01*
X171998571Y-131583390D02*
X171950952Y-131535771D01*
X171950952Y-131535771D02*
X171903333Y-131440533D01*
X171903333Y-131440533D02*
X171903333Y-131345295D01*
X171903333Y-131345295D02*
X171950952Y-131250057D01*
X171950952Y-131250057D02*
X171998571Y-131202438D01*
X171998571Y-131202438D02*
X172093809Y-131154819D01*
X172093809Y-131154819D02*
X172331904Y-131154819D01*
X172331904Y-131154819D02*
X172474761Y-131202438D01*
X172760476Y-131154819D02*
X173331904Y-131154819D01*
X173046190Y-132154819D02*
X173046190Y-131154819D01*
X172331904Y-133742438D02*
X172236666Y-133694819D01*
X172236666Y-133694819D02*
X172093809Y-133694819D01*
X172093809Y-133694819D02*
X171950952Y-133742438D01*
X171950952Y-133742438D02*
X171855714Y-133837676D01*
X171855714Y-133837676D02*
X171808095Y-133932914D01*
X171808095Y-133932914D02*
X171760476Y-134123390D01*
X171760476Y-134123390D02*
X171760476Y-134266247D01*
X171760476Y-134266247D02*
X171808095Y-134456723D01*
X171808095Y-134456723D02*
X171855714Y-134551961D01*
X171855714Y-134551961D02*
X171950952Y-134647200D01*
X171950952Y-134647200D02*
X172093809Y-134694819D01*
X172093809Y-134694819D02*
X172189047Y-134694819D01*
X172189047Y-134694819D02*
X172331904Y-134647200D01*
X172331904Y-134647200D02*
X172379523Y-134599580D01*
X172379523Y-134599580D02*
X172379523Y-134266247D01*
X172379523Y-134266247D02*
X172189047Y-134266247D01*
X180047618Y-99134819D02*
X179714285Y-98658628D01*
X179476190Y-99134819D02*
X179476190Y-98134819D01*
X179476190Y-98134819D02*
X179857142Y-98134819D01*
X179857142Y-98134819D02*
X179952380Y-98182438D01*
X179952380Y-98182438D02*
X179999999Y-98230057D01*
X179999999Y-98230057D02*
X180047618Y-98325295D01*
X180047618Y-98325295D02*
X180047618Y-98468152D01*
X180047618Y-98468152D02*
X179999999Y-98563390D01*
X179999999Y-98563390D02*
X179952380Y-98611009D01*
X179952380Y-98611009D02*
X179857142Y-98658628D01*
X179857142Y-98658628D02*
X179476190Y-98658628D01*
X180809523Y-98611009D02*
X180476190Y-98611009D01*
X180476190Y-99134819D02*
X180476190Y-98134819D01*
X180476190Y-98134819D02*
X180952380Y-98134819D01*
X182047619Y-98849104D02*
X182523809Y-98849104D01*
X181952381Y-99134819D02*
X182285714Y-98134819D01*
X182285714Y-98134819D02*
X182619047Y-99134819D01*
X182952381Y-98468152D02*
X182952381Y-99134819D01*
X182952381Y-98563390D02*
X183000000Y-98515771D01*
X183000000Y-98515771D02*
X183095238Y-98468152D01*
X183095238Y-98468152D02*
X183238095Y-98468152D01*
X183238095Y-98468152D02*
X183333333Y-98515771D01*
X183333333Y-98515771D02*
X183380952Y-98611009D01*
X183380952Y-98611009D02*
X183380952Y-99134819D01*
X183714286Y-98468152D02*
X184095238Y-98468152D01*
X183857143Y-98134819D02*
X183857143Y-98991961D01*
X183857143Y-98991961D02*
X183904762Y-99087200D01*
X183904762Y-99087200D02*
X184000000Y-99134819D01*
X184000000Y-99134819D02*
X184095238Y-99134819D01*
X184809524Y-99087200D02*
X184714286Y-99134819D01*
X184714286Y-99134819D02*
X184523810Y-99134819D01*
X184523810Y-99134819D02*
X184428572Y-99087200D01*
X184428572Y-99087200D02*
X184380953Y-98991961D01*
X184380953Y-98991961D02*
X184380953Y-98611009D01*
X184380953Y-98611009D02*
X184428572Y-98515771D01*
X184428572Y-98515771D02*
X184523810Y-98468152D01*
X184523810Y-98468152D02*
X184714286Y-98468152D01*
X184714286Y-98468152D02*
X184809524Y-98515771D01*
X184809524Y-98515771D02*
X184857143Y-98611009D01*
X184857143Y-98611009D02*
X184857143Y-98706247D01*
X184857143Y-98706247D02*
X184380953Y-98801485D01*
X185285715Y-98468152D02*
X185285715Y-99134819D01*
X185285715Y-98563390D02*
X185333334Y-98515771D01*
X185333334Y-98515771D02*
X185428572Y-98468152D01*
X185428572Y-98468152D02*
X185571429Y-98468152D01*
X185571429Y-98468152D02*
X185666667Y-98515771D01*
X185666667Y-98515771D02*
X185714286Y-98611009D01*
X185714286Y-98611009D02*
X185714286Y-99134819D01*
X186190477Y-98468152D02*
X186190477Y-99134819D01*
X186190477Y-98563390D02*
X186238096Y-98515771D01*
X186238096Y-98515771D02*
X186333334Y-98468152D01*
X186333334Y-98468152D02*
X186476191Y-98468152D01*
X186476191Y-98468152D02*
X186571429Y-98515771D01*
X186571429Y-98515771D02*
X186619048Y-98611009D01*
X186619048Y-98611009D02*
X186619048Y-99134819D01*
X187523810Y-99134819D02*
X187523810Y-98611009D01*
X187523810Y-98611009D02*
X187476191Y-98515771D01*
X187476191Y-98515771D02*
X187380953Y-98468152D01*
X187380953Y-98468152D02*
X187190477Y-98468152D01*
X187190477Y-98468152D02*
X187095239Y-98515771D01*
X187523810Y-99087200D02*
X187428572Y-99134819D01*
X187428572Y-99134819D02*
X187190477Y-99134819D01*
X187190477Y-99134819D02*
X187095239Y-99087200D01*
X187095239Y-99087200D02*
X187047620Y-98991961D01*
X187047620Y-98991961D02*
X187047620Y-98896723D01*
X187047620Y-98896723D02*
X187095239Y-98801485D01*
X187095239Y-98801485D02*
X187190477Y-98753866D01*
X187190477Y-98753866D02*
X187428572Y-98753866D01*
X187428572Y-98753866D02*
X187523810Y-98706247D01*
X182238095Y-141314819D02*
X182238095Y-142124342D01*
X182238095Y-142124342D02*
X182285714Y-142219580D01*
X182285714Y-142219580D02*
X182333333Y-142267200D01*
X182333333Y-142267200D02*
X182428571Y-142314819D01*
X182428571Y-142314819D02*
X182619047Y-142314819D01*
X182619047Y-142314819D02*
X182714285Y-142267200D01*
X182714285Y-142267200D02*
X182761904Y-142219580D01*
X182761904Y-142219580D02*
X182809523Y-142124342D01*
X182809523Y-142124342D02*
X182809523Y-141314819D01*
X183238095Y-142267200D02*
X183380952Y-142314819D01*
X183380952Y-142314819D02*
X183619047Y-142314819D01*
X183619047Y-142314819D02*
X183714285Y-142267200D01*
X183714285Y-142267200D02*
X183761904Y-142219580D01*
X183761904Y-142219580D02*
X183809523Y-142124342D01*
X183809523Y-142124342D02*
X183809523Y-142029104D01*
X183809523Y-142029104D02*
X183761904Y-141933866D01*
X183761904Y-141933866D02*
X183714285Y-141886247D01*
X183714285Y-141886247D02*
X183619047Y-141838628D01*
X183619047Y-141838628D02*
X183428571Y-141791009D01*
X183428571Y-141791009D02*
X183333333Y-141743390D01*
X183333333Y-141743390D02*
X183285714Y-141695771D01*
X183285714Y-141695771D02*
X183238095Y-141600533D01*
X183238095Y-141600533D02*
X183238095Y-141505295D01*
X183238095Y-141505295D02*
X183285714Y-141410057D01*
X183285714Y-141410057D02*
X183333333Y-141362438D01*
X183333333Y-141362438D02*
X183428571Y-141314819D01*
X183428571Y-141314819D02*
X183666666Y-141314819D01*
X183666666Y-141314819D02*
X183809523Y-141362438D01*
X184571428Y-141791009D02*
X184714285Y-141838628D01*
X184714285Y-141838628D02*
X184761904Y-141886247D01*
X184761904Y-141886247D02*
X184809523Y-141981485D01*
X184809523Y-141981485D02*
X184809523Y-142124342D01*
X184809523Y-142124342D02*
X184761904Y-142219580D01*
X184761904Y-142219580D02*
X184714285Y-142267200D01*
X184714285Y-142267200D02*
X184619047Y-142314819D01*
X184619047Y-142314819D02*
X184238095Y-142314819D01*
X184238095Y-142314819D02*
X184238095Y-141314819D01*
X184238095Y-141314819D02*
X184571428Y-141314819D01*
X184571428Y-141314819D02*
X184666666Y-141362438D01*
X184666666Y-141362438D02*
X184714285Y-141410057D01*
X184714285Y-141410057D02*
X184761904Y-141505295D01*
X184761904Y-141505295D02*
X184761904Y-141600533D01*
X184761904Y-141600533D02*
X184714285Y-141695771D01*
X184714285Y-141695771D02*
X184666666Y-141743390D01*
X184666666Y-141743390D02*
X184571428Y-141791009D01*
X184571428Y-141791009D02*
X184238095Y-141791009D01*
X194191905Y-101674819D02*
X194191905Y-100674819D01*
X194191905Y-100674819D02*
X194430000Y-100674819D01*
X194430000Y-100674819D02*
X194572857Y-100722438D01*
X194572857Y-100722438D02*
X194668095Y-100817676D01*
X194668095Y-100817676D02*
X194715714Y-100912914D01*
X194715714Y-100912914D02*
X194763333Y-101103390D01*
X194763333Y-101103390D02*
X194763333Y-101246247D01*
X194763333Y-101246247D02*
X194715714Y-101436723D01*
X194715714Y-101436723D02*
X194668095Y-101531961D01*
X194668095Y-101531961D02*
X194572857Y-101627200D01*
X194572857Y-101627200D02*
X194430000Y-101674819D01*
X194430000Y-101674819D02*
X194191905Y-101674819D01*
X195382381Y-100674819D02*
X195477619Y-100674819D01*
X195477619Y-100674819D02*
X195572857Y-100722438D01*
X195572857Y-100722438D02*
X195620476Y-100770057D01*
X195620476Y-100770057D02*
X195668095Y-100865295D01*
X195668095Y-100865295D02*
X195715714Y-101055771D01*
X195715714Y-101055771D02*
X195715714Y-101293866D01*
X195715714Y-101293866D02*
X195668095Y-101484342D01*
X195668095Y-101484342D02*
X195620476Y-101579580D01*
X195620476Y-101579580D02*
X195572857Y-101627200D01*
X195572857Y-101627200D02*
X195477619Y-101674819D01*
X195477619Y-101674819D02*
X195382381Y-101674819D01*
X195382381Y-101674819D02*
X195287143Y-101627200D01*
X195287143Y-101627200D02*
X195239524Y-101579580D01*
X195239524Y-101579580D02*
X195191905Y-101484342D01*
X195191905Y-101484342D02*
X195144286Y-101293866D01*
X195144286Y-101293866D02*
X195144286Y-101055771D01*
X195144286Y-101055771D02*
X195191905Y-100865295D01*
X195191905Y-100865295D02*
X195239524Y-100770057D01*
X195239524Y-100770057D02*
X195287143Y-100722438D01*
X195287143Y-100722438D02*
X195382381Y-100674819D01*
X194191905Y-104214819D02*
X194191905Y-103214819D01*
X194191905Y-103214819D02*
X194430000Y-103214819D01*
X194430000Y-103214819D02*
X194572857Y-103262438D01*
X194572857Y-103262438D02*
X194668095Y-103357676D01*
X194668095Y-103357676D02*
X194715714Y-103452914D01*
X194715714Y-103452914D02*
X194763333Y-103643390D01*
X194763333Y-103643390D02*
X194763333Y-103786247D01*
X194763333Y-103786247D02*
X194715714Y-103976723D01*
X194715714Y-103976723D02*
X194668095Y-104071961D01*
X194668095Y-104071961D02*
X194572857Y-104167200D01*
X194572857Y-104167200D02*
X194430000Y-104214819D01*
X194430000Y-104214819D02*
X194191905Y-104214819D01*
X195715714Y-104214819D02*
X195144286Y-104214819D01*
X195430000Y-104214819D02*
X195430000Y-103214819D01*
X195430000Y-103214819D02*
X195334762Y-103357676D01*
X195334762Y-103357676D02*
X195239524Y-103452914D01*
X195239524Y-103452914D02*
X195144286Y-103500533D01*
X194191905Y-106754819D02*
X194191905Y-105754819D01*
X194191905Y-105754819D02*
X194430000Y-105754819D01*
X194430000Y-105754819D02*
X194572857Y-105802438D01*
X194572857Y-105802438D02*
X194668095Y-105897676D01*
X194668095Y-105897676D02*
X194715714Y-105992914D01*
X194715714Y-105992914D02*
X194763333Y-106183390D01*
X194763333Y-106183390D02*
X194763333Y-106326247D01*
X194763333Y-106326247D02*
X194715714Y-106516723D01*
X194715714Y-106516723D02*
X194668095Y-106611961D01*
X194668095Y-106611961D02*
X194572857Y-106707200D01*
X194572857Y-106707200D02*
X194430000Y-106754819D01*
X194430000Y-106754819D02*
X194191905Y-106754819D01*
X195144286Y-105850057D02*
X195191905Y-105802438D01*
X195191905Y-105802438D02*
X195287143Y-105754819D01*
X195287143Y-105754819D02*
X195525238Y-105754819D01*
X195525238Y-105754819D02*
X195620476Y-105802438D01*
X195620476Y-105802438D02*
X195668095Y-105850057D01*
X195668095Y-105850057D02*
X195715714Y-105945295D01*
X195715714Y-105945295D02*
X195715714Y-106040533D01*
X195715714Y-106040533D02*
X195668095Y-106183390D01*
X195668095Y-106183390D02*
X195096667Y-106754819D01*
X195096667Y-106754819D02*
X195715714Y-106754819D01*
X194191905Y-109294819D02*
X194191905Y-108294819D01*
X194191905Y-108294819D02*
X194430000Y-108294819D01*
X194430000Y-108294819D02*
X194572857Y-108342438D01*
X194572857Y-108342438D02*
X194668095Y-108437676D01*
X194668095Y-108437676D02*
X194715714Y-108532914D01*
X194715714Y-108532914D02*
X194763333Y-108723390D01*
X194763333Y-108723390D02*
X194763333Y-108866247D01*
X194763333Y-108866247D02*
X194715714Y-109056723D01*
X194715714Y-109056723D02*
X194668095Y-109151961D01*
X194668095Y-109151961D02*
X194572857Y-109247200D01*
X194572857Y-109247200D02*
X194430000Y-109294819D01*
X194430000Y-109294819D02*
X194191905Y-109294819D01*
X195096667Y-108294819D02*
X195715714Y-108294819D01*
X195715714Y-108294819D02*
X195382381Y-108675771D01*
X195382381Y-108675771D02*
X195525238Y-108675771D01*
X195525238Y-108675771D02*
X195620476Y-108723390D01*
X195620476Y-108723390D02*
X195668095Y-108771009D01*
X195668095Y-108771009D02*
X195715714Y-108866247D01*
X195715714Y-108866247D02*
X195715714Y-109104342D01*
X195715714Y-109104342D02*
X195668095Y-109199580D01*
X195668095Y-109199580D02*
X195620476Y-109247200D01*
X195620476Y-109247200D02*
X195525238Y-109294819D01*
X195525238Y-109294819D02*
X195239524Y-109294819D01*
X195239524Y-109294819D02*
X195144286Y-109247200D01*
X195144286Y-109247200D02*
X195096667Y-109199580D01*
X194191905Y-111834819D02*
X194191905Y-110834819D01*
X194191905Y-110834819D02*
X194430000Y-110834819D01*
X194430000Y-110834819D02*
X194572857Y-110882438D01*
X194572857Y-110882438D02*
X194668095Y-110977676D01*
X194668095Y-110977676D02*
X194715714Y-111072914D01*
X194715714Y-111072914D02*
X194763333Y-111263390D01*
X194763333Y-111263390D02*
X194763333Y-111406247D01*
X194763333Y-111406247D02*
X194715714Y-111596723D01*
X194715714Y-111596723D02*
X194668095Y-111691961D01*
X194668095Y-111691961D02*
X194572857Y-111787200D01*
X194572857Y-111787200D02*
X194430000Y-111834819D01*
X194430000Y-111834819D02*
X194191905Y-111834819D01*
X195620476Y-111168152D02*
X195620476Y-111834819D01*
X195382381Y-110787200D02*
X195144286Y-111501485D01*
X195144286Y-111501485D02*
X195763333Y-111501485D01*
X194168095Y-113374819D02*
X194787142Y-113374819D01*
X194787142Y-113374819D02*
X194453809Y-113755771D01*
X194453809Y-113755771D02*
X194596666Y-113755771D01*
X194596666Y-113755771D02*
X194691904Y-113803390D01*
X194691904Y-113803390D02*
X194739523Y-113851009D01*
X194739523Y-113851009D02*
X194787142Y-113946247D01*
X194787142Y-113946247D02*
X194787142Y-114184342D01*
X194787142Y-114184342D02*
X194739523Y-114279580D01*
X194739523Y-114279580D02*
X194691904Y-114327200D01*
X194691904Y-114327200D02*
X194596666Y-114374819D01*
X194596666Y-114374819D02*
X194310952Y-114374819D01*
X194310952Y-114374819D02*
X194215714Y-114327200D01*
X194215714Y-114327200D02*
X194168095Y-114279580D01*
X195072857Y-113374819D02*
X195406190Y-114374819D01*
X195406190Y-114374819D02*
X195739523Y-113374819D01*
X195191904Y-115962438D02*
X195096666Y-115914819D01*
X195096666Y-115914819D02*
X194953809Y-115914819D01*
X194953809Y-115914819D02*
X194810952Y-115962438D01*
X194810952Y-115962438D02*
X194715714Y-116057676D01*
X194715714Y-116057676D02*
X194668095Y-116152914D01*
X194668095Y-116152914D02*
X194620476Y-116343390D01*
X194620476Y-116343390D02*
X194620476Y-116486247D01*
X194620476Y-116486247D02*
X194668095Y-116676723D01*
X194668095Y-116676723D02*
X194715714Y-116771961D01*
X194715714Y-116771961D02*
X194810952Y-116867200D01*
X194810952Y-116867200D02*
X194953809Y-116914819D01*
X194953809Y-116914819D02*
X195049047Y-116914819D01*
X195049047Y-116914819D02*
X195191904Y-116867200D01*
X195191904Y-116867200D02*
X195239523Y-116819580D01*
X195239523Y-116819580D02*
X195239523Y-116486247D01*
X195239523Y-116486247D02*
X195049047Y-116486247D01*
X194191905Y-119454819D02*
X194191905Y-118454819D01*
X194191905Y-118454819D02*
X194430000Y-118454819D01*
X194430000Y-118454819D02*
X194572857Y-118502438D01*
X194572857Y-118502438D02*
X194668095Y-118597676D01*
X194668095Y-118597676D02*
X194715714Y-118692914D01*
X194715714Y-118692914D02*
X194763333Y-118883390D01*
X194763333Y-118883390D02*
X194763333Y-119026247D01*
X194763333Y-119026247D02*
X194715714Y-119216723D01*
X194715714Y-119216723D02*
X194668095Y-119311961D01*
X194668095Y-119311961D02*
X194572857Y-119407200D01*
X194572857Y-119407200D02*
X194430000Y-119454819D01*
X194430000Y-119454819D02*
X194191905Y-119454819D01*
X195668095Y-118454819D02*
X195191905Y-118454819D01*
X195191905Y-118454819D02*
X195144286Y-118931009D01*
X195144286Y-118931009D02*
X195191905Y-118883390D01*
X195191905Y-118883390D02*
X195287143Y-118835771D01*
X195287143Y-118835771D02*
X195525238Y-118835771D01*
X195525238Y-118835771D02*
X195620476Y-118883390D01*
X195620476Y-118883390D02*
X195668095Y-118931009D01*
X195668095Y-118931009D02*
X195715714Y-119026247D01*
X195715714Y-119026247D02*
X195715714Y-119264342D01*
X195715714Y-119264342D02*
X195668095Y-119359580D01*
X195668095Y-119359580D02*
X195620476Y-119407200D01*
X195620476Y-119407200D02*
X195525238Y-119454819D01*
X195525238Y-119454819D02*
X195287143Y-119454819D01*
X195287143Y-119454819D02*
X195191905Y-119407200D01*
X195191905Y-119407200D02*
X195144286Y-119359580D01*
X194191905Y-121994819D02*
X194191905Y-120994819D01*
X194191905Y-120994819D02*
X194430000Y-120994819D01*
X194430000Y-120994819D02*
X194572857Y-121042438D01*
X194572857Y-121042438D02*
X194668095Y-121137676D01*
X194668095Y-121137676D02*
X194715714Y-121232914D01*
X194715714Y-121232914D02*
X194763333Y-121423390D01*
X194763333Y-121423390D02*
X194763333Y-121566247D01*
X194763333Y-121566247D02*
X194715714Y-121756723D01*
X194715714Y-121756723D02*
X194668095Y-121851961D01*
X194668095Y-121851961D02*
X194572857Y-121947200D01*
X194572857Y-121947200D02*
X194430000Y-121994819D01*
X194430000Y-121994819D02*
X194191905Y-121994819D01*
X195620476Y-120994819D02*
X195430000Y-120994819D01*
X195430000Y-120994819D02*
X195334762Y-121042438D01*
X195334762Y-121042438D02*
X195287143Y-121090057D01*
X195287143Y-121090057D02*
X195191905Y-121232914D01*
X195191905Y-121232914D02*
X195144286Y-121423390D01*
X195144286Y-121423390D02*
X195144286Y-121804342D01*
X195144286Y-121804342D02*
X195191905Y-121899580D01*
X195191905Y-121899580D02*
X195239524Y-121947200D01*
X195239524Y-121947200D02*
X195334762Y-121994819D01*
X195334762Y-121994819D02*
X195525238Y-121994819D01*
X195525238Y-121994819D02*
X195620476Y-121947200D01*
X195620476Y-121947200D02*
X195668095Y-121899580D01*
X195668095Y-121899580D02*
X195715714Y-121804342D01*
X195715714Y-121804342D02*
X195715714Y-121566247D01*
X195715714Y-121566247D02*
X195668095Y-121471009D01*
X195668095Y-121471009D02*
X195620476Y-121423390D01*
X195620476Y-121423390D02*
X195525238Y-121375771D01*
X195525238Y-121375771D02*
X195334762Y-121375771D01*
X195334762Y-121375771D02*
X195239524Y-121423390D01*
X195239524Y-121423390D02*
X195191905Y-121471009D01*
X195191905Y-121471009D02*
X195144286Y-121566247D01*
X194191905Y-124534819D02*
X194191905Y-123534819D01*
X194191905Y-123534819D02*
X194430000Y-123534819D01*
X194430000Y-123534819D02*
X194572857Y-123582438D01*
X194572857Y-123582438D02*
X194668095Y-123677676D01*
X194668095Y-123677676D02*
X194715714Y-123772914D01*
X194715714Y-123772914D02*
X194763333Y-123963390D01*
X194763333Y-123963390D02*
X194763333Y-124106247D01*
X194763333Y-124106247D02*
X194715714Y-124296723D01*
X194715714Y-124296723D02*
X194668095Y-124391961D01*
X194668095Y-124391961D02*
X194572857Y-124487200D01*
X194572857Y-124487200D02*
X194430000Y-124534819D01*
X194430000Y-124534819D02*
X194191905Y-124534819D01*
X195096667Y-123534819D02*
X195763333Y-123534819D01*
X195763333Y-123534819D02*
X195334762Y-124534819D01*
X194191905Y-127074819D02*
X194191905Y-126074819D01*
X194191905Y-126074819D02*
X194430000Y-126074819D01*
X194430000Y-126074819D02*
X194572857Y-126122438D01*
X194572857Y-126122438D02*
X194668095Y-126217676D01*
X194668095Y-126217676D02*
X194715714Y-126312914D01*
X194715714Y-126312914D02*
X194763333Y-126503390D01*
X194763333Y-126503390D02*
X194763333Y-126646247D01*
X194763333Y-126646247D02*
X194715714Y-126836723D01*
X194715714Y-126836723D02*
X194668095Y-126931961D01*
X194668095Y-126931961D02*
X194572857Y-127027200D01*
X194572857Y-127027200D02*
X194430000Y-127074819D01*
X194430000Y-127074819D02*
X194191905Y-127074819D01*
X195334762Y-126503390D02*
X195239524Y-126455771D01*
X195239524Y-126455771D02*
X195191905Y-126408152D01*
X195191905Y-126408152D02*
X195144286Y-126312914D01*
X195144286Y-126312914D02*
X195144286Y-126265295D01*
X195144286Y-126265295D02*
X195191905Y-126170057D01*
X195191905Y-126170057D02*
X195239524Y-126122438D01*
X195239524Y-126122438D02*
X195334762Y-126074819D01*
X195334762Y-126074819D02*
X195525238Y-126074819D01*
X195525238Y-126074819D02*
X195620476Y-126122438D01*
X195620476Y-126122438D02*
X195668095Y-126170057D01*
X195668095Y-126170057D02*
X195715714Y-126265295D01*
X195715714Y-126265295D02*
X195715714Y-126312914D01*
X195715714Y-126312914D02*
X195668095Y-126408152D01*
X195668095Y-126408152D02*
X195620476Y-126455771D01*
X195620476Y-126455771D02*
X195525238Y-126503390D01*
X195525238Y-126503390D02*
X195334762Y-126503390D01*
X195334762Y-126503390D02*
X195239524Y-126551009D01*
X195239524Y-126551009D02*
X195191905Y-126598628D01*
X195191905Y-126598628D02*
X195144286Y-126693866D01*
X195144286Y-126693866D02*
X195144286Y-126884342D01*
X195144286Y-126884342D02*
X195191905Y-126979580D01*
X195191905Y-126979580D02*
X195239524Y-127027200D01*
X195239524Y-127027200D02*
X195334762Y-127074819D01*
X195334762Y-127074819D02*
X195525238Y-127074819D01*
X195525238Y-127074819D02*
X195620476Y-127027200D01*
X195620476Y-127027200D02*
X195668095Y-126979580D01*
X195668095Y-126979580D02*
X195715714Y-126884342D01*
X195715714Y-126884342D02*
X195715714Y-126693866D01*
X195715714Y-126693866D02*
X195668095Y-126598628D01*
X195668095Y-126598628D02*
X195620476Y-126551009D01*
X195620476Y-126551009D02*
X195525238Y-126503390D01*
X194763333Y-129614819D02*
X194430000Y-129138628D01*
X194191905Y-129614819D02*
X194191905Y-128614819D01*
X194191905Y-128614819D02*
X194572857Y-128614819D01*
X194572857Y-128614819D02*
X194668095Y-128662438D01*
X194668095Y-128662438D02*
X194715714Y-128710057D01*
X194715714Y-128710057D02*
X194763333Y-128805295D01*
X194763333Y-128805295D02*
X194763333Y-128948152D01*
X194763333Y-128948152D02*
X194715714Y-129043390D01*
X194715714Y-129043390D02*
X194668095Y-129091009D01*
X194668095Y-129091009D02*
X194572857Y-129138628D01*
X194572857Y-129138628D02*
X194191905Y-129138628D01*
X195096667Y-128614819D02*
X195763333Y-129614819D01*
X195763333Y-128614819D02*
X195096667Y-129614819D01*
X194168095Y-131154819D02*
X194739523Y-131154819D01*
X194453809Y-132154819D02*
X194453809Y-131154819D01*
X194977619Y-131154819D02*
X195644285Y-132154819D01*
X195644285Y-131154819D02*
X194977619Y-132154819D01*
X195191904Y-133742438D02*
X195096666Y-133694819D01*
X195096666Y-133694819D02*
X194953809Y-133694819D01*
X194953809Y-133694819D02*
X194810952Y-133742438D01*
X194810952Y-133742438D02*
X194715714Y-133837676D01*
X194715714Y-133837676D02*
X194668095Y-133932914D01*
X194668095Y-133932914D02*
X194620476Y-134123390D01*
X194620476Y-134123390D02*
X194620476Y-134266247D01*
X194620476Y-134266247D02*
X194668095Y-134456723D01*
X194668095Y-134456723D02*
X194715714Y-134551961D01*
X194715714Y-134551961D02*
X194810952Y-134647200D01*
X194810952Y-134647200D02*
X194953809Y-134694819D01*
X194953809Y-134694819D02*
X195049047Y-134694819D01*
X195049047Y-134694819D02*
X195191904Y-134647200D01*
X195191904Y-134647200D02*
X195239523Y-134599580D01*
X195239523Y-134599580D02*
X195239523Y-134266247D01*
X195239523Y-134266247D02*
X195049047Y-134266247D01*
X194168095Y-136234819D02*
X194787142Y-136234819D01*
X194787142Y-136234819D02*
X194453809Y-136615771D01*
X194453809Y-136615771D02*
X194596666Y-136615771D01*
X194596666Y-136615771D02*
X194691904Y-136663390D01*
X194691904Y-136663390D02*
X194739523Y-136711009D01*
X194739523Y-136711009D02*
X194787142Y-136806247D01*
X194787142Y-136806247D02*
X194787142Y-137044342D01*
X194787142Y-137044342D02*
X194739523Y-137139580D01*
X194739523Y-137139580D02*
X194691904Y-137187200D01*
X194691904Y-137187200D02*
X194596666Y-137234819D01*
X194596666Y-137234819D02*
X194310952Y-137234819D01*
X194310952Y-137234819D02*
X194215714Y-137187200D01*
X194215714Y-137187200D02*
X194168095Y-137139580D01*
X195072857Y-136234819D02*
X195406190Y-137234819D01*
X195406190Y-137234819D02*
X195739523Y-136234819D01*
%TO.C,J2*%
D11*
X161180000Y-127000000D02*
X161180000Y-109110000D01*
X163940000Y-109110000D02*
X161180000Y-109110000D01*
X163940000Y-127000000D02*
X161180000Y-127000000D01*
X163940000Y-127000000D02*
X163940000Y-109110000D01*
X163940000Y-128270000D02*
X163940000Y-129650000D01*
X163940000Y-129650000D02*
X162560000Y-129650000D01*
%TO.C,PS1*%
X108742500Y-105290000D02*
X158462500Y-105290000D01*
X108742500Y-116454000D02*
X108742500Y-105290000D01*
X108742500Y-136010000D02*
X108742500Y-117046000D01*
X158462500Y-105290000D02*
X158462500Y-136010000D01*
X158462500Y-136010000D02*
X108742500Y-136010000D01*
X108742500Y-116750000D02*
X108132500Y-117190000D01*
X108132500Y-116310000D01*
X108742500Y-116750000D01*
G36*
X108742500Y-116750000D02*
G01*
X108132500Y-117190000D01*
X108132500Y-116310000D01*
X108742500Y-116750000D01*
G37*
%TO.C,J1*%
X92400000Y-114300000D02*
X100440000Y-114300000D01*
X92400000Y-125040000D02*
X92400000Y-114300000D01*
X96020000Y-115108000D02*
X96020000Y-114300000D01*
X96020000Y-120040000D02*
X96020000Y-118732000D01*
X96020000Y-125040000D02*
X96020000Y-123800000D01*
X97020000Y-115108000D02*
X97020000Y-114300000D01*
X97020000Y-120040000D02*
X97020000Y-118732000D01*
X97020000Y-125040000D02*
X97020000Y-123800000D01*
X98320000Y-116377000D02*
X98320000Y-114300000D01*
X98320000Y-120040000D02*
X98320000Y-117463000D01*
X98320000Y-125040000D02*
X98320000Y-123800000D01*
X100440000Y-114300000D02*
X100440000Y-121620000D01*
X100440000Y-122220000D02*
X100440000Y-125040000D01*
X100440000Y-125040000D02*
X92400000Y-125040000D01*
X100440000Y-121920000D02*
X101050000Y-121480000D01*
X101050000Y-122360000D01*
X100440000Y-121920000D01*
G36*
X101050000Y-122360000D02*
G01*
X100440000Y-121920000D01*
X101050000Y-121480000D01*
X101050000Y-122360000D01*
G37*
%TO.C,U1*%
D10*
X168260000Y-96140000D02*
X168260000Y-141860000D01*
X178000000Y-102000000D02*
X178000000Y-94870000D01*
X179700000Y-138400000D02*
X187300000Y-138400000D01*
X179700000Y-143130000D02*
X169530000Y-143130000D01*
X179700000Y-144130000D02*
X179700000Y-138400000D01*
X187300000Y-138400000D02*
X187300000Y-144130000D01*
X187300000Y-144130000D02*
X179700000Y-144130000D01*
X189000000Y-94870000D02*
X189000000Y-102000000D01*
X189000000Y-102000000D02*
X178000000Y-102000000D01*
X197470000Y-94870000D02*
X169530000Y-94870000D01*
X197480000Y-143130000D02*
X187310000Y-143130000D01*
X198740000Y-96140000D02*
X198740000Y-141860000D01*
X168260000Y-96140000D02*
G75*
G02*
X169530000Y-94870000I1269999J1D01*
G01*
X169530000Y-143130000D02*
G75*
G02*
X168260000Y-141860000I-1J1269999D01*
G01*
X197470000Y-94870000D02*
G75*
G02*
X198740000Y-96140000I0J-1270000D01*
G01*
X198740000Y-141860000D02*
G75*
G02*
X197470000Y-143130000I-1270000J0D01*
G01*
X172596051Y-97410000D02*
G75*
G02*
X169003949Y-97410000I-1796051J0D01*
G01*
X169003949Y-97410000D02*
G75*
G02*
X172596051Y-97410000I1796051J0D01*
G01*
X172596051Y-140590000D02*
G75*
G02*
X169003949Y-140590000I-1796051J0D01*
G01*
X169003949Y-140590000D02*
G75*
G02*
X172596051Y-140590000I1796051J0D01*
G01*
X197996051Y-97410000D02*
G75*
G02*
X194403949Y-97410000I-1796051J0D01*
G01*
X194403949Y-97410000D02*
G75*
G02*
X197996051Y-97410000I1796051J0D01*
G01*
X197996051Y-140590000D02*
G75*
G02*
X194403949Y-140590000I-1796051J0D01*
G01*
X194403949Y-140590000D02*
G75*
G02*
X197996051Y-140590000I1796051J0D01*
G01*
%TD*%
D12*
%TO.C,U1*%
X169530000Y-101220000D03*
X169530000Y-103760000D03*
X169530000Y-106300000D03*
X169530000Y-108840000D03*
X169530000Y-111380000D03*
X169530000Y-113920000D03*
X169530000Y-116460000D03*
X169530000Y-119000000D03*
X169530000Y-121540000D03*
X169530000Y-124080000D03*
X169530000Y-126620000D03*
X169530000Y-129160000D03*
X169530000Y-131700000D03*
X169530000Y-134240000D03*
X169530000Y-136780000D03*
X197470000Y-136780000D03*
X197470000Y-134240000D03*
X197470000Y-131700000D03*
X197470000Y-129160000D03*
X197470000Y-126620000D03*
X197470000Y-124080000D03*
X197470000Y-121540000D03*
X197470000Y-119000000D03*
X197470000Y-116460000D03*
X197470000Y-113920000D03*
X197470000Y-111380000D03*
X197470000Y-108840000D03*
X197470000Y-106300000D03*
X197470000Y-103760000D03*
X197470000Y-101220000D03*
%TD*%
M02*
