%TF.GenerationSoftware,KiCad,Pcbnew,10.0.3*%
%TF.CreationDate,2026-06-06T12:47:50+05:30*%
%TF.ProjectId,MOTOR,4d4f544f-522e-46b6-9963-61645f706362,rev?*%
%TF.SameCoordinates,Original*%
%TF.FileFunction,Copper,L2,Bot*%
%TF.FilePolarity,Positive*%
%FSLAX46Y46*%
G04 Gerber Fmt 4.6, Leading zero omitted, Abs format (unit mm)*
G04 Created by KiCad (PCBNEW 10.0.3) date 2026-06-06 12:47:50*
%MOMM*%
%LPD*%
G01*
G04 APERTURE LIST*
G04 Aperture macros list*
%AMRoundRect*
0 Rectangle with rounded corners*
0 $1 Rounding radius*
0 $2 $3 $4 $5 $6 $7 $8 $9 X,Y pos of 4 corners*
0 Add a 4 corners polygon primitive as box body*
4,1,4,$2,$3,$4,$5,$6,$7,$8,$9,$2,$3,0*
0 Add four circle primitives for the rounded corners*
1,1,$1+$1,$2,$3*
1,1,$1+$1,$4,$5*
1,1,$1+$1,$6,$7*
1,1,$1+$1,$8,$9*
0 Add four rect primitives between the rounded corners*
20,1,$1+$1,$2,$3,$4,$5,0*
20,1,$1+$1,$4,$5,$6,$7,0*
20,1,$1+$1,$6,$7,$8,$9,0*
20,1,$1+$1,$8,$9,$2,$3,0*%
G04 Aperture macros list end*
%TA.AperFunction,ComponentPad*%
%ADD10R,1.700000X1.700000*%
%TD*%
%TA.AperFunction,ComponentPad*%
%ADD11C,1.700000*%
%TD*%
%TA.AperFunction,ComponentPad*%
%ADD12RoundRect,0.250000X-0.750000X-0.900000X0.750000X-0.900000X0.750000X0.900000X-0.750000X0.900000X0*%
%TD*%
%TA.AperFunction,ComponentPad*%
%ADD13O,2.000000X2.300000*%
%TD*%
%TA.AperFunction,ComponentPad*%
%ADD14RoundRect,0.250001X1.149999X-1.149999X1.149999X1.149999X-1.149999X1.149999X-1.149999X-1.149999X0*%
%TD*%
%TA.AperFunction,ComponentPad*%
%ADD15C,2.800000*%
%TD*%
%TA.AperFunction,ComponentPad*%
%ADD16C,1.524000*%
%TD*%
G04 APERTURE END LIST*
D10*
%TO.P,J2,1,Pin_1_1*%
%TO.N,VCC*%
X162560000Y-128270000D03*
D11*
%TO.P,J2,2,Pin_2_2*%
X162560000Y-125730000D03*
%TO.P,J2,3,Pin_3_3*%
X162560000Y-123190000D03*
%TO.P,J2,4,Pin_4_4*%
X162560000Y-120650000D03*
%TO.P,J2,5,Pin_5_5*%
%TO.N,GND*%
X162560000Y-118110000D03*
%TO.P,J2,6,Pin_6_6*%
X162560000Y-115570000D03*
%TO.P,J2,7,Pin_7_7*%
X162560000Y-113030000D03*
%TO.P,J2,8,Pin_8_8*%
X162560000Y-110490000D03*
%TD*%
D12*
%TO.P,PS1,1,AC/L_1*%
%TO.N,/AC_L*%
X112352500Y-116750000D03*
D13*
%TO.P,PS1,2,AC/N_2*%
%TO.N,/AC_N*%
X112352500Y-124550000D03*
%TO.P,PS1,3,-Vout_3*%
%TO.N,GND*%
X154852500Y-109350000D03*
%TO.P,PS1,4,+Vout_4*%
%TO.N,VCC*%
X154852500Y-131950000D03*
%TD*%
D14*
%TO.P,J1,1,Pin_1_1*%
%TO.N,/AC_N*%
X96520000Y-121920000D03*
D15*
%TO.P,J1,2,Pin_2_2*%
%TO.N,/AC_L*%
X96520000Y-116920000D03*
%TD*%
D16*
%TO.P,U1,1,A0(ADC0)_1*%
%TO.N,unconnected-(U1-A0(ADC0)-Pad1)*%
X169530000Y-101220000D03*
%TO.P,U1,2,RSV_2*%
%TO.N,unconnected-(U1-RSV-Pad2)*%
X169530000Y-103760000D03*
%TO.P,U1,3,RSV_3*%
%TO.N,unconnected-(U1-RSV-Pad3)*%
X169530000Y-106300000D03*
%TO.P,U1,4,SD3(GPIO10)_4*%
%TO.N,unconnected-(U1-SD3(GPIO10)-Pad4)*%
X169530000Y-108840000D03*
%TO.P,U1,5,SD2(GPIO9)_5*%
%TO.N,unconnected-(U1-SD2(GPIO9)-Pad5)*%
X169530000Y-111380000D03*
%TO.P,U1,6,SD1(MOSI)_6*%
%TO.N,unconnected-(U1-SD1(MOSI)-Pad6)*%
X169530000Y-113920000D03*
%TO.P,U1,7,CMD(CS)_7*%
%TO.N,unconnected-(U1-CMD(CS)-Pad7)*%
X169530000Y-116460000D03*
%TO.P,U1,8,SDO(MISO)_8*%
%TO.N,unconnected-(U1-SDO(MISO)-Pad8)*%
X169530000Y-119000000D03*
%TO.P,U1,9,CLK(SCLK)_9*%
%TO.N,unconnected-(U1-CLK(SCLK)-Pad9)*%
X169530000Y-121540000D03*
%TO.P,U1,10,GND_10*%
%TO.N,unconnected-(U1-GND-Pad10)*%
X169530000Y-124080000D03*
%TO.P,U1,11,3.3V_11*%
%TO.N,unconnected-(U1-3.3V-Pad11)*%
X169530000Y-126620000D03*
%TO.P,U1,12,EN_12*%
%TO.N,unconnected-(U1-EN-Pad12)*%
X169530000Y-129160000D03*
%TO.P,U1,13,RST_13*%
%TO.N,unconnected-(U1-RST-Pad13)*%
X169530000Y-131700000D03*
%TO.P,U1,14,GND_14*%
%TO.N,GND*%
X169530000Y-134240000D03*
%TO.P,U1,15,VIN_15*%
%TO.N,VCC*%
X169530000Y-136780000D03*
%TO.P,U1,16,3.3V_16*%
%TO.N,unconnected-(U1-3.3V-Pad16)*%
X197470000Y-136780000D03*
%TO.P,U1,17,GND_17*%
%TO.N,unconnected-(U1-GND-Pad17)*%
X197470000Y-134240000D03*
%TO.P,U1,18,TX(GPIO1)_18*%
%TO.N,unconnected-(U1-TX(GPIO1)-Pad18)*%
X197470000Y-131700000D03*
%TO.P,U1,19,RX(DPIO3)_19*%
%TO.N,unconnected-(U1-RX(DPIO3)-Pad19)*%
X197470000Y-129160000D03*
%TO.P,U1,20,D8(GPIO15)_20*%
%TO.N,unconnected-(U1-D8(GPIO15)-Pad20)*%
X197470000Y-126620000D03*
%TO.P,U1,21,D7(GPIO13)_21*%
%TO.N,unconnected-(U1-D7(GPIO13)-Pad21)*%
X197470000Y-124080000D03*
%TO.P,U1,22,D6(GPIO12)_22*%
%TO.N,unconnected-(U1-D6(GPIO12)-Pad22)*%
X197470000Y-121540000D03*
%TO.P,U1,23,D5(GPIO14)_23*%
%TO.N,unconnected-(U1-D5(GPIO14)-Pad23)*%
X197470000Y-119000000D03*
%TO.P,U1,24,GND_24*%
%TO.N,unconnected-(U1-GND-Pad24)*%
X197470000Y-116460000D03*
%TO.P,U1,25,3.3V_25*%
%TO.N,unconnected-(U1-3.3V-Pad25)*%
X197470000Y-113920000D03*
%TO.P,U1,26,D4(GPIO2)_26*%
%TO.N,unconnected-(U1-D4(GPIO2)-Pad26)*%
X197470000Y-111380000D03*
%TO.P,U1,27,D3(GPIO0)_27*%
%TO.N,unconnected-(U1-D3(GPIO0)-Pad27)*%
X197470000Y-108840000D03*
%TO.P,U1,28,D2(GPIO4)_28*%
%TO.N,unconnected-(U1-D2(GPIO4)-Pad28)*%
X197470000Y-106300000D03*
%TO.P,U1,29,D1(GPIO5)_29*%
%TO.N,unconnected-(U1-D1(GPIO5)-Pad29)*%
X197470000Y-103760000D03*
%TO.P,U1,30,D0(GPIO16)_30*%
%TO.N,unconnected-(U1-D0(GPIO16)-Pad30)*%
X197470000Y-101220000D03*
%TD*%
M02*
