M48
; DRILL file KiCad 10.0.3 date 2026-06-06T12:47:41
; FORMAT={-:-/ absolute / metric / decimal}
; #@! TF.CreationDate,2026-06-06T12:47:41+05:30
; #@! TF.GenerationSoftware,Kicad,Pcbnew,10.0.3
; #@! TF.FileFunction,Plated,1,2,PTH
FMAT,2
METRIC
; #@! TA.AperFunction,Plated,PTH,ComponentDrill
T1C0.762
; #@! TA.AperFunction,Plated,PTH,ComponentDrill
T2C1.000
; #@! TA.AperFunction,Plated,PTH,ComponentDrill
T3C1.300
%
G90
G05
T1
X169.53Y-101.22
X169.53Y-103.76
X169.53Y-106.3
X169.53Y-108.84
X169.53Y-111.38
X169.53Y-113.92
X169.53Y-116.46
X169.53Y-119.0
X169.53Y-121.54
X169.53Y-124.08
X169.53Y-126.62
X169.53Y-129.16
X169.53Y-131.7
X169.53Y-134.24
X169.53Y-136.78
X197.47Y-101.22
X197.47Y-103.76
X197.47Y-106.3
X197.47Y-108.84
X197.47Y-111.38
X197.47Y-113.92
X197.47Y-116.46
X197.47Y-119.0
X197.47Y-121.54
X197.47Y-124.08
X197.47Y-126.62
X197.47Y-129.16
X197.47Y-131.7
X197.47Y-134.24
X197.47Y-136.78
T2
X162.56Y-110.49
X162.56Y-113.03
X162.56Y-115.57
X162.56Y-118.11
X162.56Y-120.65
X162.56Y-123.19
X162.56Y-125.73
X162.56Y-128.27
T3
X96.52Y-116.92
X96.52Y-121.92
X112.352Y-116.75
X112.352Y-124.55
X154.852Y-109.35
X154.852Y-131.95
M30
